<?xml version="1.0" encoding="utf-8"?>
<!-- Generator: Adobe Illustrator 15.0.0, SVG Export Plug-In . SVG Version: 6.00 Build 0)  -->
<!DOCTYPE svg PUBLIC "-//W3C//DTD SVG 1.1//EN" "http://www.w3.org/Graphics/SVG/1.1/DTD/svg11.dtd">
<svg version="1.1" id="Souzu" xmlns="http://www.w3.org/2000/svg" xmlns:xlink="http://www.w3.org/1999/xlink" x="0px" y="0px"
	 width="54.223px" height="74.066px" viewBox="0 0 54.223 74.066" enable-background="new 0 0 54.223 74.066" xml:space="preserve">
<g id="_x32_sou">
	
		<rect x="0.183" y="0.183" fill="#F6F5F1" stroke="#010202" stroke-width="0.3649" stroke-miterlimit="10" width="53.858" height="73.7"/>
	<path id="Sou_14_" fill="#003C14" d="M33.528,19.734c0-1.268-0.861-2.4-2.22-3.169v-5.809c1.358-0.599,2.22-1.479,2.22-2.464
		c0-1.802-2.873-3.262-6.416-3.262s-6.416,1.46-6.416,3.262c0,0.985,0.862,1.866,2.221,2.464v5.809
		c-1.357,0.769-2.221,1.901-2.221,3.169c0,1.267,0.862,2.399,2.221,3.169v6.255c-1.357,0.598-2.221,1.479-2.221,2.464
		c0,1.117,1.229,2.691,2.789,2.691c1.561,0,2.281-1.253,3.627-1.253c1.347,0,2.067,1.253,3.627,1.253
		c1.561,0,2.789-1.574,2.789-2.691c0-0.984-0.861-1.866-2.22-2.464v-6.255C32.666,22.134,33.528,21.001,33.528,19.734z
		 M28.267,31.395h-2.311v-8.804h2.311V31.395z M27.112,21.406c-1.065,0-1.931-0.388-1.931-0.866s0.865-0.867,1.931-0.867
		c1.066,0,1.932,0.389,1.932,0.867C29.042,21.018,28.178,21.406,27.112,21.406z M27.112,18.807c-1.065,0-1.931-0.389-1.931-0.866
		c0-0.479,0.865-0.867,1.931-0.867c1.066,0,1.932,0.388,1.932,0.867C29.043,18.42,28.178,18.807,27.112,18.807z M28.267,10.135
		v5.523h-2.311v-5.523c-0.469-0.333-0.775-0.857-0.775-1.454c0-1.008,0.865-1.824,1.931-1.824c1.066,0,1.932,0.816,1.932,1.824
		C29.042,9.278,28.735,9.802,28.267,10.135z"/>
	<path id="Sou_13_" fill="#003C14" d="M33.528,54.455c0-1.267-0.861-2.399-2.22-3.169v-5.808c1.358-0.6,2.22-1.479,2.22-2.464
		c0-1.803-2.873-3.263-6.416-3.263s-6.416,1.46-6.416,3.263c0,0.984,0.862,1.865,2.221,2.464v5.808
		c-1.357,0.77-2.221,1.902-2.221,3.169c0,1.268,0.862,2.4,2.221,3.17v6.255c-1.357,0.6-2.221,1.479-2.221,2.465
		c0,1.117,1.229,2.691,2.789,2.691c1.561,0,2.281-1.254,3.627-1.254c1.347,0,2.067,1.254,3.627,1.254
		c1.561,0,2.789-1.574,2.789-2.691c0-0.984-0.861-1.865-2.22-2.465v-6.255C32.666,56.855,33.528,55.722,33.528,54.455z
		 M28.267,66.116h-2.311v-8.803h2.311V66.116z M27.112,56.126c-1.065,0-1.931-0.388-1.931-0.867c0-0.479,0.865-0.866,1.931-0.866
		c1.066,0,1.932,0.388,1.932,0.866C29.043,55.738,28.178,56.126,27.112,56.126z M27.112,53.527c-1.065,0-1.931-0.388-1.931-0.867
		c0-0.479,0.865-0.866,1.931-0.866c1.066,0,1.932,0.389,1.932,0.866C29.043,53.138,28.178,53.527,27.112,53.527z M28.267,44.856
		v5.523h-2.311v-5.523c-0.469-0.333-0.775-0.857-0.775-1.454c0-1.007,0.865-1.825,1.931-1.825c1.066,0,1.932,0.817,1.932,1.825
		C29.042,43.999,28.735,44.523,28.267,44.856z"/>
</g>
<g>
	<path d="M48.152,10.366V9.719l0.827-0.804c1.991-1.895,2.902-2.902,2.902-4.078c0-0.792-0.372-1.523-1.535-1.523
		c-0.707,0-1.295,0.36-1.655,0.66L48.355,3.23c0.528-0.443,1.308-0.792,2.195-0.792c1.679,0,2.387,1.151,2.387,2.267
		c0,1.439-1.044,2.603-2.687,4.186l-0.611,0.576v0.024h3.489v0.875H48.152z"/>
</g>
</svg>
