<?xml version="1.0" encoding="utf-8"?>
<!-- Generator: Adobe Illustrator 15.0.0, SVG Export Plug-In . SVG Version: 6.00 Build 0)  -->
<!DOCTYPE svg PUBLIC "-//W3C//DTD SVG 1.1//EN" "http://www.w3.org/Graphics/SVG/1.1/DTD/svg11.dtd">
<svg version="1.1" id="Souzu" xmlns="http://www.w3.org/2000/svg" xmlns:xlink="http://www.w3.org/1999/xlink" x="0px" y="0px"
	 width="54.225px" height="74.066px" viewBox="0 0 54.225 74.066" enable-background="new 0 0 54.225 74.066" xml:space="preserve">
<g id="_x33_sou">
	
		<rect x="0.183" y="0.183" fill="#F6F5F1" stroke="#010202" stroke-width="0.3649" stroke-miterlimit="10" width="53.857" height="73.7"/>
	<path id="Sou_11_" fill="#003C14" d="M33.528,19.734c0-1.268-0.862-2.4-2.22-3.169v-5.809c1.356-0.599,2.22-1.479,2.22-2.464
		c0-1.802-2.873-3.262-6.416-3.262c-3.544,0-6.416,1.46-6.416,3.262c0,0.985,0.862,1.866,2.22,2.464v5.809
		c-1.356,0.769-2.22,1.901-2.22,3.169c0,1.267,0.862,2.399,2.22,3.169v6.255c-1.356,0.598-2.22,1.479-2.22,2.464
		c0,1.117,1.229,2.691,2.789,2.691c1.56,0,2.28-1.253,3.627-1.253c1.346,0,2.067,1.253,3.627,1.253s2.789-1.574,2.789-2.691
		c0-0.984-0.862-1.866-2.22-2.464v-6.255C32.666,22.134,33.528,21.001,33.528,19.734z M28.268,31.395h-2.312v-8.804h2.312V31.395z
		 M27.112,21.406c-1.066,0-1.931-0.388-1.931-0.866s0.863-0.867,1.931-0.867s1.931,0.389,1.931,0.867S28.179,21.406,27.112,21.406z
		 M27.112,18.807c-1.066,0-1.931-0.389-1.931-0.866c0-0.479,0.863-0.867,1.931-0.867s1.931,0.388,1.931,0.867
		C29.043,18.42,28.179,18.807,27.112,18.807z M28.268,10.135v5.523h-2.312v-5.523c-0.469-0.333-0.774-0.857-0.774-1.454
		c0-1.008,0.863-1.824,1.931-1.824s1.931,0.816,1.931,1.824C29.043,9.278,28.736,9.802,28.268,10.135z"/>
	<path id="Sou_10_" fill="#003C14" d="M17.954,54.455c0-1.267-0.862-2.399-2.22-3.169v-5.808c1.356-0.6,2.22-1.479,2.22-2.464
		c0-1.803-2.873-3.263-6.416-3.263s-6.416,1.46-6.416,3.263c0,0.984,0.862,1.865,2.22,2.464v5.808
		c-1.356,0.77-2.22,1.902-2.22,3.169c0,1.268,0.862,2.4,2.22,3.17v6.255c-1.356,0.6-2.22,1.479-2.22,2.465
		c0,1.117,1.229,2.691,2.789,2.691c1.561,0,2.281-1.254,3.627-1.254c1.347,0,2.067,1.254,3.627,1.254
		c1.561,0,2.789-1.574,2.789-2.691c0-0.984-0.862-1.865-2.22-2.465v-6.255C17.092,56.855,17.954,55.722,17.954,54.455z
		 M12.693,66.116h-2.312v-8.803h2.312V66.116z M11.538,56.126c-1.065,0-1.931-0.388-1.931-0.867c0-0.479,0.864-0.866,1.931-0.866
		c1.067,0,1.932,0.388,1.932,0.866C13.469,55.738,12.604,56.126,11.538,56.126z M11.538,53.527c-1.065,0-1.931-0.388-1.931-0.867
		c0-0.479,0.864-0.866,1.931-0.866c1.067,0,1.932,0.389,1.932,0.866C13.469,53.138,12.604,53.527,11.538,53.527z M12.693,44.856
		v5.523h-2.312v-5.523c-0.469-0.333-0.774-0.857-0.774-1.454c0-1.007,0.864-1.825,1.931-1.825c1.067,0,1.932,0.817,1.932,1.825
		C13.469,43.999,13.162,44.523,12.693,44.856z"/>
	<path id="Sou_5_" fill="#003C14" d="M48.965,54.455c0-1.267-0.861-2.399-2.22-3.169v-5.808c1.357-0.6,2.22-1.479,2.22-2.464
		c0-1.803-2.872-3.263-6.416-3.263c-3.543,0-6.416,1.46-6.416,3.263c0,0.984,0.862,1.865,2.222,2.464v5.808
		c-1.358,0.77-2.222,1.902-2.222,3.169c0,1.268,0.862,2.4,2.222,3.17v6.255c-1.358,0.6-2.222,1.479-2.222,2.465
		c0,1.117,1.229,2.691,2.789,2.691c1.561,0,2.281-1.254,3.627-1.254c1.348,0,2.067,1.254,3.627,1.254
		c1.561,0,2.789-1.574,2.789-2.691c0-0.984-0.861-1.865-2.22-2.465v-6.255C48.103,56.855,48.965,55.722,48.965,54.455z
		 M43.705,66.116h-2.312v-8.803h2.312V66.116z M42.549,56.126c-1.065,0-1.931-0.388-1.931-0.867c0-0.479,0.864-0.866,1.931-0.866
		c1.067,0,1.933,0.388,1.933,0.866C44.481,55.738,43.615,56.126,42.549,56.126z M42.549,53.527c-1.065,0-1.931-0.388-1.931-0.867
		c0-0.479,0.864-0.866,1.931-0.866c1.067,0,1.933,0.389,1.933,0.866C44.481,53.138,43.615,53.527,42.549,53.527z M43.705,44.856
		v5.523h-2.312v-5.523c-0.469-0.333-0.775-0.857-0.775-1.454c0-1.007,0.864-1.825,1.931-1.825c1.067,0,1.933,0.817,1.933,1.825
		C44.48,43.999,44.173,44.523,43.705,44.856z"/>
</g>
<g>
	<path d="M47.654,9.584c0.3,0.18,0.983,0.479,1.727,0.479c1.344,0,1.775-0.852,1.763-1.511c-0.012-1.091-0.995-1.559-2.015-1.559
		h-0.588V6.202h0.588c0.768,0,1.739-0.396,1.739-1.319c0-0.624-0.396-1.175-1.367-1.175c-0.624,0-1.224,0.276-1.56,0.516
		l-0.287-0.768c0.419-0.3,1.211-0.6,2.051-0.6c1.535,0,2.23,0.912,2.23,1.859c0,0.816-0.492,1.5-1.439,1.847v0.024
		c0.96,0.18,1.728,0.899,1.739,1.991c0,1.248-0.983,2.339-2.843,2.339c-0.875,0-1.643-0.276-2.026-0.528L47.654,9.584z"/>
</g>
</svg>
