<?xml version="1.0" encoding="utf-8"?>
<!-- Generator: Adobe Illustrator 15.0.0, SVG Export Plug-In . SVG Version: 6.00 Build 0)  -->
<!DOCTYPE svg PUBLIC "-//W3C//DTD SVG 1.1//EN" "http://www.w3.org/Graphics/SVG/1.1/DTD/svg11.dtd">
<svg version="1.1" id="Souzu" xmlns="http://www.w3.org/2000/svg" xmlns:xlink="http://www.w3.org/1999/xlink" x="0px" y="0px"
	 width="54.225px" height="74.066px" viewBox="0 0 54.225 74.066" enable-background="new 0 0 54.225 74.066" xml:space="preserve">
<g id="_x35_sou">
	
		<rect x="0.183" y="0.183" fill="#F6F5F1" stroke="#010202" stroke-width="0.3649" stroke-miterlimit="10" width="53.857" height="73.7"/>
	<path id="Sou_3_" fill="#003C14" d="M17.954,19.734c0-1.268-0.862-2.4-2.22-3.169v-5.809c1.356-0.599,2.22-1.479,2.22-2.464
		c0-1.802-2.873-3.262-6.416-3.262s-6.416,1.46-6.416,3.262c0,0.985,0.862,1.866,2.22,2.464v5.809
		c-1.356,0.769-2.22,1.901-2.22,3.169c0,1.267,0.862,2.399,2.22,3.169v6.255c-1.356,0.598-2.22,1.479-2.22,2.464
		c0,1.117,1.229,2.691,2.789,2.691c1.561,0,2.28-1.253,3.627-1.253c1.346,0,2.067,1.253,3.627,1.253
		c1.561,0,2.789-1.574,2.789-2.691c0-0.984-0.862-1.866-2.22-2.464v-6.255C17.092,22.134,17.954,21.001,17.954,19.734z
		 M12.693,31.395h-2.312v-8.804h2.312V31.395z M11.538,21.406c-1.065,0-1.931-0.388-1.931-0.866s0.864-0.867,1.931-0.867
		c1.067,0,1.932,0.389,1.932,0.867S12.604,21.406,11.538,21.406z M11.538,18.807c-1.065,0-1.931-0.389-1.931-0.866
		c0-0.479,0.864-0.867,1.931-0.867c1.067,0,1.932,0.388,1.932,0.867C13.469,18.42,12.604,18.807,11.538,18.807z M12.693,10.135
		v5.523h-2.312v-5.523C9.914,9.802,9.607,9.278,9.607,8.682c0-1.008,0.864-1.824,1.931-1.824c1.067,0,1.932,0.816,1.932,1.824
		C13.469,9.278,13.162,9.802,12.693,10.135z"/>
	<path id="Sou_2_" fill="#003C14" d="M48.965,19.734c0-1.268-0.861-2.4-2.22-3.169v-5.809c1.357-0.599,2.22-1.479,2.22-2.464
		c0-1.802-2.873-3.262-6.416-3.262s-6.416,1.46-6.416,3.262c0,0.985,0.862,1.866,2.221,2.464v5.809
		c-1.357,0.769-2.221,1.901-2.221,3.169c0,1.267,0.862,2.399,2.221,3.169v6.255c-1.357,0.598-2.221,1.479-2.221,2.464
		c0,1.117,1.229,2.691,2.789,2.691c1.561,0,2.281-1.253,3.627-1.253c1.348,0,2.067,1.253,3.627,1.253
		c1.561,0,2.789-1.574,2.789-2.691c0-0.984-0.861-1.866-2.22-2.464v-6.255C48.103,22.134,48.965,21.001,48.965,19.734z
		 M43.704,31.395h-2.311v-8.804h2.311V31.395z M42.549,21.406c-1.065,0-1.931-0.388-1.931-0.866s0.864-0.867,1.931-0.867
		c1.067,0,1.932,0.389,1.932,0.867C44.479,21.018,43.615,21.406,42.549,21.406z M42.549,18.807c-1.065,0-1.931-0.389-1.931-0.866
		c0-0.479,0.864-0.867,1.931-0.867c1.067,0,1.932,0.388,1.932,0.867C44.48,18.42,43.615,18.807,42.549,18.807z M43.704,10.135v5.523
		h-2.311v-5.523c-0.47-0.333-0.775-0.857-0.775-1.454c0-1.008,0.864-1.824,1.931-1.824c1.067,0,1.932,0.816,1.932,1.824
		C44.479,9.278,44.173,9.802,43.704,10.135z"/>
	<path id="Sou_1_" fill="#003C14" d="M17.954,54.455c0-1.267-0.862-2.399-2.22-3.169v-5.808c1.356-0.6,2.22-1.479,2.22-2.464
		c0-1.803-2.873-3.263-6.416-3.263s-6.416,1.46-6.416,3.263c0,0.984,0.862,1.865,2.22,2.464v5.808
		c-1.356,0.77-2.22,1.902-2.22,3.169c0,1.268,0.862,2.4,2.22,3.17v6.255c-1.356,0.6-2.22,1.479-2.22,2.465
		c0,1.117,1.229,2.691,2.789,2.691c1.561,0,2.28-1.254,3.627-1.254c1.346,0,2.067,1.254,3.627,1.254
		c1.561,0,2.789-1.574,2.789-2.691c0-0.984-0.862-1.865-2.22-2.465v-6.255C17.092,56.855,17.954,55.722,17.954,54.455z
		 M12.693,66.116h-2.312v-8.803h2.312V66.116z M11.538,56.126c-1.065,0-1.931-0.388-1.931-0.867c0-0.479,0.864-0.866,1.931-0.866
		c1.067,0,1.932,0.388,1.932,0.866C13.469,55.738,12.604,56.126,11.538,56.126z M11.538,53.527c-1.065,0-1.931-0.388-1.931-0.867
		c0-0.479,0.864-0.866,1.931-0.866c1.067,0,1.932,0.389,1.932,0.866C13.469,53.138,12.604,53.527,11.538,53.527z M12.693,44.856
		v5.523h-2.312v-5.523c-0.469-0.333-0.774-0.857-0.774-1.454c0-1.007,0.864-1.825,1.931-1.825c1.067,0,1.932,0.817,1.932,1.825
		C13.469,43.999,13.162,44.523,12.693,44.856z"/>
	<path id="Sou" fill="#003C14" d="M48.965,54.455c0-1.267-0.861-2.399-2.22-3.169v-5.808c1.357-0.6,2.22-1.479,2.22-2.464
		c0-1.803-2.873-3.263-6.416-3.263s-6.416,1.46-6.416,3.263c0,0.984,0.862,1.865,2.221,2.464v5.808
		c-1.357,0.77-2.221,1.902-2.221,3.169c0,1.268,0.862,2.4,2.221,3.17v6.255c-1.357,0.6-2.221,1.479-2.221,2.465
		c0,1.117,1.229,2.691,2.789,2.691c1.561,0,2.281-1.254,3.627-1.254c1.348,0,2.067,1.254,3.627,1.254
		c1.561,0,2.789-1.574,2.789-2.691c0-0.984-0.861-1.865-2.22-2.465v-6.255C48.103,56.855,48.965,55.722,48.965,54.455z
		 M43.704,66.116h-2.311v-8.803h2.311V66.116z M42.549,56.126c-1.065,0-1.931-0.388-1.931-0.867c0-0.479,0.864-0.866,1.931-0.866
		c1.067,0,1.932,0.388,1.932,0.866C44.48,55.738,43.615,56.126,42.549,56.126z M42.549,53.527c-1.065,0-1.931-0.388-1.931-0.867
		c0-0.479,0.864-0.866,1.931-0.866c1.067,0,1.932,0.389,1.932,0.866C44.48,53.138,43.615,53.527,42.549,53.527z M43.704,44.856
		v5.523h-2.311v-5.523c-0.47-0.333-0.775-0.857-0.775-1.454c0-1.007,0.864-1.825,1.931-1.825c1.067,0,1.932,0.817,1.932,1.825
		C44.479,43.999,44.173,44.523,43.704,44.856z"/>
	<path id="Sou_4_" fill="#801927" d="M33.459,37.094c0-1.268-0.861-2.4-2.22-3.17v-5.808c1.357-0.599,2.22-1.479,2.22-2.464
		c0-1.802-2.872-3.262-6.416-3.262c-3.543,0-6.416,1.46-6.416,3.262c0,0.985,0.862,1.866,2.222,2.464v5.808
		c-1.358,0.77-2.222,1.902-2.222,3.17c0,1.267,0.862,2.399,2.222,3.17v6.255c-1.358,0.598-2.222,1.479-2.222,2.464
		c0,1.117,1.229,2.69,2.789,2.69c1.561,0,2.281-1.253,3.627-1.253c1.348,0,2.067,1.253,3.627,1.253c1.561,0,2.789-1.573,2.789-2.69
		c0-0.985-0.861-1.866-2.22-2.464v-6.255C32.597,39.495,33.459,38.361,33.459,37.094z M28.199,48.755h-2.312v-8.803h2.312V48.755z
		 M27.043,38.766c-1.065,0-1.931-0.389-1.931-0.867c0-0.479,0.864-0.866,1.931-0.866c1.067,0,1.933,0.388,1.933,0.866
		C28.975,38.377,28.109,38.766,27.043,38.766z M27.043,36.167c-1.065,0-1.931-0.388-1.931-0.865c0-0.479,0.864-0.867,1.931-0.867
		c1.067,0,1.933,0.388,1.933,0.867C28.975,35.779,28.109,36.167,27.043,36.167z M28.199,27.496v5.524h-2.312v-5.524
		c-0.469-0.333-0.775-0.856-0.775-1.454c0-1.007,0.864-1.823,1.931-1.823c1.067,0,1.933,0.816,1.933,1.823
		C28.975,26.638,28.667,27.163,28.199,27.496z"/>
</g>
<g>
	<path d="M53.139,2.959h-2.975l-0.3,2.003c0.18-0.024,0.348-0.036,0.636-0.036c0.611,0,1.199,0.12,1.679,0.42
		c0.612,0.336,1.115,1.02,1.115,1.991c0,1.523-1.211,2.663-2.902,2.663c-0.852,0-1.559-0.24-1.942-0.479l0.264-0.804
		c0.324,0.192,0.959,0.432,1.679,0.432c0.983,0,1.848-0.647,1.835-1.691c0-1.007-0.684-1.715-2.23-1.715
		c-0.456,0-0.804,0.036-1.092,0.072l0.504-3.742h3.73V2.959z"/>
</g>
</svg>
