<?xml version="1.0" encoding="utf-8"?>
<!-- Generator: Adobe Illustrator 15.0.0, SVG Export Plug-In . SVG Version: 6.00 Build 0)  -->
<!DOCTYPE svg PUBLIC "-//W3C//DTD SVG 1.1//EN" "http://www.w3.org/Graphics/SVG/1.1/DTD/svg11.dtd">
<svg version="1.1" id="Souzu" xmlns="http://www.w3.org/2000/svg" xmlns:xlink="http://www.w3.org/1999/xlink" x="0px" y="0px"
	 width="54.225px" height="74.066px" viewBox="0 0 54.225 74.066" enable-background="new 0 0 54.225 74.066" xml:space="preserve">
<g id="_x36_sou">
	
		<rect x="0.183" y="0.183" fill="#F6F5F1" stroke="#010202" stroke-width="0.3649" stroke-miterlimit="10" width="53.857" height="73.7"/>
	<path id="Sou_18_" fill="#003C14" d="M17.954,19.734c0-1.268-0.862-2.4-2.221-3.169v-5.809c1.357-0.599,2.221-1.479,2.221-2.464
		c0-1.802-2.873-3.262-6.416-3.262c-3.544,0-6.416,1.46-6.416,3.262c0,0.985,0.862,1.866,2.22,2.464v5.809
		c-1.356,0.769-2.22,1.901-2.22,3.169c0,1.267,0.862,2.399,2.22,3.169v6.255c-1.356,0.598-2.22,1.479-2.22,2.464
		c0,1.117,1.229,2.691,2.789,2.691c1.561,0,2.28-1.253,3.627-1.253c1.346,0,2.067,1.253,3.627,1.253
		c1.561,0,2.789-1.574,2.789-2.691c0-0.984-0.862-1.866-2.221-2.464v-6.255C17.092,22.134,17.954,21.001,17.954,19.734z
		 M12.693,31.395h-2.312v-8.804h2.312V31.395z M11.538,21.406c-1.065,0-1.932-0.388-1.932-0.866s0.865-0.867,1.932-0.867
		c1.067,0,1.932,0.389,1.932,0.867S12.604,21.406,11.538,21.406z M11.538,18.807c-1.065,0-1.932-0.389-1.932-0.866
		c0-0.479,0.865-0.867,1.932-0.867c1.067,0,1.932,0.388,1.932,0.867C13.469,18.42,12.604,18.807,11.538,18.807z M12.693,10.135
		v5.523h-2.312v-5.523C9.914,9.802,9.606,9.278,9.606,8.682c0-1.008,0.865-1.824,1.932-1.824c1.067,0,1.932,0.816,1.932,1.824
		C13.469,9.278,13.161,9.802,12.693,10.135z"/>
	<path id="Sou_17_" fill="#003C14" d="M48.965,19.734c0-1.268-0.861-2.4-2.22-3.169v-5.809c1.357-0.599,2.22-1.479,2.22-2.464
		c0-1.802-2.873-3.262-6.416-3.262s-6.416,1.46-6.416,3.262c0,0.985,0.862,1.866,2.221,2.464v5.809
		c-1.357,0.769-2.221,1.901-2.221,3.169c0,1.267,0.862,2.399,2.221,3.169v6.255c-1.357,0.598-2.221,1.479-2.221,2.464
		c0,1.117,1.229,2.691,2.789,2.691c1.561,0,2.28-1.253,3.627-1.253s2.067,1.253,3.627,1.253c1.561,0,2.789-1.574,2.789-2.691
		c0-0.984-0.861-1.866-2.22-2.464v-6.255C48.103,22.134,48.965,21.001,48.965,19.734z M43.704,31.395h-2.311v-8.804h2.311V31.395z
		 M42.549,21.406c-1.065,0-1.931-0.388-1.931-0.866s0.864-0.867,1.931-0.867c1.067,0,1.932,0.389,1.932,0.867
		C44.479,21.018,43.615,21.406,42.549,21.406z M42.549,18.807c-1.065,0-1.931-0.389-1.931-0.866c0-0.479,0.864-0.867,1.931-0.867
		c1.067,0,1.932,0.388,1.932,0.867C44.48,18.42,43.615,18.807,42.549,18.807z M43.704,10.135v5.523h-2.311v-5.523
		c-0.47-0.333-0.775-0.857-0.775-1.454c0-1.008,0.864-1.824,1.931-1.824c1.067,0,1.932,0.816,1.932,1.824
		C44.479,9.278,44.173,9.802,43.704,10.135z"/>
	<path id="Sou_16_" fill="#003C14" d="M17.954,54.455c0-1.267-0.862-2.399-2.221-3.169v-5.808c1.357-0.6,2.221-1.479,2.221-2.464
		c0-1.803-2.873-3.263-6.416-3.263c-3.544,0-6.416,1.46-6.416,3.263c0,0.984,0.862,1.865,2.22,2.464v5.808
		c-1.356,0.77-2.22,1.902-2.22,3.169c0,1.268,0.862,2.4,2.22,3.17v6.255c-1.356,0.6-2.22,1.479-2.22,2.465
		c0,1.117,1.229,2.691,2.789,2.691c1.561,0,2.28-1.254,3.627-1.254c1.346,0,2.067,1.254,3.627,1.254
		c1.561,0,2.789-1.574,2.789-2.691c0-0.984-0.862-1.865-2.221-2.465v-6.255C17.092,56.855,17.954,55.722,17.954,54.455z
		 M12.693,66.116h-2.312v-8.803h2.312V66.116z M11.538,56.126c-1.065,0-1.932-0.388-1.932-0.867c0-0.479,0.865-0.866,1.932-0.866
		c1.067,0,1.932,0.388,1.932,0.866C13.469,55.738,12.604,56.126,11.538,56.126z M11.538,53.527c-1.065,0-1.932-0.388-1.932-0.867
		c0-0.479,0.865-0.866,1.932-0.866c1.067,0,1.932,0.389,1.932,0.866C13.469,53.138,12.604,53.527,11.538,53.527z M12.693,44.856
		v5.523h-2.312v-5.523c-0.468-0.333-0.774-0.857-0.774-1.454c0-1.007,0.865-1.825,1.932-1.825c1.067,0,1.932,0.817,1.932,1.825
		C13.469,43.999,13.161,44.523,12.693,44.856z"/>
	<path id="Sou_19_" fill="#003C14" d="M33.527,19.734c0-1.268-0.862-2.4-2.22-3.169v-5.809c1.356-0.599,2.22-1.479,2.22-2.464
		c0-1.802-2.872-3.262-6.416-3.262c-3.543,0-6.416,1.46-6.416,3.262c0,0.985,0.862,1.866,2.22,2.464v5.809
		c-1.356,0.769-2.22,1.901-2.22,3.169c0,1.267,0.862,2.399,2.22,3.169v6.255c-1.356,0.598-2.22,1.479-2.22,2.464
		c0,1.117,1.229,2.691,2.789,2.691c1.56,0,2.281-1.253,3.627-1.253c1.347,0,2.067,1.253,3.627,1.253s2.789-1.574,2.789-2.691
		c0-0.984-0.862-1.866-2.22-2.464v-6.255C32.665,22.134,33.527,21.001,33.527,19.734z M28.267,31.395h-2.312v-8.804h2.312V31.395z
		 M27.111,21.406c-1.066,0-1.931-0.388-1.931-0.866s0.863-0.867,1.931-0.867s1.931,0.389,1.931,0.867S28.178,21.406,27.111,21.406z
		 M27.111,18.807c-1.066,0-1.931-0.389-1.931-0.866c0-0.479,0.863-0.867,1.931-0.867s1.931,0.388,1.931,0.867
		C29.042,18.42,28.178,18.807,27.111,18.807z M28.267,10.135v5.523h-2.312v-5.523c-0.469-0.333-0.774-0.857-0.774-1.454
		c0-1.008,0.863-1.824,1.931-1.824s1.931,0.816,1.931,1.824C29.042,9.278,28.735,9.802,28.267,10.135z"/>
	<path id="Sou_12_" fill="#003C14" d="M33.527,54.455c0-1.267-0.862-2.399-2.22-3.169v-5.808c1.356-0.6,2.22-1.479,2.22-2.464
		c0-1.803-2.872-3.263-6.416-3.263c-3.543,0-6.416,1.46-6.416,3.263c0,0.984,0.862,1.865,2.22,2.464v5.808
		c-1.356,0.77-2.22,1.902-2.22,3.169c0,1.268,0.862,2.4,2.22,3.17v6.255c-1.356,0.6-2.22,1.479-2.22,2.465
		c0,1.117,1.229,2.691,2.789,2.691c1.56,0,2.281-1.254,3.627-1.254c1.347,0,2.067,1.254,3.627,1.254s2.789-1.574,2.789-2.691
		c0-0.984-0.862-1.865-2.22-2.465v-6.255C32.665,56.855,33.527,55.722,33.527,54.455z M28.267,66.116h-2.312v-8.803h2.312V66.116z
		 M27.111,56.126c-1.066,0-1.931-0.388-1.931-0.867c0-0.479,0.863-0.866,1.931-0.866s1.931,0.388,1.931,0.866
		C29.042,55.738,28.178,56.126,27.111,56.126z M27.111,53.527c-1.066,0-1.931-0.388-1.931-0.867c0-0.479,0.863-0.866,1.931-0.866
		s1.931,0.389,1.931,0.866C29.042,53.138,28.178,53.527,27.111,53.527z M28.267,44.856v5.523h-2.312v-5.523
		c-0.469-0.333-0.774-0.857-0.774-1.454c0-1.007,0.863-1.825,1.931-1.825s1.931,0.817,1.931,1.825
		C29.042,43.999,28.735,44.523,28.267,44.856z"/>
	<path id="Sou_15_" fill="#003C14" d="M48.965,54.455c0-1.267-0.861-2.399-2.22-3.169v-5.808c1.357-0.6,2.22-1.479,2.22-2.464
		c0-1.803-2.873-3.263-6.416-3.263s-6.416,1.46-6.416,3.263c0,0.984,0.862,1.865,2.221,2.464v5.808
		c-1.357,0.77-2.221,1.902-2.221,3.169c0,1.268,0.862,2.4,2.221,3.17v6.255c-1.357,0.6-2.221,1.479-2.221,2.465
		c0,1.117,1.229,2.691,2.789,2.691c1.561,0,2.28-1.254,3.627-1.254s2.067,1.254,3.627,1.254c1.561,0,2.789-1.574,2.789-2.691
		c0-0.984-0.861-1.865-2.22-2.465v-6.255C48.103,56.855,48.965,55.722,48.965,54.455z M43.704,66.116h-2.311v-8.803h2.311V66.116z
		 M42.549,56.126c-1.065,0-1.931-0.388-1.931-0.867c0-0.479,0.864-0.866,1.931-0.866c1.067,0,1.932,0.388,1.932,0.866
		C44.48,55.738,43.615,56.126,42.549,56.126z M42.549,53.527c-1.065,0-1.931-0.388-1.931-0.867c0-0.479,0.864-0.866,1.931-0.866
		c1.067,0,1.932,0.389,1.932,0.866C44.48,53.138,43.615,53.527,42.549,53.527z M43.704,44.856v5.523h-2.311v-5.523
		c-0.47-0.333-0.775-0.857-0.775-1.454c0-1.007,0.864-1.825,1.931-1.825c1.067,0,1.932,0.817,1.932,1.825
		C44.479,43.999,44.173,44.523,43.704,44.856z"/>
</g>
<g>
	<path d="M52.434,2.314c-0.216-0.012-0.492,0.012-0.792,0.06c-1.667,0.264-2.53,1.463-2.71,2.758h0.023
		c0.372-0.503,1.032-0.911,1.896-0.911c1.379,0,2.351,1.007,2.351,2.519c0,1.439-0.972,2.758-2.603,2.758
		c-1.655,0-2.746-1.295-2.746-3.322c0-1.535,0.539-2.746,1.319-3.514c0.647-0.636,1.511-1.032,2.494-1.151
		c0.312-0.048,0.576-0.06,0.768-0.06V2.314z M52.135,6.812c0-1.115-0.636-1.787-1.607-1.787c-0.636,0-1.235,0.384-1.522,0.959
		c-0.061,0.12-0.108,0.264-0.108,0.456c0.012,1.283,0.611,2.243,1.728,2.243C51.523,8.683,52.135,7.927,52.135,6.812z"/>
</g>
</svg>
