<?xml version="1.0" encoding="utf-8"?>
<!-- Generator: Adobe Illustrator 15.0.0, SVG Export Plug-In . SVG Version: 6.00 Build 0)  -->
<!DOCTYPE svg PUBLIC "-//W3C//DTD SVG 1.1//EN" "http://www.w3.org/Graphics/SVG/1.1/DTD/svg11.dtd">
<svg version="1.1" id="Souzu" xmlns="http://www.w3.org/2000/svg" xmlns:xlink="http://www.w3.org/1999/xlink" x="0px" y="0px"
	 width="54.223px" height="74.066px" viewBox="0 0 54.223 74.066" enable-background="new 0 0 54.223 74.066" xml:space="preserve">
<g id="_x39_sou">
	
		<rect x="0.183" y="0.183" fill="#F6F5F1" stroke="#010202" stroke-width="0.3649" stroke-miterlimit="10" width="53.857" height="73.7"/>
	<path id="Sou2_5_" fill="#003C14" d="M46.046,58.058c0-0.795-0.748-1.507-1.925-1.99v-3.646c1.177-0.375,1.925-0.929,1.925-1.547
		c0-1.131-2.49-2.048-5.562-2.048c-3.071,0-5.562,0.917-5.562,2.048c0,0.618,0.748,1.171,1.925,1.547v3.646
		c-1.177,0.483-1.925,1.194-1.925,1.99s0.748,1.507,1.925,1.989v3.928c-1.177,0.376-1.925,0.929-1.925,1.547
		c0,0.702,1.065,1.689,2.418,1.689c1.352,0,1.978-0.787,3.145-0.787s1.792,0.787,3.145,0.787c1.352,0,2.418-0.987,2.418-1.689
		c0-0.618-0.748-1.171-1.925-1.547v-3.928C45.298,59.564,46.046,58.853,46.046,58.058z M40.484,49.974
		c0.925,0,1.675,0.513,1.675,1.146c0,0.374-0.268,0.703-0.673,0.912V55.5h-2.004v-3.468c-0.405-0.209-0.672-0.538-0.672-0.912
		C38.811,50.487,39.56,49.974,40.484,49.974z M41.486,65.378h-2.004v-5.525h2.004V65.378z M40.484,58.899
		c-1.105,0-2.004-0.395-2.004-0.88c0-0.486,0.897-0.88,2.004-0.88c1.105,0,2.003,0.394,2.003,0.88
		C42.487,58.505,41.59,58.899,40.484,58.899z"/>
	<path id="Sou2_4_" fill="#801927" d="M32.664,58.058c0-0.795-0.748-1.507-1.926-1.99v-3.646c1.178-0.375,1.926-0.929,1.926-1.547
		c0-1.131-2.49-2.048-5.562-2.048s-5.562,0.917-5.562,2.048c0,0.618,0.747,1.171,1.925,1.547v3.646
		c-1.178,0.483-1.925,1.194-1.925,1.99s0.747,1.507,1.925,1.989v3.928c-1.178,0.376-1.925,0.929-1.925,1.547
		c0,0.702,1.065,1.689,2.418,1.689c1.352,0,1.977-0.787,3.145-0.787c1.166,0,1.792,0.787,3.145,0.787s2.418-0.987,2.418-1.689
		c0-0.618-0.748-1.171-1.925-1.547v-3.928C31.916,59.564,32.664,58.853,32.664,58.058z M27.103,49.974
		c0.924,0,1.673,0.513,1.673,1.146c0,0.374-0.266,0.703-0.672,0.912V55.5h-2.003v-3.468c-0.406-0.209-0.673-0.538-0.673-0.912
		C25.428,50.487,26.178,49.974,27.103,49.974z M28.104,65.378h-2.003v-5.525h2.003V65.378z M27.103,58.899
		c-1.106,0-2.004-0.395-2.004-0.88c0-0.486,0.896-0.88,2.004-0.88c1.105,0,2.003,0.394,2.003,0.88
		C29.105,58.505,28.208,58.899,27.103,58.899z"/>
	<path id="Sou2_3_" fill="#003C14" d="M19.163,58.058c0-0.795-0.747-1.507-1.925-1.99v-3.646c1.178-0.375,1.925-0.929,1.925-1.547
		c0-1.131-2.49-2.048-5.562-2.048S8.04,49.744,8.04,50.875c0,0.618,0.748,1.171,1.924,1.547v3.646
		c-1.176,0.483-1.924,1.194-1.924,1.99s0.748,1.507,1.924,1.989v3.928C8.788,64.35,8.04,64.903,8.04,65.521
		c0,0.702,1.064,1.689,2.418,1.689c1.352,0,1.977-0.787,3.144-0.787s1.793,0.787,3.146,0.787c1.352,0,2.417-0.987,2.417-1.689
		c0-0.618-0.747-1.171-1.924-1.547v-3.928C18.416,59.564,19.163,58.853,19.163,58.058z M13.602,49.974
		c0.925,0,1.674,0.513,1.674,1.146c0,0.374-0.266,0.703-0.672,0.912V55.5H12.6v-3.468c-0.405-0.209-0.672-0.538-0.672-0.912
		C11.928,50.487,12.678,49.974,13.602,49.974z M14.604,65.378H12.6v-5.525h2.004V65.378z M13.602,58.899
		c-1.105,0-2.003-0.395-2.003-0.88c0-0.486,0.896-0.88,2.003-0.88c1.107,0,2.004,0.394,2.004,0.88
		C15.605,58.505,14.708,58.899,13.602,58.899z"/>
	<path id="Sou2_2_" fill="#003C14" d="M46.046,36.261c0-0.796-0.748-1.508-1.925-1.989v-3.646c1.177-0.375,1.925-0.929,1.925-1.547
		c0-1.131-2.49-2.048-5.562-2.048c-3.071,0-5.562,0.917-5.562,2.048c0,0.619,0.748,1.172,1.925,1.547v3.646
		c-1.177,0.481-1.925,1.193-1.925,1.989c0,0.795,0.748,1.507,1.925,1.989v3.928c-1.177,0.375-1.925,0.929-1.925,1.547
		c0,0.702,1.065,1.689,2.418,1.689c1.352,0,1.978-0.787,3.145-0.787s1.792,0.787,3.145,0.787c1.352,0,2.418-0.987,2.418-1.689
		c0-0.618-0.748-1.171-1.925-1.547v-3.928C45.298,37.768,46.046,37.057,46.046,36.261z M40.484,28.178
		c0.925,0,1.675,0.513,1.675,1.145c0,0.375-0.268,0.704-0.673,0.913v3.468h-2.004v-3.468c-0.405-0.209-0.672-0.538-0.672-0.913
		C38.811,28.69,39.56,28.178,40.484,28.178z M41.486,43.582h-2.004v-5.525h2.004V43.582z M40.484,37.103
		c-1.105,0-2.004-0.395-2.004-0.88c0-0.486,0.897-0.88,2.004-0.88c1.105,0,2.003,0.394,2.003,0.88
		C42.487,36.709,41.59,37.103,40.484,37.103z"/>
	<path id="Sou2_1_" fill="#801927" d="M32.664,36.261c0-0.796-0.748-1.508-1.926-1.989v-3.646c1.178-0.375,1.926-0.929,1.926-1.547
		c0-1.131-2.49-2.048-5.562-2.048s-5.562,0.917-5.562,2.048c0,0.619,0.747,1.172,1.925,1.547v3.646
		c-1.178,0.481-1.925,1.193-1.925,1.989c0,0.795,0.747,1.507,1.925,1.989v3.928c-1.178,0.375-1.925,0.929-1.925,1.547
		c0,0.702,1.065,1.689,2.418,1.689c1.352,0,1.977-0.787,3.145-0.787c1.166,0,1.792,0.787,3.145,0.787s2.418-0.987,2.418-1.689
		c0-0.618-0.748-1.171-1.925-1.547v-3.928C31.916,37.768,32.664,37.057,32.664,36.261z M27.103,28.178
		c0.924,0,1.673,0.513,1.673,1.145c0,0.375-0.266,0.704-0.672,0.913v3.468h-2.003v-3.468c-0.406-0.209-0.673-0.538-0.673-0.913
		C25.428,28.69,26.178,28.178,27.103,28.178z M28.104,43.582h-2.003v-5.525h2.003V43.582z M27.103,37.103
		c-1.106,0-2.004-0.395-2.004-0.88c0-0.486,0.896-0.88,2.004-0.88c1.105,0,2.003,0.394,2.003,0.88
		C29.106,36.709,28.208,37.103,27.103,37.103z"/>
	<path id="Sou2" fill="#003C14" d="M19.163,36.261c0-0.796-0.747-1.508-1.925-1.989v-3.646c1.178-0.375,1.925-0.929,1.925-1.547
		c0-1.131-2.49-2.048-5.562-2.048S8.04,27.948,8.04,29.079c0,0.619,0.748,1.172,1.924,1.547v3.646
		c-1.176,0.481-1.924,1.193-1.924,1.989c0,0.795,0.748,1.507,1.924,1.989v3.928c-1.176,0.375-1.924,0.929-1.924,1.547
		c0,0.702,1.064,1.689,2.418,1.689c1.352,0,1.977-0.787,3.144-0.787s1.793,0.787,3.146,0.787c1.352,0,2.417-0.987,2.417-1.689
		c0-0.618-0.747-1.171-1.924-1.547v-3.928C18.416,37.768,19.163,37.057,19.163,36.261z M13.602,28.178
		c0.925,0,1.674,0.513,1.674,1.145c0,0.375-0.266,0.704-0.672,0.913v3.468H12.6v-3.468c-0.405-0.209-0.672-0.538-0.672-0.913
		C11.928,28.69,12.678,28.178,13.602,28.178z M14.604,43.582H12.6v-5.525h2.004V43.582z M13.602,37.103
		c-1.105,0-2.003-0.395-2.003-0.88c0-0.486,0.896-0.88,2.003-0.88c1.107,0,2.004,0.394,2.004,0.88
		C15.606,36.709,14.708,37.103,13.602,37.103z"/>
	<path id="Sou2_23_" fill="#003C14" d="M46.046,14.465c0-0.795-0.748-1.507-1.925-1.989V8.83c1.177-0.375,1.925-0.929,1.925-1.547
		c0-1.131-2.49-2.048-5.562-2.048c-3.071,0-5.562,0.917-5.562,2.048c0,0.619,0.748,1.172,1.925,1.547v3.646
		c-1.177,0.482-1.925,1.193-1.925,1.989c0,0.797,0.748,1.508,1.925,1.99v3.927c-1.177,0.375-1.925,0.93-1.925,1.548
		c0,0.701,1.065,1.688,2.418,1.688c1.352,0,1.978-0.787,3.145-0.787s1.792,0.787,3.145,0.787c1.352,0,2.418-0.988,2.418-1.688
		c0-0.618-0.748-1.172-1.925-1.548v-3.927C45.298,15.972,46.046,15.26,46.046,14.465z M40.484,6.381
		c0.925,0,1.675,0.514,1.675,1.146c0,0.374-0.268,0.704-0.673,0.913v3.468h-2.004V8.439C39.076,8.23,38.811,7.9,38.811,7.526
		C38.811,6.894,39.56,6.381,40.484,6.381z M41.486,21.785h-2.004v-5.526h2.004V21.785z M40.484,15.306
		c-1.105,0-2.004-0.395-2.004-0.88c0-0.486,0.897-0.881,2.004-0.881c1.105,0,2.003,0.395,2.003,0.881
		C42.487,14.912,41.59,15.306,40.484,15.306z"/>
	<path id="Sou2_21_" fill="#003C14" d="M19.163,14.465c0-0.795-0.747-1.507-1.925-1.989V8.83c1.178-0.375,1.925-0.929,1.925-1.547
		c0-1.131-2.49-2.048-5.562-2.048S8.04,6.151,8.04,7.282c0,0.619,0.748,1.172,1.924,1.547v3.646
		c-1.176,0.482-1.924,1.193-1.924,1.989c0,0.797,0.748,1.508,1.924,1.99v3.927C8.788,20.757,8.04,21.31,8.04,21.928
		c0,0.701,1.064,1.688,2.418,1.688c1.352,0,1.977-0.787,3.144-0.787s1.793,0.787,3.146,0.787c1.352,0,2.417-0.988,2.417-1.688
		c0-0.618-0.747-1.172-1.924-1.548v-3.927C18.416,15.972,19.163,15.26,19.163,14.465z M13.602,6.381
		c0.925,0,1.674,0.514,1.674,1.146c0,0.374-0.266,0.704-0.672,0.913v3.468H12.6V8.439C12.194,8.23,11.928,7.9,11.928,7.526
		C11.928,6.894,12.678,6.381,13.602,6.381z M14.604,21.785H12.6v-5.526h2.004V21.785z M13.602,15.306
		c-1.105,0-2.003-0.395-2.003-0.88c0-0.486,0.896-0.881,2.003-0.881c1.107,0,2.004,0.395,2.004,0.881
		C15.605,14.912,14.708,15.306,13.602,15.306z"/>
	<path id="Sou2_7_" fill="#801927" d="M32.664,14.465c0-0.795-0.748-1.507-1.926-1.989V8.83c1.178-0.375,1.926-0.929,1.926-1.547
		c0-1.131-2.49-2.048-5.562-2.048S21.54,6.151,21.54,7.282c0,0.619,0.747,1.172,1.925,1.547v3.646
		c-1.178,0.482-1.925,1.193-1.925,1.989c0,0.797,0.747,1.508,1.925,1.99v3.927c-1.178,0.375-1.925,0.93-1.925,1.548
		c0,0.701,1.065,1.688,2.418,1.688c1.352,0,1.977-0.787,3.145-0.787c1.166,0,1.792,0.787,3.145,0.787s2.418-0.988,2.418-1.688
		c0-0.618-0.748-1.172-1.925-1.548v-3.927C31.916,15.972,32.664,15.26,32.664,14.465z M27.103,6.381
		c0.924,0,1.673,0.514,1.673,1.146c0,0.374-0.266,0.704-0.672,0.913v3.468h-2.003V8.439C25.694,8.23,25.428,7.9,25.428,7.526
		C25.428,6.894,26.178,6.381,27.103,6.381z M28.104,21.785h-2.003v-5.526h2.003V21.785z M27.103,15.306
		c-1.106,0-2.004-0.395-2.004-0.88c0-0.486,0.896-0.881,2.004-0.881c1.105,0,2.003,0.395,2.003,0.881
		C29.105,14.912,28.208,15.306,27.103,15.306z"/>
</g>
<g>
	<path d="M48.763,9.79c0.228,0.024,0.492,0,0.852-0.036c0.611-0.083,1.188-0.324,1.631-0.755c0.516-0.468,0.888-1.151,1.031-2.063
		h-0.035c-0.433,0.528-1.056,0.828-1.848,0.828c-1.391,0-2.29-1.055-2.29-2.387c0-1.475,1.067-2.771,2.662-2.771
		s2.578,1.283,2.578,3.298c0,1.703-0.575,2.902-1.343,3.646c-0.6,0.587-1.428,0.947-2.267,1.043c-0.384,0.06-0.72,0.072-0.972,0.06
		V9.79z M49.147,5.316c0,0.972,0.588,1.655,1.499,1.655c0.708,0,1.26-0.348,1.535-0.815c0.061-0.108,0.096-0.216,0.096-0.396
		c0-1.331-0.491-2.351-1.606-2.351C49.782,3.409,49.147,4.201,49.147,5.316z"/>
</g>
</svg>
