<?xml version="1.0" encoding="utf-8"?>
<!-- Generator: Adobe Illustrator 15.0.0, SVG Export Plug-In . SVG Version: 6.00 Build 0)  -->
<!DOCTYPE svg PUBLIC "-//W3C//DTD SVG 1.1//EN" "http://www.w3.org/Graphics/SVG/1.1/DTD/svg11.dtd">
<svg version="1.1" id="Manzu" xmlns="http://www.w3.org/2000/svg" xmlns:xlink="http://www.w3.org/1999/xlink" x="0px" y="0px"
	 width="54.225px" height="74.064px" viewBox="0 0 54.225 74.064" enable-background="new 0 0 54.225 74.064" xml:space="preserve">
<g id="_x31_man_1_">
	
		<rect x="0.183" y="0.183" fill="#F6F5F1" stroke="#010202" stroke-width="0.3649" stroke-miterlimit="10" width="53.857" height="73.7"/>
	<g id="_x31_man">
		<g id="MAN">
			<g>
				<path fill="#9E1915" d="M13.146,39.801c2.945,0.352,5.695,1.117,8.095,0.986c1.324-0.04,2.837-0.059,4.23-0.387
					c1.402-0.324,2.736-0.885,4.066-1.511c1.326-0.638,2.699-1.195,4.153-1.551c1.447-0.386,2.959-0.649,4.447-0.688
					c2.975-0.027,5.919,0.381,8.717,1.496L46.827,38.4c-2.932,0.525-5.764,0.714-8.543,0.976c-1.388,0.113-2.748,0.152-4.127,0.333
					c-1.374,0.198-2.79,0.376-4.233,0.526c-1.44,0.165-2.857,0.46-4.217,0.956c-1.37,0.479-2.625,1.291-4.148,1.703
					c-0.786,0.214-1.666,0.234-2.446,0.101c-0.79-0.115-1.533-0.331-2.244-0.603c-1.409-0.57-2.723-1.298-3.833-2.361L13.146,39.801
					z"/>
			</g>
			<g>
				<path fill="#9E1915" d="M25.01,37.24c0.046-0.309,0.104-0.604,0.173-0.887c0.075-0.276,0.142-0.562,0.239-0.817
					c0.209-0.141,0.365-0.334,0.549-0.5l0.531-0.518l2.633-2.558l-1.134,3.507c-0.119,0.366-0.23,0.823-0.317,1.247
					c-0.088,0.433-0.159,0.871-0.211,1.311c-0.054,0.439-0.086,0.88-0.103,1.321c0.001,0.11-0.014,0.22,0.001,0.331
					c0.042,0.055-0.012,0.11-0.069,0.165l-0.152,0.167c-0.197,0.226-0.426,0.46-0.673,0.709c-0.271-0.218-0.521-0.451-0.722-0.693
					l-0.155-0.184c-0.057-0.062-0.109-0.125-0.067-0.187c0.016-0.124,0.009-0.248,0.016-0.37c0.019-0.494,0.056-0.987,0.113-1.478
					c0.059-0.49,0.137-0.976,0.236-1.46c0.103-0.492,0.209-0.947,0.378-1.471l1.499,0.949l-0.532,0.517
					c-0.171,0.179-0.37,0.329-0.516,0.534c-0.257,0.09-0.545,0.147-0.824,0.216C25.616,37.154,25.32,37.204,25.01,37.24z"/>
			</g>
			<g>
				<path fill="#9E1915" d="M32.852,28.853c0.148,0.237,0.399,0.405,0.974,0.794c0.27,0.194,0.654,0.486,0.924,0.971
					c0.275,0.486,0.31,1.012,0.269,1.395c-0.096,0.761-0.378,1.298-0.631,1.786c-0.262,0.483-0.539,0.932-0.821,1.375
					c-1.137,1.757-2.354,3.412-3.601,5.052c0.824-1.881,1.619-3.784,2.288-5.69c0.309-0.921,0.681-2.006,0.576-2.58
					c-0.03-0.124-0.08-0.126-0.085-0.072c-0.002,0.048-0.043,0.029-0.212-0.033c-0.309-0.117-1.021-0.343-1.621-0.815L32.852,28.853
					z"/>
			</g>
			<path fill="none" stroke="#9E1915" stroke-width="2.5541" stroke-miterlimit="10" d="M21.787,44.902c0,0-0.607,8.393,0.486,9.853
				"/>
			<g>
				<path fill="#9E1915" d="M20.544,44.837c1.34-0.314,2.678-0.465,3.829-0.784c0.27-0.066,0.566-0.159,0.68-0.247
					c0.187-0.071,0.19-0.108,0.353-0.185l0.402-0.219l1.747-0.858c0.595-0.304,1.215-0.56,1.866-0.802
					c0.659-0.244,1.31-0.485,2.153-0.669c0.215-0.042,0.451-0.068,0.729-0.086c0.3-0.004,0.586-0.034,1.169,0.112l0.208,0.062
					c0.078,0.026,0.19,0.075,0.281,0.121c0.19,0.096,0.36,0.182,0.609,0.403c0.222,0.197,0.413,0.42,0.569,0.729
					c0.076,0.146,0.141,0.301,0.188,0.453c0.034,0.126,0.062,0.258,0.08,0.391c0.02,0.133,0.028,0.267,0.029,0.397l-0.002,0.114
					l-0.003,0.135l-0.017,0.325c-0.053,0.742-0.104,1.39-0.195,2.049c-0.217,1.303-0.396,2.583-0.645,3.843
					c-0.256,1.261-0.525,2.511-0.624,3.479c-0.124,2.453-0.166,5.135-0.631,7.82l-0.252,0.043c-0.461-2.562-0.91-5.118-1.127-7.729
					c-0.116-1.338,0.121-2.633,0.255-3.923l0.499-3.865c0.081-0.642,0.172-1.285,0.229-1.922c0.012-0.14,0.031-0.352,0.021-0.433
					c-0.004-0.052-0.026-0.078-0.147-0.118c-0.232-0.064-0.564-0.033-0.866,0.008c-1.246,0.201-2.485,0.623-3.713,1.022
					l-1.852,0.616c-0.309,0.098-0.628,0.199-0.954,0.271c-0.345,0.07-0.675,0.087-1.008,0.094c-1.323-0.003-2.614-0.183-3.902-0.397
					L20.544,44.837z"/>
			</g>
			<g>
				<path fill="#9E1915" d="M20.909,48.457c1.162-0.014,2.324-0.028,3.46-0.143c0.563-0.061,1.133-0.124,1.631-0.264
					c0.484-0.163,1.105-0.364,1.646-0.527c1.126-0.31,2.212-0.815,3.38-0.948c1.166-0.107,2.371-0.173,3.615,0.289l-0.002,0.184
					c-1.073,0.596-2.145,1.039-3.258,1.348c-1.107,0.314-2.292,0.288-3.429,0.488L26.21,49.15c-0.644,0.07-1.238,0.053-1.834,0.004
					c-1.184-0.103-2.34-0.269-3.485-0.516L20.909,48.457z"/>
			</g>
			<g>
				<path fill="#9E1915" d="M20.889,52.932c1.064-0.091,2.129-0.179,3.186-0.296c1.045-0.128,2.131-0.245,3.077-0.496l1.499-0.542
					c0.509-0.179,1.005-0.422,1.526-0.573c0.521-0.152,1.073-0.172,1.637-0.143c0.559,0.044,1.153,0.121,1.722,0.457l-0.002,0.183
					c-0.98,0.668-1.907,1.146-2.948,1.342c-0.52,0.08-1.062,0.082-1.589,0.155l-1.605,0.231c-1.151,0.151-2.208,0.111-3.291,0.077
					c-1.075-0.043-2.146-0.107-3.212-0.215L20.889,52.932z"/>
			</g>
			<g>
				<path fill="#9E1915" d="M16.557,51.431c0.72,1.112,1.2,2.256,1.617,3.405c0.409,1.146,0.729,2.318,1.011,3.433
					c0.072,0.297,0.125,0.496,0.221,0.811l0.228,0.899c0.135,0.601,0.25,1.202,0.33,1.814c0.158,1.225,0.234,2.47,0.061,3.786
					c-0.849-1.021-1.452-2.108-1.985-3.215c-0.267-0.553-0.499-1.114-0.721-1.677l-0.314-0.841c-0.094-0.264-0.213-0.648-0.291-0.94
					c-0.312-1.243-0.458-2.458-0.504-3.698C16.176,53.967,16.234,52.717,16.557,51.431z"/>
			</g>
			<g>
				<path fill="#9E1915" d="M11.083,57.49c0.908,0.682,1.951,1.161,2.999,1.357c0.524,0.088,1.056,0.108,1.548,0.03
					c0.483-0.094,1.056-0.259,1.59-0.407c2.179-0.591,4.38-1.194,6.609-1.676c4.46-0.975,9.009-1.725,13.763-1.483
					c1.189,0.095,2.394,0.259,3.607,0.623c1.194,0.37,2.487,0.926,3.467,2.073c0.997,1.149,1.298,2.777,1.059,4.131
					c-0.111,0.715-0.435,1.486-0.973,2.07c-0.539,0.587-1.221,0.94-1.865,1.153c-1.308,0.408-2.542,0.403-3.727,0.307
					c-1.184-0.113-2.326-0.328-3.448-0.587c-1.117-0.279-2.218-0.584-3.304-0.926c-1.091-0.319-2.152-0.726-3.265-0.95
					c1.146-0.043,2.287,0.133,3.413,0.258c1.127,0.134,2.244,0.288,3.36,0.38c1.111,0.108,2.221,0.183,3.299,0.151
					c1.068-0.036,2.144-0.139,2.977-0.501c0.848-0.379,1.223-0.894,1.316-1.687c0.086-0.872-0.136-1.666-0.67-2.216
					c-0.526-0.568-1.38-1-2.342-1.263c-0.96-0.273-2.016-0.401-3.082-0.473c-2.142-0.167-4.357-0.042-6.569,0.139
					c-2.22,0.16-4.438,0.473-6.668,0.753l-6.718,0.945c-0.577,0.064-1.114,0.142-1.757,0.165c-0.637-0.002-1.246-0.118-1.812-0.334
					C12.762,59.099,11.812,58.367,11.083,57.49z"/>
			</g>
			<g>
				<path fill="#9E1915" d="M26.859,44.111c-0.336,0.746-0.322,1.555-0.367,2.348c-0.037,0.794-0.027,1.594-0.033,2.39
					c0.018,1.596,0.02,3.192,0.062,4.787c0.012,1.595,0.059,3.188,0.106,4.777l0.114,2.414l0.021,1.225l0.001,0.15l0.001,0.07
					c0,0.009,0.001,0.023-0.002,0.021l-0.014-0.024c-0.081-0.019,0.158,0.002-0.228-0.09c-0.171,0.096-0.106,0.101-0.141,0.158
					c-0.001,0.021,0.001,0.019,0.002,0.017c0.016-0.078,0.02-0.191,0.028-0.291l0.057-0.619l0.217,0.586
					c0.032,0.104,0.062,0.189,0.089,0.314c0.001,0.01,0.004,0.021,0.001,0.055c-0.035,0.06,0.031,0.07-0.144,0.165
					c-0.389-0.093-0.15-0.076-0.233-0.097l-0.021-0.042l-0.021-0.052l-0.032-0.078l-0.059-0.147
					c-0.151-0.389-0.272-0.779-0.407-1.169c-0.236-0.78-0.482-1.564-0.645-2.39c-0.346-1.63-0.473-3.278-0.517-4.924
					c-0.006-1.646,0.07-3.295,0.348-4.933c0.129-0.817,0.319-1.632,0.57-2.433C25.902,45.528,26.171,44.648,26.859,44.111z"/>
			</g>
			<g>
				<path fill="#9E1915" d="M21.633,62.278c0.14,0.205,0.255,0.414,0.375,0.623l-0.489-0.254c1.436-0.903,2.948-1.661,4.483-2.432
					c0.755-0.42,1.562-0.702,2.395-0.831c0.83-0.145,1.667-0.237,2.599-0.155l0.067,0.17c-0.626,0.7-1.365,1.177-2.122,1.575
					c-0.753,0.413-1.538,0.661-2.354,0.824c-1.609,0.39-3.169,0.979-4.776,1.48l-0.561,0.175l0.07-0.43
					c0.04-0.236,0.074-0.474,0.132-0.715L21.633,62.278z"/>
			</g>
		</g>
		<g>
			<path fill="#010202" d="M12.021,17.879c2.86,0.208,5.812,0.216,8.472-0.516c1.269-0.361,2.587-1.026,3.921-1.598
				c1.341-0.576,2.71-1.134,4.116-1.625c2.791-0.976,5.762-1.944,8.858-1.783c3.058,0.135,6.151,0.979,8.593,2.791l-0.104,0.272
				c-2.972-0.277-5.704-0.383-8.438-0.145c-2.707,0.259-5.482,0.405-8.235,1.101c-1.371,0.343-2.733,0.758-4.104,1.205
				c-1.389,0.415-2.734,0.936-4.301,1.208c-1.521,0.223-3.016,0.198-4.485,0.08c-1.472-0.123-2.918-0.355-4.342-0.706L12.021,17.879
				z"/>
		</g>
	</g>
</g>
<g>
	<path d="M50.192,2.97h-0.023l-1.355,0.732l-0.204-0.804l1.703-0.912h0.899v7.796h-1.02V2.97z"/>
</g>
</svg>
