<?xml version="1.0" encoding="utf-8"?>
<!-- Generator: Adobe Illustrator 15.0.0, SVG Export Plug-In . SVG Version: 6.00 Build 0)  -->
<!DOCTYPE svg PUBLIC "-//W3C//DTD SVG 1.1//EN" "http://www.w3.org/Graphics/SVG/1.1/DTD/svg11.dtd">
<svg version="1.1" id="Manzu" xmlns="http://www.w3.org/2000/svg" xmlns:xlink="http://www.w3.org/1999/xlink" x="0px" y="0px"
	 width="54.223px" height="74.064px" viewBox="0 0 54.223 74.064" enable-background="new 0 0 54.223 74.064" xml:space="preserve">
<g id="_x32_man_1_">
	
		<rect x="0.183" y="0.183" fill="#F6F5F1" stroke="#010202" stroke-width="0.3649" stroke-miterlimit="10" width="53.858" height="73.7"/>
	<g id="_x32_man">
		<g id="MAN_1_">
			<g>
				<path fill="#9E1915" d="M13.211,39.835c2.946,0.352,5.696,1.117,8.095,0.985c1.323-0.04,2.837-0.058,4.23-0.386
					c1.402-0.325,2.737-0.885,4.066-1.511c1.327-0.638,2.699-1.195,4.153-1.551c1.447-0.387,2.959-0.649,4.447-0.688
					c2.976-0.028,5.919,0.381,8.717,1.496l-0.029,0.254c-2.932,0.525-5.764,0.714-8.543,0.975c-1.388,0.114-2.748,0.153-4.127,0.333
					c-1.374,0.198-2.79,0.376-4.233,0.526c-1.44,0.165-2.857,0.46-4.216,0.956c-1.37,0.479-2.625,1.292-4.148,1.704
					c-0.786,0.214-1.666,0.234-2.446,0.1c-0.79-0.114-1.533-0.331-2.244-0.602c-1.409-0.57-2.723-1.298-3.833-2.361L13.211,39.835z"
					/>
			</g>
			<g>
				<path fill="#9E1915" d="M25.074,37.274c0.045-0.309,0.103-0.604,0.172-0.887c0.075-0.277,0.143-0.563,0.239-0.817
					c0.208-0.14,0.364-0.334,0.549-0.5l0.531-0.517l2.633-2.557l-1.134,3.506c-0.119,0.366-0.23,0.823-0.316,1.247
					c-0.088,0.433-0.16,0.871-0.211,1.31c-0.054,0.439-0.086,0.881-0.103,1.321c0.001,0.109-0.015,0.221,0,0.331
					c0.042,0.056-0.012,0.109-0.068,0.165l-0.153,0.167c-0.198,0.226-0.427,0.46-0.673,0.709c-0.271-0.218-0.521-0.451-0.722-0.693
					l-0.155-0.184c-0.057-0.062-0.109-0.125-0.067-0.187c0.017-0.124,0.009-0.247,0.016-0.371c0.019-0.494,0.056-0.986,0.114-1.476
					c0.059-0.49,0.137-0.976,0.235-1.46c0.103-0.492,0.209-0.947,0.378-1.471l1.499,0.948l-0.532,0.518
					c-0.171,0.179-0.37,0.329-0.516,0.533c-0.257,0.09-0.545,0.148-0.824,0.216C25.681,37.188,25.384,37.238,25.074,37.274z"/>
			</g>
			<g>
				<path fill="#9E1915" d="M32.917,28.887c0.148,0.237,0.399,0.406,0.974,0.794c0.27,0.194,0.654,0.486,0.924,0.971
					c0.275,0.487,0.31,1.013,0.269,1.396c-0.096,0.761-0.378,1.297-0.632,1.786c-0.262,0.483-0.538,0.932-0.821,1.375
					c-1.136,1.757-2.354,3.412-3.6,5.052c0.824-1.881,1.619-3.784,2.287-5.691c0.309-0.92,0.68-2.004,0.576-2.58
					c-0.031-0.125-0.08-0.126-0.086-0.071c-0.002,0.048-0.043,0.028-0.212-0.033c-0.309-0.116-1.021-0.343-1.621-0.816
					L32.917,28.887z"/>
			</g>
			<path fill="none" stroke="#9E1915" stroke-width="2.5541" stroke-miterlimit="10" d="M21.852,44.936c0,0-0.607,8.393,0.486,9.853
				"/>
			<g>
				<path fill="#9E1915" d="M20.608,44.871c1.341-0.314,2.678-0.466,3.829-0.784c0.27-0.066,0.566-0.159,0.68-0.247
					c0.187-0.071,0.19-0.109,0.353-0.186l0.402-0.218l1.747-0.859c0.595-0.304,1.215-0.56,1.866-0.803
					c0.66-0.244,1.31-0.484,2.153-0.668c0.216-0.042,0.452-0.068,0.729-0.086c0.3-0.004,0.586-0.035,1.169,0.112l0.208,0.062
					c0.078,0.027,0.19,0.077,0.282,0.121c0.19,0.097,0.36,0.183,0.608,0.404c0.223,0.197,0.413,0.42,0.57,0.728
					c0.076,0.147,0.141,0.302,0.188,0.454c0.035,0.126,0.062,0.259,0.08,0.392c0.02,0.133,0.028,0.267,0.029,0.397L35.5,43.804
					l-0.003,0.135l-0.017,0.325c-0.053,0.742-0.104,1.389-0.195,2.049c-0.217,1.302-0.396,2.583-0.645,3.842
					c-0.256,1.262-0.524,2.512-0.624,3.48c-0.124,2.453-0.166,5.135-0.631,7.82l-0.252,0.043c-0.461-2.562-0.91-5.118-1.127-7.729
					c-0.116-1.338,0.121-2.633,0.255-3.923l0.499-3.865c0.081-0.642,0.172-1.286,0.229-1.922c0.011-0.139,0.03-0.352,0.021-0.433
					c-0.004-0.052-0.026-0.078-0.147-0.118c-0.232-0.065-0.564-0.033-0.866,0.008c-1.246,0.201-2.485,0.623-3.713,1.022
					l-1.852,0.615c-0.309,0.099-0.628,0.2-0.954,0.272c-0.345,0.07-0.675,0.087-1.008,0.094c-1.323-0.003-2.614-0.183-3.902-0.397
					L20.608,44.871z"/>
			</g>
			<g>
				<path fill="#9E1915" d="M20.974,48.491c1.162-0.014,2.324-0.028,3.46-0.143c0.563-0.061,1.133-0.124,1.631-0.264
					c0.483-0.163,1.104-0.364,1.646-0.527c1.126-0.309,2.212-0.815,3.38-0.949c1.166-0.106,2.37-0.171,3.615,0.29l-0.002,0.184
					c-1.073,0.597-2.145,1.039-3.258,1.349c-1.107,0.313-2.292,0.287-3.429,0.487l-1.743,0.268
					c-0.644,0.069-1.238,0.051-1.834,0.004c-1.184-0.103-2.34-0.269-3.485-0.516L20.974,48.491z"/>
			</g>
			<g>
				<path fill="#9E1915" d="M20.954,52.966c1.064-0.091,2.129-0.179,3.186-0.296c1.045-0.128,2.131-0.245,3.077-0.496l1.499-0.542
					c0.509-0.179,1.005-0.422,1.526-0.573c0.521-0.153,1.073-0.172,1.637-0.143c0.559,0.044,1.154,0.121,1.722,0.457l-0.002,0.183
					c-0.98,0.668-1.907,1.146-2.948,1.342c-0.52,0.08-1.062,0.082-1.589,0.155l-1.605,0.231c-1.152,0.151-2.208,0.111-3.291,0.076
					c-1.076-0.043-2.146-0.106-3.213-0.214L20.954,52.966z"/>
			</g>
			<g>
				<path fill="#9E1915" d="M16.622,51.465c0.72,1.112,1.201,2.256,1.618,3.405c0.408,1.146,0.728,2.318,1.01,3.433
					c0.073,0.297,0.125,0.496,0.221,0.81l0.229,0.899c0.134,0.6,0.25,1.203,0.328,1.815c0.158,1.224,0.235,2.47,0.062,3.784
					c-0.848-1.02-1.452-2.107-1.986-3.214c-0.267-0.553-0.499-1.114-0.721-1.677l-0.313-0.841c-0.094-0.263-0.213-0.648-0.291-0.94
					c-0.312-1.244-0.458-2.458-0.504-3.698C16.241,54.001,16.299,52.751,16.622,51.465z"/>
			</g>
			<g>
				<path fill="#9E1915" d="M11.148,57.524c0.908,0.682,1.951,1.161,2.999,1.357c0.524,0.088,1.056,0.107,1.548,0.03
					c0.483-0.096,1.056-0.26,1.59-0.407c2.179-0.591,4.38-1.194,6.609-1.676c4.46-0.975,9.009-1.725,13.764-1.483
					c1.188,0.095,2.393,0.259,3.607,0.623c1.193,0.37,2.487,0.926,3.467,2.073c0.996,1.149,1.298,2.776,1.059,4.131
					c-0.111,0.715-0.435,1.486-0.973,2.07c-0.539,0.588-1.221,0.941-1.864,1.153c-1.308,0.408-2.542,0.403-3.728,0.307
					c-1.184-0.113-2.326-0.328-3.448-0.588c-1.117-0.278-2.218-0.584-3.304-0.925c-1.091-0.319-2.152-0.726-3.265-0.951
					c1.146-0.043,2.287,0.134,3.413,0.259c1.127,0.134,2.245,0.288,3.36,0.38c1.111,0.107,2.221,0.183,3.3,0.15
					c1.067-0.035,2.143-0.138,2.976-0.501c0.848-0.378,1.223-0.893,1.317-1.686c0.085-0.872-0.137-1.665-0.671-2.216
					c-0.526-0.569-1.38-1-2.342-1.264c-0.96-0.272-2.016-0.4-3.082-0.472c-2.142-0.167-4.357-0.042-6.568,0.138
					c-2.22,0.161-4.438,0.474-6.669,0.753l-6.718,0.945c-0.576,0.065-1.114,0.142-1.757,0.166c-0.637-0.002-1.246-0.117-1.812-0.334
					C12.827,59.133,11.877,58.401,11.148,57.524z"/>
			</g>
			<g>
				<path fill="#9E1915" d="M26.923,44.146c-0.336,0.746-0.322,1.555-0.366,2.348c-0.037,0.794-0.027,1.594-0.033,2.391
					c0.018,1.595,0.021,3.191,0.062,4.786c0.012,1.595,0.058,3.188,0.106,4.776l0.114,2.414l0.021,1.226l0.001,0.149l0.001,0.071
					c0,0.009,0.001,0.023-0.002,0.021l-0.014-0.024c-0.081-0.017,0.158-0.001-0.231-0.089c-0.165,0.095-0.104,0.102-0.136,0.157
					c-0.002,0.021,0.001,0.019,0.001,0.017c0.017-0.078,0.02-0.192,0.028-0.291l0.058-0.619l0.216,0.586
					c0.033,0.104,0.062,0.189,0.09,0.314c0.001,0.011,0.003,0.021,0,0.055c-0.033,0.057,0.028,0.07-0.139,0.164
					c-0.395-0.087-0.155-0.076-0.237-0.095l-0.021-0.042l-0.021-0.052l-0.032-0.078l-0.059-0.147
					c-0.151-0.389-0.272-0.78-0.406-1.169c-0.236-0.78-0.483-1.564-0.645-2.39c-0.346-1.63-0.473-3.278-0.518-4.924
					c-0.006-1.647,0.07-3.297,0.349-4.933c0.129-0.817,0.319-1.632,0.569-2.433C25.967,45.562,26.236,44.683,26.923,44.146z"/>
			</g>
			<g>
				<path fill="#9E1915" d="M21.698,62.312c0.139,0.205,0.254,0.414,0.375,0.623l-0.49-0.254c1.436-0.904,2.949-1.661,4.483-2.432
					c0.757-0.42,1.562-0.702,2.396-0.831c0.83-0.145,1.667-0.237,2.599-0.155l0.067,0.17c-0.626,0.7-1.365,1.176-2.122,1.575
					c-0.753,0.413-1.538,0.661-2.354,0.824c-1.609,0.39-3.169,0.979-4.776,1.48l-0.561,0.174l0.07-0.429
					c0.04-0.237,0.074-0.474,0.132-0.715L21.698,62.312z"/>
			</g>
		</g>
		<g>
			<g>
				<path fill="#010202" d="M12.127,23.794c2.86,0.208,5.812,0.216,8.472-0.516c1.269-0.361,2.588-1.026,3.921-1.598
					c1.341-0.576,2.71-1.134,4.115-1.625c2.791-0.976,5.762-1.944,8.858-1.782c3.059,0.133,6.151,0.979,8.593,2.79l-0.105,0.272
					c-2.971-0.277-5.703-0.383-8.438-0.145c-2.707,0.259-5.482,0.405-8.235,1.101c-1.371,0.343-2.733,0.759-4.104,1.205
					c-1.389,0.415-2.734,0.936-4.301,1.208c-1.521,0.223-3.016,0.198-4.485,0.08c-1.472-0.122-2.918-0.355-4.342-0.706
					L12.127,23.794z"/>
			</g>
			<g>
				<path fill="#010202" d="M18.314,13.948c1.485-0.655,2.989-1.245,4.483-1.867c1.5-0.604,3.004-1.194,4.518-1.752
					c0.756-0.281,1.512-0.566,2.256-0.887c0.746-0.315,1.49-0.64,2.265-0.857c1.55-0.434,3.169-0.625,4.847-0.622L36.14,8.599
					c0.221-0.467,0.468-0.93,0.791-1.384l0.29,0.036c0.202,0.519,0.328,1.028,0.428,1.535L37.7,9.043l-0.594,0.379
					c-1.413,0.903-2.883,1.609-4.423,2.077c-0.771,0.23-1.571,0.356-2.371,0.49c-0.8,0.131-1.59,0.296-2.379,0.464
					c-1.577,0.341-3.163,0.648-4.752,0.944c-1.595,0.277-3.181,0.586-4.786,0.83L18.314,13.948z"/>
			</g>
		</g>
	</g>
</g>
<g>
	<path d="M47.986,10.865v-0.647l0.827-0.804c1.991-1.895,2.902-2.902,2.902-4.078c0-0.792-0.372-1.523-1.535-1.523
		c-0.707,0-1.295,0.36-1.655,0.66l-0.336-0.744c0.528-0.443,1.308-0.792,2.195-0.792c1.679,0,2.387,1.151,2.387,2.267
		c0,1.439-1.044,2.603-2.687,4.186l-0.611,0.576V9.99h3.489v0.875H47.986z"/>
</g>
</svg>
