<?xml version="1.0" encoding="utf-8"?>
<!-- Generator: Adobe Illustrator 15.0.0, SVG Export Plug-In . SVG Version: 6.00 Build 0)  -->
<!DOCTYPE svg PUBLIC "-//W3C//DTD SVG 1.1//EN" "http://www.w3.org/Graphics/SVG/1.1/DTD/svg11.dtd">
<svg version="1.1" id="Manzu" xmlns="http://www.w3.org/2000/svg" xmlns:xlink="http://www.w3.org/1999/xlink" x="0px" y="0px"
	 width="54.225px" height="74.064px" viewBox="0 0 54.225 74.064" enable-background="new 0 0 54.225 74.064" xml:space="preserve">
<g id="_x33_man_1_">
	
		<rect x="0.183" y="0.183" fill="#F6F5F1" stroke="#010202" stroke-width="0.3649" stroke-miterlimit="10" width="53.857" height="73.7"/>
	<g id="_x33_man">
		<g id="MAN_2_">
			<g>
				<path fill="#9E1915" d="M13.225,39.813c2.945,0.354,5.695,1.117,8.095,0.986c1.324-0.04,2.837-0.058,4.229-0.386
					c1.403-0.325,2.738-0.886,4.067-1.512c1.326-0.638,2.699-1.194,4.153-1.551c1.445-0.386,2.959-0.648,4.445-0.688
					c2.977-0.028,5.921,0.381,8.719,1.496l-0.029,0.254c-2.932,0.524-5.764,0.714-8.543,0.974c-1.389,0.115-2.749,0.154-4.128,0.333
					c-1.374,0.199-2.79,0.376-4.233,0.527c-1.44,0.165-2.857,0.46-4.217,0.956c-1.37,0.478-2.625,1.292-4.149,1.703
					c-0.785,0.215-1.664,0.234-2.444,0.102c-0.791-0.115-1.534-0.331-2.244-0.603c-1.409-0.569-2.723-1.298-3.832-2.361
					L13.225,39.813z"/>
			</g>
			<g>
				<path fill="#9E1915" d="M25.088,37.252c0.045-0.31,0.104-0.604,0.174-0.888c0.074-0.276,0.143-0.562,0.239-0.816
					c0.208-0.14,0.364-0.335,0.548-0.5l0.532-0.518l2.633-2.557L28.08,35.48c-0.118,0.366-0.23,0.823-0.316,1.247
					c-0.09,0.434-0.159,0.871-0.213,1.311c-0.053,0.438-0.086,0.881-0.102,1.32c0.001,0.11-0.015,0.221,0.001,0.331
					c0.041,0.057-0.013,0.11-0.069,0.165l-0.152,0.167c-0.197,0.227-0.427,0.46-0.673,0.709c-0.271-0.218-0.521-0.451-0.723-0.692
					l-0.154-0.185c-0.058-0.062-0.109-0.124-0.067-0.186c0.017-0.124,0.009-0.247,0.016-0.371c0.019-0.494,0.056-0.987,0.113-1.477
					c0.059-0.489,0.137-0.976,0.235-1.46c0.104-0.491,0.21-0.945,0.379-1.471l1.499,0.949l-0.532,0.517
					c-0.171,0.18-0.37,0.329-0.517,0.534c-0.258,0.09-0.546,0.148-0.824,0.216C25.694,37.167,25.397,37.216,25.088,37.252z"/>
			</g>
			<g>
				<path fill="#9E1915" d="M32.931,28.865c0.148,0.237,0.398,0.406,0.974,0.795c0.269,0.193,0.653,0.485,0.925,0.971
					c0.274,0.487,0.31,1.012,0.269,1.395c-0.096,0.762-0.379,1.298-0.633,1.786c-0.262,0.484-0.539,0.933-0.82,1.375
					c-1.138,1.757-2.354,3.412-3.601,5.052c0.823-1.881,1.619-3.783,2.288-5.69c0.309-0.92,0.681-2.005,0.576-2.58
					c-0.031-0.124-0.08-0.126-0.086-0.072c-0.002,0.048-0.043,0.029-0.213-0.033c-0.308-0.116-1.021-0.344-1.62-0.816L32.931,28.865
					z"/>
			</g>
			<path fill="none" stroke="#9E1915" stroke-width="2.5541" stroke-miterlimit="10" d="M21.865,44.914c0,0-0.608,8.392,0.486,9.852
				"/>
			<g>
				<path fill="#9E1915" d="M20.622,44.849c1.341-0.313,2.678-0.464,3.828-0.784c0.271-0.064,0.567-0.159,0.679-0.247
					c0.188-0.07,0.191-0.108,0.354-0.185l0.401-0.218l1.746-0.86c0.597-0.303,1.217-0.559,1.867-0.802
					c0.659-0.244,1.31-0.485,2.153-0.668c0.215-0.042,0.451-0.069,0.728-0.086c0.301-0.004,0.586-0.035,1.169,0.111l0.208,0.062
					c0.079,0.027,0.19,0.077,0.282,0.121c0.19,0.096,0.36,0.182,0.608,0.403c0.223,0.198,0.413,0.421,0.569,0.729
					c0.076,0.146,0.142,0.301,0.189,0.454c0.034,0.126,0.062,0.257,0.08,0.39c0.018,0.133,0.027,0.268,0.029,0.398l-0.002,0.112
					l-0.004,0.136l-0.017,0.324c-0.053,0.742-0.104,1.39-0.196,2.051c-0.216,1.302-0.396,2.583-0.644,3.842
					c-0.257,1.261-0.524,2.509-0.624,3.479c-0.124,2.453-0.166,5.136-0.632,7.82l-0.252,0.043c-0.461-2.561-0.91-5.118-1.127-7.728
					c-0.115-1.338,0.12-2.634,0.255-3.923l0.498-3.865c0.081-0.643,0.173-1.286,0.229-1.922c0.013-0.141,0.031-0.353,0.021-0.434
					c-0.005-0.052-0.025-0.078-0.147-0.118c-0.232-0.064-0.564-0.032-0.867,0.009c-1.244,0.2-2.483,0.623-3.713,1.021l-1.851,0.616
					c-0.31,0.098-0.628,0.2-0.954,0.271c-0.346,0.07-0.675,0.087-1.008,0.095c-1.323-0.003-2.614-0.184-3.902-0.398L20.622,44.849z"
					/>
			</g>
			<g>
				<path fill="#9E1915" d="M20.987,48.469c1.161-0.013,2.324-0.028,3.46-0.142c0.562-0.062,1.133-0.124,1.631-0.265
					c0.484-0.163,1.105-0.364,1.646-0.526c1.126-0.311,2.212-0.816,3.381-0.949c1.165-0.107,2.37-0.171,3.615,0.29l-0.003,0.183
					c-1.071,0.597-2.144,1.039-3.257,1.35c-1.107,0.312-2.293,0.286-3.43,0.486l-1.743,0.269c-0.644,0.068-1.238,0.051-1.834,0.004
					c-1.184-0.104-2.34-0.27-3.486-0.517L20.987,48.469z"/>
			</g>
			<g>
				<path fill="#9E1915" d="M20.968,52.944c1.065-0.091,2.13-0.179,3.187-0.296c1.046-0.128,2.132-0.245,3.077-0.496l1.498-0.542
					c0.51-0.179,1.006-0.422,1.526-0.572c0.521-0.153,1.074-0.173,1.638-0.144c0.56,0.044,1.153,0.121,1.722,0.457l-0.002,0.184
					c-0.98,0.668-1.906,1.146-2.948,1.342c-0.52,0.08-1.062,0.081-1.589,0.154l-1.605,0.231c-1.151,0.152-2.207,0.112-3.29,0.077
					c-1.075-0.043-2.146-0.107-3.214-0.214L20.968,52.944z"/>
			</g>
			<g>
				<path fill="#9E1915" d="M16.635,51.443c0.722,1.111,1.201,2.255,1.618,3.405c0.409,1.146,0.729,2.319,1.012,3.432
					c0.072,0.298,0.125,0.495,0.221,0.812l0.228,0.9c0.135,0.6,0.25,1.201,0.329,1.813c0.158,1.224,0.234,2.47,0.062,3.785
					c-0.849-1.021-1.452-2.108-1.985-3.214c-0.267-0.554-0.499-1.115-0.721-1.678l-0.313-0.841
					c-0.094-0.262-0.214-0.646-0.291-0.938c-0.312-1.244-0.458-2.458-0.505-3.7C16.255,53.979,16.312,52.729,16.635,51.443z"/>
			</g>
			<g>
				<path fill="#9E1915" d="M11.162,57.502c0.907,0.681,1.951,1.161,2.998,1.356c0.524,0.088,1.056,0.109,1.549,0.03
					c0.483-0.095,1.055-0.259,1.588-0.407c2.181-0.591,4.382-1.193,6.611-1.676c4.46-0.974,9.009-1.724,13.763-1.483
					c1.189,0.096,2.394,0.26,3.607,0.623c1.193,0.369,2.487,0.926,3.468,2.073c0.996,1.15,1.298,2.777,1.058,4.131
					c-0.11,0.715-0.435,1.486-0.972,2.07c-0.539,0.588-1.222,0.942-1.866,1.154c-1.307,0.407-2.541,0.403-3.726,0.307
					c-1.185-0.113-2.326-0.327-3.448-0.587c-1.118-0.279-2.218-0.584-3.304-0.925c-1.091-0.32-2.152-0.727-3.265-0.951
					c1.146-0.043,2.286,0.133,3.413,0.258c1.128,0.134,2.244,0.288,3.359,0.38c1.111,0.108,2.221,0.184,3.3,0.151
					c1.068-0.036,2.144-0.138,2.977-0.501c0.849-0.378,1.224-0.895,1.316-1.687c0.085-0.872-0.137-1.666-0.671-2.216
					c-0.525-0.567-1.38-1-2.342-1.263c-0.96-0.273-2.016-0.401-3.082-0.472c-2.142-0.167-4.357-0.042-6.569,0.138
					c-2.219,0.161-4.437,0.473-6.668,0.753l-6.718,0.946c-0.577,0.063-1.114,0.141-1.758,0.165
					c-0.637-0.002-1.245-0.117-1.811-0.334C12.841,59.111,11.891,58.379,11.162,57.502z"/>
			</g>
			<g>
				<path fill="#9E1915" d="M26.938,44.124c-0.336,0.745-0.322,1.554-0.367,2.346c-0.036,0.794-0.027,1.594-0.032,2.391
					c0.018,1.597,0.02,3.192,0.062,4.787c0.012,1.596,0.058,3.189,0.105,4.777l0.114,2.414l0.021,1.224l0.001,0.151l0.002,0.07
					c0,0.009,0.001,0.022-0.003,0.021l-0.015-0.026c-0.062,0.023,0.14-0.072-0.275-0.065c-0.09,0.065-0.078,0.105-0.091,0.138
					c-0.001,0.021,0.001,0.018,0.002,0.015c0.016-0.077,0.02-0.191,0.028-0.29l0.057-0.619l0.218,0.586
					c0.031,0.103,0.062,0.189,0.09,0.312c0.001,0.011,0.004,0.021,0.001,0.055c-0.014,0.033-0.002,0.078-0.095,0.146
					c-0.419,0.006-0.218-0.094-0.281-0.073l-0.021-0.043l-0.021-0.053l-0.032-0.078l-0.059-0.146c-0.15-0.39-0.272-0.78-0.406-1.169
					c-0.235-0.78-0.482-1.565-0.645-2.391c-0.347-1.63-0.474-3.278-0.518-4.924c-0.007-1.646,0.069-3.295,0.348-4.932
					c0.13-0.818,0.319-1.633,0.57-2.435C25.98,45.541,26.25,44.661,26.938,44.124z"/>
			</g>
			<g>
				<path fill="#9E1915" d="M21.711,62.29c0.14,0.205,0.255,0.415,0.375,0.623l-0.488-0.254c1.436-0.904,2.948-1.661,4.483-2.433
					c0.756-0.42,1.562-0.702,2.396-0.831c0.829-0.144,1.667-0.236,2.6-0.154l0.066,0.17c-0.625,0.699-1.365,1.176-2.121,1.574
					c-0.754,0.413-1.538,0.661-2.354,0.824c-1.609,0.391-3.169,0.98-4.776,1.481l-0.561,0.174l0.07-0.428
					c0.039-0.237,0.073-0.475,0.131-0.716L21.711,62.29z"/>
			</g>
		</g>
		<g>
			<g>
				<path fill="#010202" d="M12.426,24.622c2.861,0.208,5.812,0.216,8.474-0.516c1.268-0.361,2.588-1.026,3.921-1.598
					c1.342-0.575,2.71-1.134,4.115-1.625c2.792-0.976,5.763-1.944,8.857-1.782c3.06,0.133,6.152,0.979,8.595,2.79l-0.105,0.272
					c-2.971-0.277-5.703-0.384-8.438-0.145c-2.707,0.258-5.482,0.405-8.235,1.101c-1.371,0.343-2.734,0.759-4.104,1.206
					c-1.388,0.415-2.733,0.936-4.3,1.208c-1.521,0.224-3.016,0.199-4.485,0.079c-1.472-0.122-2.919-0.354-4.343-0.705L12.426,24.622
					z"/>
			</g>
			<g>
				<path fill="#010202" d="M19.966,11.007c1.485-0.656,2.989-1.246,4.484-1.868c1.5-0.603,3.003-1.194,4.517-1.752
					c0.757-0.281,1.513-0.566,2.257-0.886c0.746-0.316,1.489-0.641,2.265-0.858c1.55-0.433,3.169-0.625,4.846-0.622l-0.542,0.636
					c0.222-0.466,0.47-0.93,0.792-1.383l0.289,0.036c0.202,0.52,0.329,1.029,0.43,1.535l0.05,0.257l-0.594,0.379
					c-1.411,0.903-2.883,1.61-4.423,2.077c-0.771,0.231-1.57,0.357-2.37,0.491c-0.801,0.13-1.591,0.295-2.379,0.463
					c-1.577,0.341-3.163,0.649-4.753,0.945c-1.595,0.276-3.181,0.586-4.785,0.83L19.966,11.007z"/>
			</g>
			<g>
				<path fill="#010202" d="M17.808,16.726c0.912-0.105,1.796-0.131,2.668-0.199c0.433-0.022,0.86-0.045,1.275-0.093
					c0.406-0.053,0.841-0.084,1.068-0.196c1.472-0.54,3.123-1.266,4.719-1.866c1.612-0.623,3.248-1.201,4.905-1.73
					c1.662-0.541,3.341-0.962,5.065-1.493c-1.171,1.448-2.735,2.412-4.252,3.329c-1.544,0.888-3.147,1.644-4.805,2.277
					c-1.681,0.623-3.304,1.178-5.242,1.446c-0.632,0.075-1.084-0.023-1.549-0.104c-0.46-0.095-0.902-0.204-1.339-0.332
					C19.458,17.482,18.613,17.173,17.808,16.726z"/>
			</g>
		</g>
	</g>
</g>
<g>
	<path d="M48.571,9c0.3,0.18,0.983,0.479,1.727,0.479c1.344,0,1.775-0.852,1.763-1.511c-0.012-1.091-0.995-1.559-2.015-1.559h-0.588
		V5.618h0.588c0.768,0,1.739-0.396,1.739-1.319c0-0.624-0.396-1.175-1.367-1.175c-0.624,0-1.224,0.276-1.56,0.516l-0.287-0.768
		c0.419-0.3,1.211-0.6,2.051-0.6c1.535,0,2.23,0.912,2.23,1.859c0,0.816-0.492,1.5-1.439,1.847v0.024
		c0.96,0.18,1.728,0.899,1.739,1.991c0,1.247-0.983,2.338-2.843,2.338c-0.875,0-1.643-0.276-2.026-0.528L48.571,9z"/>
</g>
</svg>
