<?xml version="1.0" encoding="utf-8"?>
<!-- Generator: Adobe Illustrator 15.0.0, SVG Export Plug-In . SVG Version: 6.00 Build 0)  -->
<!DOCTYPE svg PUBLIC "-//W3C//DTD SVG 1.1//EN" "http://www.w3.org/Graphics/SVG/1.1/DTD/svg11.dtd">
<svg version="1.1" id="Manzu" xmlns="http://www.w3.org/2000/svg" xmlns:xlink="http://www.w3.org/1999/xlink" x="0px" y="0px"
	 width="54.225px" height="74.064px" viewBox="0 0 54.225 74.064" enable-background="new 0 0 54.225 74.064" xml:space="preserve">
<g id="_x34_man_1_">
	
		<rect x="0.183" y="0.183" fill="#F6F5F1" stroke="#010202" stroke-width="0.3649" stroke-miterlimit="10" width="53.857" height="73.7"/>
	<g id="_x34_man">
		<g id="MAN_3_">
			<g>
				<path fill="#9E1915" d="M13.259,39.778c2.946,0.353,5.696,1.117,8.097,0.986c1.323-0.04,2.837-0.058,4.229-0.386
					c1.403-0.325,2.738-0.885,4.067-1.511c1.326-0.639,2.699-1.195,4.153-1.552c1.445-0.386,2.959-0.648,4.445-0.688
					c2.977-0.028,5.92,0.381,8.718,1.496l-0.028,0.254c-2.933,0.524-5.765,0.714-8.543,0.974c-1.39,0.115-2.749,0.154-4.128,0.333
					c-1.374,0.199-2.79,0.376-4.233,0.527c-1.44,0.165-2.857,0.46-4.217,0.956c-1.369,0.478-2.625,1.291-4.149,1.703
					c-0.785,0.214-1.666,0.233-2.444,0.1c-0.79-0.115-1.533-0.331-2.244-0.602c-1.409-0.57-2.724-1.299-3.832-2.361L13.259,39.778z"
					/>
			</g>
			<g>
				<path fill="#9E1915" d="M25.122,37.217c0.045-0.309,0.104-0.604,0.173-0.887c0.075-0.277,0.143-0.563,0.24-0.818
					c0.208-0.14,0.364-0.334,0.548-0.5l0.532-0.517l2.633-2.558l-1.134,3.506c-0.118,0.366-0.231,0.823-0.317,1.247
					c-0.089,0.434-0.158,0.871-0.212,1.312c-0.053,0.438-0.086,0.88-0.102,1.32c0.001,0.11-0.016,0.221,0.001,0.331
					c0.041,0.056-0.013,0.11-0.069,0.165l-0.152,0.167c-0.197,0.227-0.427,0.46-0.674,0.709c-0.271-0.218-0.521-0.45-0.722-0.692
					l-0.155-0.185c-0.057-0.062-0.108-0.125-0.066-0.186c0.017-0.124,0.009-0.247,0.016-0.371c0.019-0.494,0.055-0.987,0.113-1.477
					c0.058-0.49,0.137-0.977,0.234-1.461c0.104-0.491,0.211-0.946,0.38-1.471l1.499,0.949l-0.532,0.517
					c-0.171,0.18-0.37,0.329-0.518,0.534c-0.257,0.09-0.545,0.148-0.823,0.216C25.729,37.131,25.433,37.181,25.122,37.217z"/>
			</g>
			<g>
				<path fill="#9E1915" d="M32.965,28.83c0.149,0.236,0.399,0.405,0.975,0.794c0.269,0.193,0.652,0.485,0.924,0.97
					c0.275,0.487,0.31,1.012,0.269,1.395c-0.095,0.762-0.379,1.299-0.632,1.786c-0.261,0.484-0.538,0.933-0.819,1.375
					c-1.138,1.757-2.354,3.412-3.601,5.053c0.823-1.882,1.619-3.784,2.287-5.691c0.308-0.92,0.68-2.004,0.576-2.58
					c-0.031-0.124-0.08-0.126-0.086-0.072c-0.002,0.048-0.043,0.029-0.213-0.032c-0.31-0.116-1.021-0.344-1.62-0.816L32.965,28.83z"
					/>
			</g>
			<path fill="none" stroke="#9E1915" stroke-width="2.5541" stroke-miterlimit="10" d="M21.899,44.879c0,0-0.607,8.392,0.485,9.852
				"/>
			<g>
				<path fill="#9E1915" d="M20.657,44.814c1.341-0.313,2.678-0.465,3.828-0.784c0.27-0.065,0.565-0.158,0.68-0.246
					c0.188-0.071,0.19-0.108,0.354-0.186l0.401-0.218l1.746-0.859c0.597-0.303,1.216-0.559,1.867-0.802
					c0.659-0.244,1.31-0.485,2.153-0.668c0.216-0.041,0.451-0.069,0.728-0.086c0.3-0.004,0.586-0.035,1.17,0.112l0.208,0.062
					c0.079,0.027,0.19,0.076,0.282,0.121c0.19,0.095,0.36,0.182,0.608,0.404c0.223,0.197,0.412,0.42,0.568,0.728
					c0.076,0.146,0.142,0.301,0.189,0.453c0.034,0.126,0.062,0.258,0.08,0.39c0.018,0.134,0.026,0.268,0.028,0.398l-0.002,0.115
					l-0.003,0.135l-0.017,0.325c-0.053,0.742-0.104,1.389-0.196,2.049c-0.217,1.301-0.396,2.583-0.645,3.841
					c-0.256,1.26-0.525,2.512-0.624,3.48c-0.124,2.451-0.166,5.135-0.631,7.819l-0.252,0.043c-0.463-2.561-0.91-5.118-1.129-7.728
					c-0.115-1.338,0.121-2.633,0.256-3.923l0.499-3.865c0.081-0.642,0.172-1.285,0.229-1.922c0.011-0.141,0.031-0.353,0.021-0.434
					c-0.006-0.052-0.026-0.077-0.147-0.117c-0.233-0.066-0.565-0.033-0.867,0.007c-1.245,0.201-2.483,0.623-3.713,1.021
					l-1.851,0.616c-0.31,0.098-0.628,0.2-0.954,0.272c-0.346,0.069-0.675,0.087-1.008,0.094c-1.323-0.003-2.614-0.184-3.902-0.398
					L20.657,44.814z"/>
			</g>
			<g>
				<path fill="#9E1915" d="M21.022,48.434c1.161-0.013,2.324-0.028,3.46-0.142c0.562-0.062,1.133-0.124,1.631-0.265
					c0.483-0.163,1.104-0.363,1.646-0.526c1.126-0.31,2.213-0.816,3.381-0.949c1.166-0.107,2.369-0.171,3.614,0.29l-0.002,0.183
					c-1.071,0.598-2.144,1.039-3.257,1.35c-1.107,0.312-2.293,0.287-3.43,0.486l-1.742,0.269c-0.644,0.068-1.238,0.051-1.834,0.004
					c-1.185-0.104-2.341-0.27-3.486-0.516L21.022,48.434z"/>
			</g>
			<g>
				<path fill="#9E1915" d="M21.002,52.909c1.065-0.092,2.129-0.18,3.187-0.297c1.046-0.128,2.132-0.244,3.077-0.495l1.498-0.542
					c0.51-0.18,1.006-0.423,1.526-0.573c0.521-0.153,1.074-0.172,1.637-0.144c0.56,0.044,1.154,0.121,1.723,0.457L33.646,51.5
					c-0.98,0.669-1.906,1.146-2.948,1.343c-0.52,0.08-1.062,0.082-1.589,0.155l-1.606,0.23c-1.15,0.152-2.207,0.112-3.29,0.077
					c-1.074-0.043-2.145-0.107-3.213-0.214L21.002,52.909z"/>
			</g>
			<g>
				<path fill="#9E1915" d="M16.67,51.408c0.722,1.111,1.2,2.256,1.618,3.404c0.409,1.146,0.729,2.319,1.01,3.433
					c0.073,0.297,0.125,0.495,0.223,0.81l0.228,0.9c0.134,0.6,0.249,1.201,0.329,1.813c0.157,1.226,0.234,2.47,0.061,3.786
					c-0.849-1.02-1.452-2.108-1.985-3.214c-0.268-0.552-0.499-1.115-0.721-1.677l-0.313-0.842c-0.094-0.263-0.214-0.647-0.29-0.938
					c-0.312-1.244-0.459-2.458-0.505-3.7C16.289,53.944,16.348,52.694,16.67,51.408z"/>
			</g>
			<g>
				<path fill="#9E1915" d="M11.196,57.467c0.908,0.681,1.951,1.161,2.999,1.356c0.522,0.089,1.055,0.108,1.548,0.03
					c0.483-0.094,1.054-0.259,1.588-0.407c2.181-0.591,4.381-1.193,6.611-1.677c4.46-0.974,9.009-1.723,13.763-1.482
					c1.189,0.095,2.394,0.259,3.607,0.623c1.192,0.368,2.486,0.925,3.468,2.072c0.996,1.15,1.298,2.777,1.057,4.131
					c-0.109,0.716-0.434,1.487-0.971,2.07c-0.539,0.587-1.222,0.942-1.866,1.154c-1.307,0.408-2.541,0.402-3.726,0.306
					c-1.186-0.113-2.326-0.328-3.448-0.587c-1.118-0.279-2.218-0.584-3.304-0.925c-1.091-0.32-2.152-0.727-3.266-0.951
					c1.146-0.043,2.287,0.133,3.413,0.258c1.128,0.134,2.245,0.288,3.36,0.38c1.111,0.108,2.221,0.184,3.3,0.151
					c1.068-0.036,2.144-0.138,2.977-0.501c0.849-0.378,1.224-0.893,1.316-1.686c0.085-0.872-0.137-1.666-0.671-2.217
					c-0.526-0.567-1.38-1-2.341-1.263c-0.961-0.273-2.017-0.402-3.082-0.472c-2.143-0.167-4.359-0.042-6.57,0.138
					c-2.219,0.161-4.437,0.473-6.668,0.753l-6.718,0.945c-0.577,0.064-1.114,0.142-1.757,0.166
					c-0.638-0.002-1.246-0.118-1.812-0.334C12.875,59.076,11.925,58.344,11.196,57.467z"/>
			</g>
			<g>
				<path fill="#9E1915" d="M26.972,44.088c-0.336,0.746-0.322,1.554-0.366,2.347c-0.037,0.794-0.027,1.594-0.033,2.392
					c0.017,1.595,0.02,3.19,0.062,4.785c0.013,1.596,0.059,3.189,0.106,4.777l0.114,2.414l0.021,1.225l0.001,0.15l0.001,0.071
					c0,0.009,0.002,0.022-0.002,0.021l-0.013-0.023c-0.081-0.02,0.157,0.001-0.229-0.091c-0.17,0.097-0.104,0.103-0.139,0.158
					c-0.002,0.021,0.001,0.02,0.002,0.018c0.016-0.078,0.02-0.192,0.027-0.291l0.058-0.619l0.217,0.586
					c0.032,0.103,0.062,0.188,0.09,0.313c0.001,0.012,0.004,0.021,0.001,0.056c-0.035,0.058,0.029,0.069-0.144,0.165
					c-0.39-0.091-0.15-0.076-0.233-0.097l-0.021-0.042l-0.021-0.052l-0.032-0.078l-0.061-0.146c-0.149-0.39-0.271-0.78-0.405-1.169
					c-0.236-0.78-0.482-1.565-0.645-2.391c-0.347-1.63-0.473-3.277-0.518-4.924c-0.007-1.646,0.068-3.295,0.349-4.932
					c0.129-0.818,0.318-1.632,0.569-2.434C26.015,45.505,26.284,44.625,26.972,44.088z"/>
			</g>
			<g>
				<path fill="#9E1915" d="M21.746,62.255c0.139,0.205,0.255,0.415,0.375,0.623l-0.489-0.254c1.437-0.904,2.948-1.661,4.484-2.433
					c0.755-0.42,1.562-0.702,2.394-0.831c0.829-0.144,1.668-0.236,2.601-0.154l0.065,0.17c-0.625,0.7-1.363,1.176-2.12,1.575
					c-0.753,0.412-1.537,0.66-2.354,0.824c-1.609,0.39-3.169,0.98-4.776,1.48l-0.56,0.174l0.07-0.428
					c0.039-0.237,0.072-0.475,0.131-0.715L21.746,62.255z"/>
			</g>
		</g>
		<g>
			<g>
				<path fill="#010202" d="M9.008,13.133c0.361-0.031,0.745-0.093,1.089-0.097c0.35-0.015,0.705-0.038,1.035-0.025
					c0.331,0.012,0.687-0.008,0.997,0.031c0.213,0.182,0.426,0.363,0.661,0.512l0.108,0.068l0.142,0.143l5.724,5.773l2.86,2.887
					l0.716,0.722c0.062,0.06,0.117,0.123,0.183,0.179c0.062,0.055,0.159,0.079,0.203,0.154c0.069,0.169,0.084,0.395,0.129,0.588
					c0.159,0.796,0.277,1.633,0.337,2.528c-0.896-0.066-1.729-0.193-2.524-0.359c-0.193-0.046-0.419-0.062-0.587-0.134
					c-0.075-0.044-0.099-0.141-0.154-0.205c-0.055-0.064-0.116-0.122-0.176-0.183l-0.716-0.722l-2.861-2.888l-5.724-5.772l0.25,0.21
					c-0.221-0.171-0.464-0.31-0.707-0.446c-0.145-0.279-0.246-0.619-0.371-0.926c-0.126-0.307-0.226-0.649-0.332-0.982
					C9.175,13.865,9.103,13.483,9.008,13.133z"/>
			</g>
			<g>
				<path fill="#010202" d="M39.298,24.147c1.198-1.956,2.678-3.315,4.173-4.587c0.76-0.611,1.712-0.996,2.532-1.557
					c0.401-0.282,0.766-0.618,0.98-1.015c0.109-0.194,0.181-0.401,0.201-0.598c0.002,0.007,0.008-0.112,0.01-0.156
					c-0.007-0.033,0-0.055-0.012-0.103c-0.011-0.084-0.042-0.17-0.072-0.256c-0.321-0.704-1.211-1.273-2.081-1.667
					c-0.891-0.408-1.856-0.692-2.827-0.94c-1.956-0.461-3.936-0.842-5.912-1.179c-0.989-0.165-1.982-0.289-2.966-0.392
					c-0.472-0.046-1.04-0.104-1.358-0.088c-0.412,0.011-0.854,0.051-1.309,0.104c-1.826,0.242-3.778,0.722-5.732,1.213
					c-1.962,0.493-3.938,1.057-5.962,1.543c-1.009,0.254-2.032,0.479-3.073,0.676c-0.523,0.087-1.048,0.183-1.587,0.23
					c-0.54,0.038-1.082,0.114-1.685-0.079l0.076-0.319c0.431-0.047,0.912-0.291,1.366-0.496c0.458-0.223,0.918-0.444,1.374-0.687
					l2.77-1.404c1.859-0.931,3.77-1.786,5.749-2.541c1.987-0.739,4.036-1.391,6.323-1.625c0.572-0.06,1.166-0.078,1.786-0.042
					c0.716,0.042,1.173,0.142,1.725,0.231c1.064,0.187,2.105,0.434,3.138,0.701c2.064,0.534,4.085,1.243,6.001,2.233
					c0.963,0.482,1.9,1.024,2.805,1.645c0.868,0.65,1.842,1.284,2.342,2.522c0.051,0.159,0.096,0.322,0.109,0.496
					c0.012,0.08,0.011,0.188,0.012,0.283c-0.008,0.085-0.002,0.096-0.022,0.229c-0.054,0.316-0.143,0.606-0.246,0.881
					c-0.21,0.548-0.441,1.067-0.687,1.591c-0.483,1.044-1.051,2.076-1.862,2.806c-0.82,0.717-1.733,1.294-2.714,1.747
					c-0.981,0.447-2.018,0.799-3.192,0.877L39.298,24.147z"/>
			</g>
			<g>
				<path fill="#010202" d="M24.363,10.359c0.59,1.179,1.119,2.373,1.604,3.609c0.118,0.311,0.233,0.624,0.343,0.95
					c0.097,0.337,0.208,0.645,0.245,1.134l0.063,2.004c0.088,1.309,0.124,2.611-0.181,3.887c-0.292,1.277-0.654,2.547-1.388,3.788
					l-0.254-0.021c-0.528-1.338-0.692-2.647-0.791-3.95c-0.041-0.651-0.03-1.297,0.043-1.939c0.072-0.642,0.226-1.276,0.333-1.915
					c0.111-0.625,0.219-1.302,0.28-1.869c0.037-0.159,0.015-0.49-0.008-0.787c-0.021-0.309-0.05-0.625-0.083-0.943l-0.453-3.874
					L24.363,10.359z"/>
			</g>
			<g>
				<path fill="#010202" d="M32.157,8.049c0.625,0.565,1.1,1.135,1.558,1.705c0.055,0.071,0.13,0.142,0.153,0.213
					c0.026,0.072-0.017,0.145-0.028,0.217c-0.01,0.145,0.001,0.288,0.001,0.433l0.015,0.864l0.056,3.458l0.003,0.146l-0.022,0.144
					l-0.73,4.511c-0.109,0.755-0.271,1.499-0.337,2.261c0.025,0.101-0.055,0.184-0.144,0.266l-0.247,0.25l-0.498,0.498
					c-0.351,0.329-0.721,0.655-1.125,0.975c-0.284-0.432-0.532-0.856-0.762-1.279l-0.314-0.63l-0.155-0.314
					c-0.059-0.105-0.107-0.21-0.052-0.298c0.177-0.743,0.259-1.501,0.393-2.251l0.729-4.511l-0.021,0.289l-0.056-3.458l-0.014-0.864
					c-0.007-0.145,0.001-0.289-0.015-0.433c-0.014-0.071-0.059-0.144-0.035-0.216c0.022-0.071,0.096-0.146,0.146-0.219
					C31.095,9.219,31.551,8.636,32.157,8.049z"/>
			</g>
			<path fill="none" stroke="#010202" stroke-width="2.5541" stroke-miterlimit="10" d="M22.472,25.356c0,0,3.905-1.559,6.238-2.007
				s10.033-1.368,11.584,0"/>
		</g>
	</g>
</g>
<g>
	<path d="M50.914,10.283V8.148h-3.622V7.465l3.479-4.978h1.139v4.846h1.092v0.815h-1.092v2.135H50.914z M50.914,7.333V4.73
		c0-0.408,0.012-0.816,0.036-1.224h-0.036c-0.239,0.456-0.432,0.792-0.647,1.151l-1.907,2.65v0.024H50.914z"/>
</g>
</svg>
