<?xml version="1.0" encoding="utf-8"?>
<!-- Generator: Adobe Illustrator 15.0.0, SVG Export Plug-In . SVG Version: 6.00 Build 0)  -->
<!DOCTYPE svg PUBLIC "-//W3C//DTD SVG 1.1//EN" "http://www.w3.org/Graphics/SVG/1.1/DTD/svg11.dtd">
<svg version="1.1" id="Manzu" xmlns="http://www.w3.org/2000/svg" xmlns:xlink="http://www.w3.org/1999/xlink" x="0px" y="0px"
	 width="54.225px" height="74.064px" viewBox="0 0 54.225 74.064" enable-background="new 0 0 54.225 74.064" xml:space="preserve">
<g id="_x35_man_1_">
	
		<rect x="0.183" y="0.183" fill="#F6F5F1" stroke="#010202" stroke-width="0.3649" stroke-miterlimit="10" width="53.857" height="73.7"/>
	<g id="_x35_man">
		<g id="MAN_4_">
			<g>
				<path fill="#9E1915" d="M13.23,39.803c2.945,0.352,5.695,1.117,8.096,0.986c1.323-0.04,2.837-0.059,4.229-0.387
					c1.402-0.324,2.737-0.885,4.066-1.511c1.326-0.638,2.699-1.195,4.153-1.551c1.446-0.386,2.959-0.649,4.446-0.688
					c2.976-0.027,5.92,0.382,8.718,1.496l-0.029,0.254c-2.932,0.525-5.764,0.715-8.543,0.975c-1.389,0.115-2.749,0.153-4.128,0.333
					c-1.374,0.199-2.79,0.376-4.233,0.526c-1.44,0.165-2.857,0.46-4.217,0.956c-1.37,0.479-2.625,1.291-4.148,1.703
					c-0.785,0.214-1.666,0.234-2.445,0.101c-0.791-0.115-1.534-0.331-2.244-0.603c-1.409-0.57-2.723-1.298-3.832-2.36L13.23,39.803z
					"/>
			</g>
			<g>
				<path fill="#9E1915" d="M25.094,37.242c0.045-0.31,0.104-0.604,0.173-0.888c0.074-0.276,0.142-0.562,0.239-0.816
					c0.208-0.141,0.364-0.335,0.549-0.5l0.531-0.518l2.634-2.557l-1.135,3.506c-0.118,0.366-0.23,0.823-0.316,1.247
					c-0.089,0.433-0.159,0.871-0.212,1.31c-0.054,0.439-0.086,0.882-0.103,1.321c0.001,0.11-0.015,0.22,0.001,0.331
					c0.041,0.056-0.013,0.11-0.068,0.165l-0.153,0.167c-0.197,0.226-0.426,0.46-0.673,0.709c-0.271-0.218-0.521-0.451-0.723-0.693
					l-0.154-0.184c-0.058-0.062-0.109-0.124-0.067-0.187c0.017-0.123,0.009-0.246,0.016-0.37c0.019-0.494,0.056-0.987,0.113-1.477
					c0.06-0.49,0.137-0.976,0.235-1.46c0.104-0.492,0.21-0.946,0.379-1.471l1.499,0.949l-0.532,0.517
					c-0.171,0.179-0.37,0.329-0.517,0.534c-0.257,0.09-0.545,0.147-0.824,0.216C25.7,37.156,25.404,37.207,25.094,37.242z"/>
			</g>
			<g>
				<path fill="#9E1915" d="M32.937,28.855c0.148,0.237,0.398,0.406,0.974,0.794c0.27,0.194,0.653,0.486,0.924,0.971
					c0.275,0.486,0.311,1.012,0.27,1.395c-0.096,0.761-0.379,1.298-0.632,1.786c-0.262,0.484-0.538,0.932-0.82,1.375
					c-1.137,1.757-2.354,3.412-3.601,5.052c0.823-1.881,1.619-3.784,2.287-5.69c0.309-0.921,0.681-2.005,0.576-2.58
					c-0.031-0.124-0.08-0.126-0.086-0.072c-0.002,0.048-0.043,0.029-0.213-0.033c-0.309-0.116-1.021-0.343-1.62-0.815L32.937,28.855
					z"/>
			</g>
			<path fill="none" stroke="#9E1915" stroke-width="2.5541" stroke-miterlimit="10" d="M21.871,44.904c0,0-0.606,8.393,0.487,9.853
				"/>
			<g>
				<path fill="#9E1915" d="M20.629,44.839c1.342-0.314,2.679-0.465,3.828-0.784c0.271-0.066,0.566-0.159,0.681-0.247
					c0.187-0.071,0.189-0.107,0.353-0.185l0.402-0.219l1.746-0.858c0.596-0.303,1.216-0.56,1.866-0.802
					c0.659-0.244,1.311-0.485,2.153-0.668c0.216-0.041,0.451-0.069,0.729-0.087c0.3-0.004,0.586-0.034,1.17,0.112l0.208,0.062
					c0.078,0.026,0.189,0.075,0.281,0.121c0.19,0.095,0.36,0.182,0.608,0.403c0.223,0.198,0.412,0.42,0.569,0.729
					c0.075,0.146,0.141,0.301,0.188,0.453c0.034,0.126,0.062,0.258,0.08,0.39c0.018,0.133,0.027,0.267,0.029,0.398l-0.002,0.114
					l-0.003,0.136l-0.018,0.324c-0.053,0.742-0.104,1.39-0.195,2.049c-0.218,1.302-0.396,2.583-0.646,3.842
					c-0.256,1.26-0.525,2.512-0.624,3.479c-0.124,2.452-0.166,5.135-0.631,7.82l-0.252,0.043c-0.462-2.562-0.91-5.118-1.128-7.729
					c-0.116-1.338,0.121-2.633,0.255-3.923l0.499-3.864c0.081-0.643,0.172-1.285,0.229-1.923c0.012-0.14,0.031-0.352,0.021-0.433
					c-0.005-0.052-0.026-0.078-0.147-0.118c-0.232-0.065-0.564-0.033-0.866,0.007c-1.245,0.201-2.484,0.623-3.714,1.022
					l-1.851,0.616c-0.309,0.098-0.628,0.199-0.954,0.271c-0.346,0.07-0.675,0.087-1.008,0.094c-1.323-0.003-2.614-0.183-3.902-0.397
					L20.629,44.839z"/>
			</g>
			<g>
				<path fill="#9E1915" d="M20.994,48.459c1.161-0.014,2.324-0.028,3.46-0.143c0.563-0.061,1.133-0.124,1.631-0.264
					c0.483-0.163,1.104-0.364,1.646-0.527c1.126-0.309,2.212-0.815,3.38-0.948c1.166-0.107,2.37-0.172,3.615,0.29l-0.002,0.183
					c-1.072,0.597-2.145,1.039-3.258,1.349c-1.107,0.313-2.293,0.287-3.43,0.487l-1.742,0.268c-0.644,0.069-1.237,0.052-1.834,0.005
					c-1.185-0.104-2.341-0.27-3.485-0.517L20.994,48.459z"/>
			</g>
			<g>
				<path fill="#9E1915" d="M20.974,52.934c1.064-0.091,2.129-0.179,3.186-0.296c1.046-0.128,2.132-0.245,3.077-0.496l1.498-0.542
					c0.51-0.178,1.006-0.421,1.527-0.573c0.521-0.152,1.073-0.172,1.637-0.143c0.559,0.044,1.154,0.121,1.722,0.457l-0.002,0.183
					c-0.979,0.668-1.906,1.146-2.948,1.342c-0.52,0.08-1.062,0.082-1.589,0.155l-1.605,0.231c-1.151,0.151-2.207,0.111-3.29,0.077
					c-1.075-0.043-2.146-0.107-3.213-0.215L20.974,52.934z"/>
			</g>
			<g>
				<path fill="#9E1915" d="M16.642,51.434c0.721,1.112,1.199,2.256,1.617,3.405c0.408,1.146,0.729,2.319,1.011,3.433
					c0.072,0.297,0.125,0.496,0.221,0.811l0.229,0.899c0.135,0.601,0.25,1.202,0.329,1.814c0.157,1.225,0.234,2.47,0.061,3.786
					c-0.848-1.021-1.452-2.108-1.985-3.214c-0.267-0.554-0.499-1.115-0.721-1.678L17.09,59.85c-0.094-0.263-0.214-0.647-0.291-0.938
					c-0.312-1.244-0.458-2.458-0.504-3.7C16.261,53.97,16.319,52.72,16.642,51.434z"/>
			</g>
			<g>
				<path fill="#9E1915" d="M11.168,57.493c0.908,0.681,1.951,1.16,2.998,1.356c0.524,0.088,1.057,0.108,1.549,0.03
					c0.483-0.094,1.055-0.259,1.589-0.407c2.18-0.591,4.381-1.194,6.61-1.676c4.46-0.975,9.009-1.725,13.763-1.483
					c1.189,0.096,2.394,0.259,3.607,0.623c1.193,0.37,2.487,0.925,3.468,2.073c0.996,1.15,1.298,2.777,1.058,4.131
					c-0.11,0.715-0.435,1.487-0.972,2.07c-0.539,0.587-1.222,0.941-1.865,1.153c-1.308,0.408-2.541,0.403-3.727,0.307
					c-1.185-0.113-2.326-0.328-3.448-0.587c-1.117-0.279-2.218-0.584-3.304-0.925c-1.091-0.32-2.152-0.727-3.265-0.951
					c1.146-0.043,2.287,0.133,3.413,0.258c1.128,0.134,2.245,0.288,3.359,0.38c1.111,0.108,2.222,0.183,3.3,0.151
					c1.068-0.036,2.144-0.139,2.977-0.501c0.849-0.378,1.224-0.894,1.317-1.687c0.085-0.872-0.138-1.666-0.672-2.216
					c-0.525-0.568-1.38-1-2.341-1.263c-0.961-0.273-2.017-0.401-3.082-0.473c-2.143-0.167-4.358-0.042-6.569,0.139
					c-2.22,0.161-4.438,0.473-6.668,0.753l-6.719,0.945c-0.577,0.064-1.113,0.142-1.758,0.165c-0.637-0.002-1.245-0.117-1.811-0.334
					C12.847,59.101,11.896,58.37,11.168,57.493z"/>
			</g>
			<g>
				<path fill="#9E1915" d="M26.943,44.114c-0.336,0.746-0.322,1.555-0.366,2.348c-0.037,0.794-0.027,1.594-0.033,2.391
					c0.018,1.596,0.021,3.191,0.062,4.786c0.012,1.595,0.058,3.189,0.105,4.778l0.114,2.414l0.021,1.225l0.001,0.15l0.001,0.07
					c0,0.01,0.002,0.023-0.002,0.021l-0.016-0.026c-0.064,0.017,0.144-0.06-0.267-0.071c-0.104,0.072-0.084,0.105-0.1,0.143
					c-0.002,0.021,0.001,0.018,0.002,0.016c0.016-0.078,0.02-0.191,0.027-0.291l0.059-0.619l0.217,0.587
					c0.031,0.103,0.062,0.189,0.089,0.313c0.001,0.011,0.004,0.021,0.001,0.054c-0.018,0.04,0.002,0.077-0.104,0.149
					c-0.412-0.011-0.205-0.091-0.271-0.078l-0.021-0.043l-0.021-0.053l-0.032-0.078l-0.06-0.148
					c-0.15-0.389-0.272-0.779-0.406-1.169c-0.236-0.779-0.482-1.564-0.645-2.39c-0.347-1.63-0.473-3.278-0.518-4.924
					c-0.007-1.646,0.069-3.296,0.349-4.933c0.129-0.817,0.318-1.632,0.569-2.433C25.986,45.531,26.256,44.651,26.943,44.114z"/>
			</g>
			<g>
				<path fill="#9E1915" d="M21.718,62.28c0.14,0.205,0.256,0.415,0.375,0.623l-0.488-0.254c1.436-0.903,2.947-1.661,4.483-2.432
					c0.755-0.42,1.562-0.702,2.395-0.831c0.829-0.144,1.667-0.237,2.6-0.155l0.066,0.17c-0.625,0.7-1.364,1.177-2.121,1.575
					c-0.753,0.413-1.537,0.661-2.354,0.825c-1.608,0.389-3.169,0.979-4.775,1.479l-0.561,0.175l0.07-0.429
					c0.039-0.236,0.073-0.474,0.131-0.715L21.718,62.28z"/>
			</g>
		</g>
		<g>
			<g>
				<path fill="#010202" d="M6.02,26.405c1.904-1.007,3.758-2.112,5.481-3.36c1.718-1.229,3.38-2.61,4.488-4.246
					c0.531-0.779,0.888-1.776,1.282-2.716c0.378-0.952,0.749-1.899,1.087-2.865c0.652-1.943,1.148-3.934,1.277-6.116l0.213-0.048
					c1,2.066,0.976,4.489,0.55,6.706c-0.44,2.269-1.438,4.292-2.94,6.164c-1.562,1.779-3.438,3.001-5.352,4.083
					c-1.939,1.04-3.938,1.921-6.006,2.602L6.02,26.405z"/>
			</g>
			<g>
				<path fill="#010202" d="M43.877,7.255c-1.788,0.032-3.551-0.03-5.265-0.045l-1.26,0.011c-0.387,0.015-0.897,0.028-0.962,0.109
					c-0.562,0.201-1.377,0.608-2.135,0.978c-1.558,0.753-3.175,1.567-5.03,2.083c-1.937,0.513-3.844,0.52-5.827,0.08l-0.234-0.052
					l-0.034-0.021c-0.804-0.458-1.595-0.944-2.406-1.38l1.081-0.964c0.207,1.994,0.551,3.875,0.764,5.86
					c0.061,0.497,0.09,1,0.1,1.521c0.014,0.524-0.009,1.062-0.165,1.664c-0.062,0.281-0.238,0.667-0.402,0.905
					c-0.146,0.226-0.19,0.347-0.301,0.56c-0.186,0.392-0.352,0.809-0.499,1.23c-0.292,0.847-0.514,1.722-0.667,2.563
					c-0.137,0.831-0.221,1.693-0.078,2.231c0.054,0.276,0.167,0.361,0.153,0.315c-0.005-0.018-0.011-0.044,0.001-0.039
					c-0.096-0.043,0.262,0.074,0.185,0.03c0.002-0.005,0.004-0.008,0.005-0.008l0.066-0.002c0.344,0.003,1.022-0.23,1.78-0.645
					c1.517-0.818,3.385-2.031,5.763-2.425c0.582-0.101,1.216-0.14,1.798-0.109c0.672,0.036,1.178,0.123,1.716,0.231
					c1.046,0.233,2.01,0.537,2.959,0.86c3.749,1.368,7.212,3.147,10.468,5.364l-0.145,0.335c-3.828-0.777-7.554-1.792-11.204-2.539
					c-0.904-0.189-1.812-0.352-2.663-0.431c-0.41-0.045-0.861-0.073-1.152-0.06c-0.379,0.02-0.708,0.064-1.072,0.14
					c-1.443,0.303-2.906,1.181-4.831,2.043c-0.488,0.215-1.017,0.429-1.626,0.597c-0.612,0.161-1.327,0.28-2.111,0.183l-0.291-0.042
					l-0.35-0.08c-0.313-0.084-0.183-0.059-0.509-0.169c-0.432-0.18-0.864-0.445-1.208-0.809c-0.689-0.734-0.927-1.603-0.996-2.273
					c-0.107-1.378,0.164-2.451,0.52-3.47c0.354-1.013,0.83-1.939,1.375-2.824c0.272-0.442,0.564-0.874,0.894-1.295
					c0.152-0.189,0.374-0.47,0.529-0.62c0.143-0.134,0.197-0.177,0.299-0.347c0.353-0.635,0.463-1.615,0.465-2.524
					c-0.021-1.856-0.41-3.771-1.134-5.508l-0.583-1.399l1.664,0.437c0.892,0.233,1.803,0.416,2.702,0.626l-0.269-0.071
					c0.702-0.035,1.56-0.114,2.314-0.271c0.775-0.138,1.526-0.322,2.258-0.547c1.509-0.465,3.093-1.099,4.754-1.714
					c0.858-0.299,1.648-0.619,2.798-0.805c0.799-0.095,1.171,0.042,1.656,0.096c0.462,0.075,0.911,0.164,1.351,0.282
					c1.759,0.44,3.439,1.028,5.073,1.795L43.877,7.255z"/>
			</g>
			<g>
				<path fill="#010202" d="M21.717,17.495c1.114-0.448,2.197-0.694,3.206-0.939c0.491-0.125,1.001-0.244,1.314-0.381
					c0.068-0.029,0.132-0.064,0.115-0.071c-0.004-0.001,0.001-0.004-0.023,0.005l-0.024,0.013l-0.013,0.007l-0.003,0.002
					c0.015-0.01-0.034,0.024,0.031-0.023l0.003-0.002l0.01-0.008c0.047-0.039,0.105-0.085,0.207-0.155
					c0.314-0.229,0.551-0.342,0.836-0.445c0.549-0.201,1.174-0.185,1.774-0.208c0.6-0.023,1.154-0.129,1.638-0.391
					c0.997-0.453,1.698-1.555,2.625-2.197l1.851-1.285l0.138,2.782l0.107,2.188c0.034,0.729-0.002,1.446-0.089,2.158
					c-0.082,0.713-0.184,1.418-0.305,2.135c-0.096,0.72-0.243,1.418-0.254,2.27l-0.273,0.182c-0.846-0.445-1.377-1.268-1.753-2.045
					c-0.387-0.793-0.607-1.62-0.737-2.438c-0.136-0.818-0.144-1.637-0.029-2.438c0.116-0.809,0.289-1.573,0.501-2.392l1.987,1.499
					c-1.073,0.234-2.365,0.025-3.354,0.484c-0.509,0.195-0.944,0.551-1.33,0.998c-0.384,0.447-0.741,0.942-1.16,1.247
					c-0.197,0.149-0.442,0.294-0.594,0.354c-0.015,0-0.068,0.03-0.134,0.07l-0.011,0.006l-0.003,0.001
					c0.063-0.046,0.014-0.01,0.025-0.02l-0.014,0.009l-0.055,0.035l-0.112,0.066c-0.081,0.049-0.139,0.072-0.204,0.102
					c-0.261,0.115-0.459,0.162-0.653,0.205c-0.747,0.133-1.333,0.097-1.931,0.027c-1.173-0.155-2.276-0.477-3.34-1.083
					L21.717,17.495z"/>
			</g>
			<path fill="none" stroke="#010202" stroke-width="2.5541" stroke-miterlimit="10" d="M29.519,8.948c0,0-3.251,3.499-3.549,8.431
				c-0.299,4.932-3.611,8.58-3.611,8.58"/>
		</g>
	</g>
</g>
<g>
	<path d="M50.805,4.124h-2.975l-0.3,2.003c0.18-0.024,0.348-0.036,0.636-0.036c0.611,0,1.199,0.12,1.679,0.42
		c0.612,0.336,1.115,1.02,1.115,1.991c0,1.523-1.211,2.663-2.902,2.663c-0.852,0-1.559-0.24-1.942-0.479l0.264-0.804
		c0.324,0.192,0.959,0.432,1.679,0.432c0.983,0,1.848-0.647,1.835-1.691c0-1.007-0.684-1.715-2.23-1.715
		c-0.456,0-0.804,0.036-1.092,0.072l0.504-3.742h3.73V4.124z"/>
</g>
</svg>
