<?xml version="1.0" encoding="utf-8"?>
<!-- Generator: Adobe Illustrator 15.0.0, SVG Export Plug-In . SVG Version: 6.00 Build 0)  -->
<!DOCTYPE svg PUBLIC "-//W3C//DTD SVG 1.1//EN" "http://www.w3.org/Graphics/SVG/1.1/DTD/svg11.dtd">
<svg version="1.1" id="Manzu" xmlns="http://www.w3.org/2000/svg" xmlns:xlink="http://www.w3.org/1999/xlink" x="0px" y="0px"
	 width="54.225px" height="74.064px" viewBox="0 0 54.225 74.064" enable-background="new 0 0 54.225 74.064" xml:space="preserve">
<g id="_x36_man_1_">
	
		<rect x="0.183" y="0.183" fill="#F6F5F1" stroke="#010202" stroke-width="0.3649" stroke-miterlimit="10" width="53.857" height="73.7"/>
	<g id="_x36_man">
		<g id="MAN_5_">
			<g>
				<path fill="#9E1915" d="M13.16,39.989c2.946,0.353,5.696,1.117,8.095,0.986c1.324-0.04,2.838-0.058,4.23-0.386
					c1.403-0.325,2.738-0.885,4.066-1.511c1.326-0.639,2.699-1.195,4.153-1.552c1.446-0.386,2.959-0.648,4.446-0.688
					c2.976-0.028,5.92,0.381,8.718,1.496l-0.029,0.254c-2.932,0.524-5.764,0.714-8.543,0.975c-1.389,0.114-2.749,0.153-4.128,0.333
					c-1.374,0.199-2.79,0.376-4.232,0.527c-1.441,0.165-2.858,0.46-4.217,0.956c-1.369,0.478-2.625,1.292-4.149,1.704
					c-0.786,0.214-1.666,0.233-2.445,0.1c-0.79-0.115-1.534-0.331-2.244-0.602c-1.408-0.57-2.723-1.298-3.832-2.361L13.16,39.989z"
					/>
			</g>
			<g>
				<path fill="#9E1915" d="M25.023,37.428c0.045-0.309,0.104-0.604,0.173-0.887c0.075-0.277,0.142-0.563,0.24-0.818
					c0.208-0.14,0.363-0.334,0.548-0.5l0.532-0.517l2.633-2.558l-1.134,3.506c-0.118,0.366-0.231,0.823-0.317,1.247
					c-0.089,0.434-0.16,0.871-0.212,1.312c-0.053,0.438-0.086,0.88-0.103,1.321c0.001,0.109-0.015,0.22,0.001,0.33
					c0.041,0.056-0.013,0.11-0.068,0.165l-0.153,0.167c-0.197,0.227-0.426,0.46-0.673,0.709c-0.271-0.218-0.521-0.45-0.722-0.692
					l-0.155-0.185c-0.057-0.062-0.109-0.125-0.067-0.186c0.018-0.124,0.01-0.248,0.017-0.371c0.018-0.494,0.055-0.987,0.112-1.477
					c0.059-0.49,0.138-0.977,0.235-1.46c0.104-0.492,0.21-0.947,0.379-1.472l1.499,0.949l-0.532,0.517
					c-0.171,0.18-0.369,0.329-0.517,0.534c-0.257,0.09-0.545,0.148-0.824,0.216C25.63,37.343,25.333,37.393,25.023,37.428z"/>
			</g>
			<g>
				<path fill="#9E1915" d="M32.866,29.041c0.149,0.236,0.4,0.405,0.974,0.794c0.27,0.193,0.653,0.485,0.926,0.971
					c0.273,0.487,0.309,1.012,0.268,1.396c-0.095,0.761-0.379,1.298-0.632,1.785c-0.262,0.484-0.539,0.933-0.821,1.375
					c-1.137,1.758-2.354,3.412-3.6,5.053c0.823-1.881,1.619-3.784,2.288-5.691c0.308-0.92,0.68-2.005,0.576-2.58
					c-0.03-0.124-0.08-0.126-0.087-0.072c-0.002,0.049-0.043,0.029-0.213-0.032c-0.308-0.116-1.021-0.344-1.62-0.816L32.866,29.041z
					"/>
			</g>
			<path fill="none" stroke="#9E1915" stroke-width="2.5541" stroke-miterlimit="10" d="M21.801,45.09c0,0-0.607,8.392,0.486,9.852"
				/>
			<g>
				<path fill="#9E1915" d="M20.558,45.025c1.341-0.313,2.678-0.464,3.828-0.783c0.27-0.065,0.566-0.159,0.68-0.247
					c0.187-0.071,0.189-0.109,0.353-0.186l0.402-0.218l1.746-0.86c0.596-0.303,1.216-0.559,1.867-0.802
					c0.658-0.244,1.309-0.485,2.152-0.668c0.216-0.042,0.451-0.069,0.729-0.086c0.3-0.004,0.586-0.035,1.169,0.112l0.208,0.062
					c0.079,0.027,0.189,0.077,0.282,0.121c0.189,0.096,0.359,0.182,0.607,0.404c0.224,0.197,0.413,0.42,0.57,0.728
					c0.076,0.147,0.141,0.301,0.188,0.454c0.034,0.126,0.062,0.257,0.08,0.39c0.019,0.134,0.027,0.268,0.028,0.398l-0.001,0.113
					l-0.003,0.135l-0.017,0.325c-0.054,0.742-0.104,1.389-0.196,2.05c-0.216,1.302-0.396,2.583-0.645,3.842
					c-0.257,1.261-0.523,2.51-0.624,3.48c-0.124,2.453-0.166,5.135-0.632,7.819l-0.252,0.043c-0.461-2.561-0.909-5.117-1.127-7.728
					c-0.115-1.338,0.12-2.633,0.255-3.923l0.498-3.865c0.081-0.642,0.173-1.286,0.229-1.922c0.012-0.139,0.03-0.353,0.021-0.434
					c-0.005-0.052-0.024-0.077-0.146-0.117c-0.233-0.065-0.565-0.033-0.867,0.008c-1.245,0.201-2.484,0.623-3.713,1.021
					l-1.852,0.616c-0.309,0.098-0.628,0.2-0.954,0.271c-0.346,0.069-0.675,0.087-1.008,0.094c-1.323-0.003-2.613-0.184-3.901-0.398
					L20.558,45.025z"/>
			</g>
			<g>
				<path fill="#9E1915" d="M20.923,48.646c1.161-0.013,2.324-0.027,3.46-0.142c0.563-0.062,1.134-0.124,1.633-0.265
					c0.482-0.162,1.104-0.363,1.645-0.526c1.126-0.31,2.212-0.816,3.381-0.949c1.165-0.107,2.37-0.171,3.615,0.29l-0.002,0.183
					c-1.072,0.598-2.145,1.039-3.257,1.35c-1.108,0.312-2.293,0.287-3.431,0.486l-1.742,0.269c-0.645,0.069-1.238,0.051-1.834,0.004
					c-1.185-0.103-2.341-0.269-3.486-0.516L20.923,48.646z"/>
			</g>
			<g>
				<path fill="#9E1915" d="M20.903,53.12c1.064-0.092,2.129-0.18,3.186-0.297c1.046-0.128,2.133-0.244,3.077-0.495l1.498-0.542
					c0.51-0.18,1.006-0.423,1.527-0.573c0.521-0.153,1.074-0.172,1.637-0.144c0.561,0.044,1.154,0.121,1.722,0.457l-0.002,0.184
					c-0.979,0.668-1.905,1.146-2.947,1.342c-0.521,0.08-1.062,0.081-1.589,0.155l-1.606,0.23c-1.151,0.152-2.207,0.112-3.29,0.077
					c-1.075-0.043-2.145-0.106-3.213-0.214L20.903,53.12z"/>
			</g>
			<g>
				<path fill="#9E1915" d="M16.571,51.62c0.721,1.111,1.2,2.256,1.618,3.404c0.409,1.146,0.728,2.319,1.01,3.434
					c0.073,0.297,0.125,0.495,0.222,0.81l0.228,0.9c0.134,0.6,0.25,1.202,0.329,1.813c0.157,1.225,0.233,2.471,0.061,3.785
					c-0.848-1.02-1.452-2.107-1.984-3.214c-0.268-0.553-0.499-1.115-0.722-1.677l-0.312-0.841c-0.095-0.263-0.214-0.647-0.29-0.939
					c-0.312-1.244-0.459-2.458-0.505-3.7C16.19,54.156,16.249,52.906,16.571,51.62z"/>
			</g>
			<g>
				<path fill="#9E1915" d="M11.098,57.679c0.906,0.681,1.95,1.161,2.998,1.357c0.523,0.088,1.056,0.107,1.549,0.029
					c0.482-0.095,1.054-0.259,1.588-0.406c2.18-0.592,4.381-1.194,6.611-1.677c4.46-0.974,9.009-1.724,13.763-1.482
					c1.188,0.095,2.393,0.259,3.606,0.623c1.193,0.369,2.487,0.925,3.468,2.072c0.997,1.15,1.299,2.777,1.058,4.132
					c-0.11,0.715-0.434,1.485-0.972,2.069c-0.538,0.588-1.222,0.942-1.865,1.154c-1.307,0.408-2.541,0.404-3.727,0.307
					c-1.185-0.112-2.325-0.328-3.447-0.587c-1.118-0.278-2.219-0.584-3.305-0.925c-1.091-0.32-2.151-0.726-3.265-0.951
					c1.146-0.043,2.287,0.133,3.413,0.258c1.128,0.135,2.245,0.288,3.36,0.381c1.11,0.107,2.221,0.183,3.3,0.15
					c1.067-0.036,2.143-0.138,2.976-0.502c0.85-0.378,1.225-0.893,1.317-1.685c0.085-0.872-0.137-1.666-0.671-2.217
					c-0.527-0.567-1.38-1-2.342-1.263c-0.961-0.272-2.017-0.4-3.082-0.472c-2.143-0.167-4.358-0.042-6.569,0.138
					c-2.219,0.161-4.438,0.473-6.668,0.753l-6.718,0.945c-0.577,0.064-1.114,0.141-1.759,0.166
					c-0.637-0.002-1.244-0.117-1.811-0.334C12.776,59.287,11.826,58.556,11.098,57.679z"/>
			</g>
			<g>
				<path fill="#9E1915" d="M26.873,44.3c-0.336,0.746-0.321,1.554-0.366,2.347c-0.036,0.794-0.026,1.595-0.032,2.392
					c0.017,1.595,0.02,3.19,0.062,4.785c0.012,1.596,0.059,3.189,0.106,4.777l0.113,2.414l0.021,1.225l0.001,0.15l0.001,0.071
					c0,0.009,0.002,0.022-0.002,0.021l-0.013-0.023c-0.081-0.02,0.156,0.001-0.229-0.09c-0.17,0.096-0.104,0.102-0.139,0.157
					c-0.002,0.021,0.001,0.02,0.001,0.018c0.016-0.078,0.02-0.192,0.027-0.291l0.059-0.619l0.217,0.586
					c0.032,0.103,0.062,0.189,0.089,0.314c0.001,0.01,0.004,0.021,0.001,0.055c-0.035,0.058,0.03,0.07-0.143,0.165
					c-0.391-0.091-0.152-0.076-0.234-0.097l-0.02-0.042l-0.022-0.052l-0.032-0.078l-0.06-0.146c-0.15-0.39-0.272-0.78-0.406-1.169
					c-0.234-0.78-0.481-1.565-0.644-2.391c-0.348-1.63-0.474-3.277-0.519-4.924c-0.007-1.646,0.07-3.296,0.35-4.932
					c0.129-0.818,0.317-1.632,0.568-2.434C25.917,45.717,26.186,44.837,26.873,44.3z"/>
			</g>
			<g>
				<path fill="#9E1915" d="M21.647,62.467c0.139,0.205,0.254,0.415,0.374,0.623l-0.489-0.254c1.436-0.904,2.949-1.661,4.484-2.433
					c0.756-0.42,1.562-0.701,2.395-0.831c0.829-0.144,1.667-0.236,2.601-0.154l0.065,0.17c-0.625,0.7-1.365,1.176-2.121,1.575
					c-0.754,0.413-1.538,0.66-2.354,0.823c-1.61,0.391-3.169,0.98-4.777,1.481l-0.561,0.174l0.07-0.429
					c0.039-0.237,0.074-0.475,0.132-0.715L21.647,62.467z"/>
			</g>
		</g>
		<g>
			<g>
				<path fill="#010202" d="M28.192,13.618c-0.592-0.776-1.063-1.575-1.537-2.383l-0.651-1.226l-0.55-1.254
					C25.282,8.333,25,7.918,24.762,7.489c-0.23-0.429-0.285-0.886-0.143-1.362c0.146-0.477,0.386-0.97,0.81-1.467
					c0.191-0.249,0.452-0.5,0.742-0.744c0.369-0.229,0.644-0.503,1.164-0.637l0.547,0.204c0.382,0.272,0.611,0.428,0.946,0.625
					c0.261,0.183,0.513,0.359,0.706,0.538c0.428,0.357,0.71,0.719,0.91,1.098c0.199,0.376,0.218,0.771,0.069,1.193
					c-0.156,0.422-0.349,0.858-0.422,1.285l-0.238,1.292l-0.31,1.317c-0.236,0.887-0.457,1.779-0.776,2.692L28.192,13.618z"/>
			</g>
			<g>
				<path fill="#010202" d="M17.029,14.753c1.045-0.158,2.036-0.167,2.968-0.231c0.454-0.029,0.92-0.052,1.235-0.13
					c0.003-0.004,0.072-0.012,0.021-0.013c0.023-0.007,0.077-0.016,0.068-0.02c-0.007-0.006,0.037-0.02,0.085-0.034l0.306-0.103
					l0.665-0.214c0.905-0.287,1.839-0.545,2.827-0.6c0.982-0.082,2.004-0.038,2.986-0.137c1.972-0.182,3.758-1.027,5.503-2.004
					c0.872-0.49,1.77-0.891,2.683-1.235c0.911-0.352,1.818-0.723,2.737-1.038l0.059-0.021l0.066-0.012
					c0.332-0.059,0.282-0.033,0.384-0.042l0.145,0.001l0.199,0.015l0.285,0.042c0.162,0.031,0.303,0.063,0.433,0.099
					c0.26,0.064,0.482,0.152,0.703,0.233c0.438,0.161,0.828,0.362,1.213,0.561c0.758,0.414,1.463,0.871,2.135,1.371
					c0.671,0.503,1.312,1.035,1.919,1.617c0.604,0.586,1.185,1.202,1.703,1.91l-0.17,0.281c-0.867-0.124-1.68-0.328-2.477-0.546
					c-0.795-0.222-1.563-0.477-2.32-0.73l-2.204-0.787l-1.023-0.373l-0.445-0.148l-0.156-0.049
					c-0.016-0.004-0.025-0.007-0.015-0.007l0.051,0.002h0.066c0.077-0.01,0.001,0.016,0.31-0.038l0.125-0.031
					c-0.952,0.232-1.916,0.406-2.877,0.598c-0.958,0.198-1.935,0.337-2.936,0.387c-2.002,0.1-3.964,0.321-5.747,1.188
					c-0.895,0.426-1.751,0.989-2.65,1.416c-0.894,0.453-1.844,0.698-2.83,0.874c-0.248,0.041-0.497,0.086-0.76,0.118l-0.41,0.043
					l-0.275,0.022c-0.069,0.007-0.076,0.001-0.113,0.001c-0.111,0.006-0.104-0.002-0.161-0.003
					c-0.661-0.044-1.167-0.192-1.674-0.372c-0.992-0.38-1.897-0.852-2.727-1.546L17.029,14.753z"/>
			</g>
			<g>
				<path fill="#010202" d="M13.63,25.958c1.308-0.445,2.611-0.873,3.887-1.371c1.278-0.479,2.544-0.975,3.771-1.509
					c1.229-0.544,2.312-1.337,3.472-1.778c0.571-0.245,1.142-0.47,1.667-0.736c0.521-0.283,1.022-0.526,1.429-1.143l0.256,0.008
					c0.355,0.781,0.023,1.759-0.427,2.418c-0.458,0.692-1.042,1.232-1.658,1.671c-1.232,0.909-2.711,1.136-4.071,1.492
					c-1.368,0.359-2.743,0.619-4.124,0.815c-1.387,0.172-2.763,0.338-4.156,0.385L13.63,25.958z"/>
			</g>
			<g>
				<path fill="#010202" d="M31.951,17.813c1.144,0.406,2.232,0.903,3.322,1.421c1.083,0.529,2.14,1.111,3.168,1.766
					c1.021,0.65,2.28,1.114,2.978,2.25c0.362,0.545,0.674,1.161,0.847,1.878c0.167,0.685,0.274,1.577-0.197,2.312l-0.363,0.021
					c-0.57-0.443-1.077-0.605-1.556-0.883c-0.493-0.246-0.946-0.521-1.386-0.829c-0.911-0.567-1.406-1.659-2.187-2.505l-2.381-2.54
					l-2.444-2.588L31.951,17.813z"/>
			</g>
			<g>
				
					<ellipse transform="matrix(-0.0596 -0.9982 0.9982 -0.0596 8.7354 49.1043)" fill="#010202" cx="27.499" cy="20.437" rx="1.689" ry="2.285"/>
				<path fill="#010202" d="M29.926,20.303c0.004,0.514,0.077,1.301-0.313,2.073c-0.374,0.765-1.208,1.116-1.939,0.962
					c-0.298-0.081-0.745-0.26-1.014-0.481c-0.301-0.215-0.55-0.452-0.802-0.645c-0.251-0.199-0.504-0.381-0.757-0.623
					c-0.247-0.238-0.522-0.545-0.68-0.969c-0.032-0.185-0.067-0.139-0.095-0.275c-0.021-0.125-0.034-0.298-0.034-0.404
					c-0.012-0.238,0.023-0.482,0.1-0.703c0.138-0.456,0.427-0.812,0.731-1.104c0.614-0.583,1.396-0.937,2.185-0.94
					c0.292,0.005,0.826,0.069,1.154,0.227c0.368,0.161,0.694,0.454,0.92,0.812c0.483,0.729,0.515,1.521,0.544,2.059V20.303z
					 M29.635,20.311c-0.021-0.232-0.198-0.438-0.447-0.493c-0.236-0.07-0.525,0.005-0.741,0.096
					c-0.231,0.104-0.404,0.224-0.549,0.279c-0.186,0.054-0.175,0.083-0.405,0.115c-0.253,0.066-0.51,0.028-0.746,0.061
					c-0.117,0.015-0.199,0.042-0.323,0.04c-0.062,0.003-0.119,0.006-0.197,0.02c-0.043,0.019-0.06-0.021-0.104-0.019
					c-0.039-0.008-0.065,0.171-0.104,0.116c-0.123,0.101-0.195,0.297-0.129,0.477c0.061,0.178,0.222,0.333,0.428,0.388
					c0.204,0.062,0.454,0,0.666-0.111c0.244-0.116,0.322-0.263,0.546-0.37c0.31-0.224,0.515-0.188,0.991-0.037
					c0.227,0.059,0.523,0.097,0.75-0.007c0.24-0.104,0.387-0.292,0.365-0.564V20.311z"/>
			</g>
		</g>
	</g>
</g>
<g>
	<path d="M52.268,3.481c-0.216-0.012-0.492,0.012-0.792,0.06c-1.667,0.264-2.53,1.463-2.71,2.758h0.023
		c0.372-0.503,1.032-0.911,1.896-0.911c1.379,0,2.351,1.007,2.351,2.519c0,1.439-0.972,2.758-2.603,2.758
		c-1.655,0-2.746-1.295-2.746-3.322c0-1.535,0.539-2.746,1.319-3.514c0.647-0.636,1.511-1.032,2.494-1.151
		c0.312-0.048,0.576-0.06,0.768-0.06V3.481z M51.969,7.978c0-1.115-0.636-1.787-1.607-1.787c-0.636,0-1.235,0.384-1.522,0.959
		c-0.061,0.12-0.108,0.264-0.108,0.456c0.012,1.283,0.611,2.243,1.728,2.243C51.357,9.849,51.969,9.094,51.969,7.978z"/>
</g>
</svg>
