<?xml version="1.0" encoding="utf-8"?>
<!-- Generator: Adobe Illustrator 15.0.0, SVG Export Plug-In . SVG Version: 6.00 Build 0)  -->
<!DOCTYPE svg PUBLIC "-//W3C//DTD SVG 1.1//EN" "http://www.w3.org/Graphics/SVG/1.1/DTD/svg11.dtd">
<svg version="1.1" id="Manzu" xmlns="http://www.w3.org/2000/svg" xmlns:xlink="http://www.w3.org/1999/xlink" x="0px" y="0px"
	 width="54.225px" height="74.064px" viewBox="0 0 54.225 74.064" enable-background="new 0 0 54.225 74.064" xml:space="preserve">
<g id="_x37_man_1_">
	
		<rect x="0.183" y="0.183" fill="#F6F5F1" stroke="#010202" stroke-width="0.3649" stroke-miterlimit="10" width="53.857" height="73.7"/>
	<g id="_x37_man">
		<g id="MAN_7_">
			<g>
				<path fill="#9E1915" d="M13.219,39.823c2.945,0.353,5.695,1.117,8.096,0.986c1.323-0.04,2.837-0.058,4.229-0.387
					c1.403-0.324,2.737-0.885,4.067-1.51c1.326-0.639,2.699-1.195,4.153-1.552c1.445-0.386,2.958-0.648,4.445-0.688
					c2.977-0.028,5.92,0.382,8.719,1.496l-0.029,0.254c-2.934,0.524-5.765,0.714-8.543,0.974c-1.389,0.114-2.749,0.154-4.128,0.333
					c-1.374,0.199-2.79,0.376-4.233,0.527c-1.44,0.165-2.857,0.459-4.217,0.956c-1.37,0.478-2.625,1.292-4.149,1.704
					c-0.784,0.214-1.666,0.233-2.444,0.1c-0.791-0.115-1.534-0.331-2.244-0.602c-1.409-0.57-2.724-1.298-3.832-2.361L13.219,39.823z
					"/>
			</g>
			<g>
				<path fill="#9E1915" d="M25.082,37.263c0.045-0.309,0.104-0.604,0.173-0.887c0.075-0.277,0.143-0.563,0.24-0.818
					c0.208-0.14,0.364-0.334,0.548-0.5l0.532-0.517l2.633-2.559l-1.134,3.507c-0.118,0.366-0.231,0.823-0.317,1.247
					c-0.089,0.434-0.158,0.871-0.212,1.311c-0.053,0.439-0.086,0.881-0.102,1.322c0.001,0.109-0.015,0.22,0.001,0.331
					c0.041,0.055-0.013,0.109-0.069,0.164l-0.152,0.167c-0.197,0.227-0.427,0.461-0.674,0.71c-0.271-0.219-0.521-0.451-0.722-0.693
					l-0.155-0.185c-0.057-0.062-0.108-0.125-0.066-0.186c0.017-0.124,0.009-0.247,0.016-0.371c0.019-0.494,0.055-0.987,0.113-1.477
					c0.058-0.49,0.137-0.977,0.235-1.46c0.104-0.492,0.21-0.947,0.379-1.472l1.499,0.949l-0.532,0.517
					c-0.171,0.18-0.37,0.329-0.518,0.534c-0.257,0.09-0.545,0.148-0.823,0.216C25.688,37.177,25.393,37.227,25.082,37.263z"/>
			</g>
			<g>
				<path fill="#9E1915" d="M32.925,28.875c0.149,0.236,0.399,0.405,0.975,0.794c0.269,0.193,0.652,0.485,0.925,0.97
					c0.274,0.487,0.309,1.012,0.268,1.396c-0.096,0.761-0.379,1.297-0.632,1.785c-0.261,0.484-0.538,0.933-0.819,1.375
					c-1.138,1.758-2.354,3.412-3.601,5.053c0.823-1.881,1.619-3.784,2.287-5.691c0.308-0.92,0.68-2.004,0.576-2.58
					c-0.031-0.125-0.08-0.126-0.086-0.072c-0.002,0.049-0.043,0.029-0.213-0.032c-0.31-0.116-1.021-0.344-1.62-0.816L32.925,28.875z
					"/>
			</g>
			<path fill="none" stroke="#9E1915" stroke-width="2.5541" stroke-miterlimit="10" d="M21.859,44.925c0,0-0.608,8.392,0.486,9.852
				"/>
			<g>
				<path fill="#9E1915" d="M20.616,44.86c1.341-0.313,2.678-0.464,3.828-0.783c0.27-0.065,0.567-0.159,0.679-0.247
					c0.188-0.071,0.191-0.109,0.354-0.186l0.401-0.218l1.746-0.86c0.597-0.303,1.216-0.559,1.867-0.802
					c0.659-0.244,1.309-0.485,2.153-0.668c0.215-0.042,0.451-0.069,0.728-0.086c0.3-0.004,0.586-0.035,1.169,0.112l0.208,0.062
					c0.079,0.027,0.19,0.077,0.282,0.121c0.19,0.096,0.36,0.182,0.608,0.404c0.223,0.197,0.413,0.42,0.569,0.728
					c0.076,0.147,0.142,0.301,0.189,0.454c0.034,0.126,0.062,0.257,0.08,0.39c0.018,0.134,0.026,0.268,0.028,0.398l-0.002,0.113
					l-0.003,0.135l-0.017,0.325c-0.053,0.742-0.104,1.389-0.196,2.05c-0.216,1.302-0.396,2.583-0.644,3.842
					c-0.256,1.261-0.524,2.509-0.624,3.48c-0.124,2.453-0.167,5.135-0.632,7.819l-0.252,0.043c-0.461-2.561-0.91-5.117-1.127-7.728
					c-0.115-1.338,0.119-2.633,0.255-3.923l0.498-3.865c0.081-0.642,0.173-1.286,0.229-1.922c0.012-0.14,0.031-0.353,0.021-0.434
					c-0.006-0.052-0.025-0.077-0.147-0.117c-0.233-0.065-0.564-0.033-0.867,0.008c-1.245,0.201-2.483,0.623-3.713,1.021
					l-1.851,0.616c-0.31,0.099-0.628,0.2-0.954,0.271c-0.346,0.069-0.675,0.087-1.008,0.094c-1.323-0.003-2.614-0.183-3.902-0.398
					L20.616,44.86z"/>
			</g>
			<g>
				<path fill="#9E1915" d="M20.981,48.48c1.161-0.013,2.324-0.027,3.46-0.142c0.562-0.062,1.133-0.124,1.632-0.265
					c0.483-0.162,1.104-0.363,1.645-0.526c1.127-0.31,2.213-0.816,3.382-0.949c1.165-0.106,2.37-0.172,3.614,0.29l-0.002,0.183
					c-1.071,0.598-2.144,1.039-3.257,1.35c-1.107,0.312-2.293,0.287-3.43,0.486l-1.743,0.269c-0.644,0.069-1.238,0.051-1.834,0.004
					c-1.184-0.103-2.34-0.269-3.486-0.516L20.981,48.48z"/>
			</g>
			<g>
				<path fill="#9E1915" d="M20.962,52.955c1.065-0.092,2.129-0.18,3.187-0.296c1.046-0.129,2.132-0.245,3.077-0.496l1.498-0.542
					c0.51-0.18,1.006-0.423,1.526-0.573c0.521-0.152,1.074-0.172,1.638-0.144c0.559,0.044,1.153,0.121,1.722,0.457l-0.002,0.184
					c-0.98,0.668-1.906,1.146-2.948,1.343c-0.52,0.08-1.062,0.081-1.589,0.155l-1.606,0.23c-1.15,0.152-2.207,0.112-3.29,0.077
					c-1.074-0.043-2.145-0.106-3.213-0.214L20.962,52.955z"/>
			</g>
			<g>
				<path fill="#9E1915" d="M16.63,51.454c0.722,1.111,1.2,2.256,1.618,3.404c0.408,1.146,0.729,2.319,1.01,3.433
					c0.073,0.298,0.125,0.495,0.223,0.811l0.227,0.9c0.134,0.6,0.25,1.202,0.329,1.813c0.158,1.225,0.234,2.471,0.062,3.785
					c-0.849-1.02-1.452-2.107-1.985-3.214c-0.267-0.553-0.499-1.115-0.721-1.677l-0.313-0.841c-0.094-0.263-0.214-0.647-0.29-0.939
					c-0.312-1.244-0.459-2.458-0.505-3.7C16.249,53.99,16.308,52.74,16.63,51.454z"/>
			</g>
			<g>
				<path fill="#9E1915" d="M11.156,57.513c0.907,0.681,1.95,1.161,2.998,1.358c0.524,0.088,1.056,0.107,1.548,0.029
					c0.483-0.095,1.055-0.259,1.589-0.406c2.181-0.592,4.381-1.194,6.61-1.678c4.46-0.974,9.009-1.724,13.764-1.482
					c1.188,0.095,2.394,0.259,3.607,0.623c1.192,0.37,2.486,0.925,3.467,2.072c0.997,1.15,1.299,2.777,1.058,4.132
					c-0.109,0.715-0.434,1.485-0.971,2.069c-0.539,0.588-1.222,0.942-1.866,1.154c-1.307,0.408-2.541,0.404-3.726,0.307
					c-1.186-0.112-2.326-0.327-3.448-0.587c-1.118-0.278-2.218-0.584-3.304-0.925c-1.091-0.321-2.152-0.726-3.266-0.951
					c1.146-0.043,2.287,0.133,3.413,0.258c1.128,0.135,2.245,0.288,3.36,0.381c1.111,0.107,2.221,0.183,3.3,0.15
					c1.068-0.036,2.144-0.139,2.977-0.502c0.849-0.378,1.224-0.894,1.316-1.686c0.085-0.872-0.137-1.666-0.671-2.217
					c-0.527-0.567-1.38-1-2.342-1.263c-0.96-0.272-2.016-0.4-3.082-0.472c-2.142-0.167-4.358-0.042-6.569,0.138
					c-2.219,0.161-4.437,0.473-6.669,0.753l-6.717,0.945c-0.577,0.064-1.115,0.141-1.758,0.166
					c-0.637-0.002-1.245-0.117-1.812-0.334C12.834,59.122,11.885,58.39,11.156,57.513z"/>
			</g>
			<g>
				<path fill="#9E1915" d="M26.932,44.134c-0.336,0.746-0.322,1.554-0.367,2.346c-0.036,0.795-0.027,1.594-0.032,2.392
					c0.017,1.596,0.019,3.191,0.062,4.787c0.012,1.595,0.058,3.188,0.105,4.776l0.114,2.414l0.021,1.225l0.001,0.15l0.001,0.071
					c0,0.009,0.001,0.022-0.002,0.021l-0.013-0.023c-0.081-0.021,0.157,0.003-0.228-0.09c-0.173,0.096-0.105,0.102-0.141,0.157
					c-0.002,0.021,0.001,0.02,0.002,0.018c0.016-0.078,0.02-0.192,0.027-0.291l0.058-0.619l0.217,0.586
					c0.032,0.103,0.062,0.189,0.09,0.314c0.001,0.01,0.004,0.021,0.001,0.055c-0.035,0.059,0.03,0.068-0.145,0.165
					c-0.389-0.094-0.149-0.075-0.232-0.098l-0.021-0.042l-0.021-0.052l-0.032-0.078l-0.061-0.146
					c-0.149-0.39-0.271-0.78-0.405-1.169c-0.236-0.779-0.482-1.565-0.645-2.39c-0.347-1.63-0.474-3.277-0.518-4.924
					c-0.007-1.646,0.068-3.296,0.348-4.932c0.13-0.818,0.319-1.632,0.57-2.435C25.975,45.551,26.244,44.671,26.932,44.134z"/>
			</g>
			<g>
				<path fill="#9E1915" d="M21.706,62.301c0.14,0.205,0.254,0.414,0.374,0.623l-0.489-0.254c1.437-0.904,2.949-1.66,4.484-2.433
					c0.756-0.42,1.562-0.701,2.396-0.831c0.828-0.144,1.667-0.236,2.6-0.154l0.066,0.17c-0.625,0.7-1.364,1.176-2.121,1.575
					c-0.754,0.413-1.538,0.661-2.354,0.823c-1.61,0.391-3.169,0.98-4.777,1.48l-0.561,0.174l0.071-0.429
					c0.039-0.237,0.073-0.475,0.132-0.714L21.706,62.301z"/>
			</g>
		</g>
		<g>
			<g>
				<path fill="#010202" d="M23.307,3.639c1.228,0.775,2.032,1.753,2.695,2.794c0.327,0.522,0.609,1.066,0.837,1.632
					c0.246,0.561,0.406,1.154,0.448,1.785c0.086,1.27-0.279,2.631-0.229,3.877c0.005,0.316,0.021,0.633,0.04,0.961
					c0.012,0.352,0.014,0.641,0.053,0.925c0.061,0.576,0.254,1.134,0.503,1.621c0.543,0.99,1.14,1.597,1.681,2.062
					c0.592,0.451,1.324,0.712,2.146,1.109c1.653,0.841,3.798,1.575,6.129,2.985v0.438c-1.19,0.747-2.445,1.099-3.756,1.292
					c-1.308,0.163-2.683,0.096-4.066-0.356c-1.372-0.451-2.73-1.452-3.646-2.836c-0.455-0.683-0.812-1.443-0.93-2.223
					c-0.145-0.773-0.067-1.533,0.059-2.218c0.124-0.688,0.31-1.314,0.407-1.919c0.117-0.635,0.145-1.083-0.019-1.648
					c-0.289-1.095-1.273-2.021-1.866-3.014c-0.301-0.5-0.505-1.028-0.64-1.588C23,8.768,22.886,8.198,22.804,7.612
					c-0.155-1.176-0.212-2.398,0.101-3.802L23.307,3.639z"/>
			</g>
			<g>
				<path fill="#010202" d="M13.973,25.034c2.909-1.021,5.295-2.536,7.815-4.123c1.251-0.787,2.614-1.448,3.977-2.149
					c1.362-0.697,2.652-1.511,3.846-2.459c1.211-0.924,2.333-1.978,3.521-2.982c1.183-1.018,2.486-1.9,3.903-2.646
					c1.41-0.746,2.951-1.39,4.628-1.646c0.75-0.108,1.518-0.094,2.29-0.033c0.386,0.025,0.776,0.083,1.167,0.156
					c0.191,0.033,0.397,0.078,0.566,0.124c0.018,0.006,0.039,0.012,0.038,0.022c-0.015,0.027,0.026-0.033-0.122,0.119
					c-0.041-0.002-0.15,0.368,0.01,0.474C45.721,10,45.74,9.978,45.772,9.997c0.039,0.009,0.048,0.006,0.056,0.005
					c0.02-0.023-0.044-0.051-0.081-0.073l-0.282-0.147l-0.021-0.255c0.093-0.062,0.184-0.131,0.286-0.182
					c0.059-0.024,0.091-0.055,0.204-0.067c0.02,0,0.04-0.001,0.09,0.013c0.038,0.021,0.063,0.002,0.175,0.114
					c0.165,0.111,0.054,0.488,0.009,0.489c-0.167,0.168-0.148,0.117-0.184,0.153l-0.099,0.065c-0.197,0.146-0.364,0.262-0.547,0.368
					c-0.355,0.217-0.714,0.405-1.077,0.559c-0.726,0.314-1.459,0.569-2.211,0.696c-1.329,0.222-2.681,0.605-4.021,1.147
					c-1.335,0.547-2.654,1.213-4.024,1.845c-1.359,0.65-2.716,1.36-3.963,2.225c-1.265,0.841-2.412,1.844-3.515,2.925
					c-1.104,1.077-2.234,2.156-3.561,2.981c-1.319,0.829-2.753,1.523-4.273,2.009c-1.514,0.479-3.171,0.72-4.738,0.42L13.973,25.034
					z"/>
			</g>
		</g>
	</g>
</g>
<g>
	<path d="M53.046,2.571v0.696l-3.394,7.1H48.56l3.382-6.896V3.446h-3.813V2.571H53.046z"/>
</g>
</svg>
