<?xml version="1.0" encoding="utf-8"?>
<!-- Generator: Adobe Illustrator 15.0.0, SVG Export Plug-In . SVG Version: 6.00 Build 0)  -->
<!DOCTYPE svg PUBLIC "-//W3C//DTD SVG 1.1//EN" "http://www.w3.org/Graphics/SVG/1.1/DTD/svg11.dtd">
<svg version="1.1" id="Manzu" xmlns="http://www.w3.org/2000/svg" xmlns:xlink="http://www.w3.org/1999/xlink" x="0px" y="0px"
	 width="54.225px" height="74.064px" viewBox="0 0 54.225 74.064" enable-background="new 0 0 54.225 74.064" xml:space="preserve">
<g id="_x38_man_1_">
	
		<rect x="0.183" y="0.183" fill="#F6F5F1" stroke="#010202" stroke-width="0.3649" stroke-miterlimit="10" width="53.857" height="73.7"/>
	<g id="_x38_man">
		<g id="MAN_6_">
			<g>
				<path fill="#9E1915" d="M13.238,39.803c2.946,0.352,5.696,1.117,8.095,0.986c1.324-0.04,2.838-0.059,4.23-0.388
					c1.402-0.323,2.737-0.885,4.066-1.51c1.326-0.638,2.699-1.195,4.153-1.551c1.446-0.386,2.958-0.649,4.446-0.688
					c2.976-0.027,5.92,0.383,8.718,1.496l-0.029,0.254c-2.932,0.525-5.764,0.715-8.543,0.975c-1.388,0.114-2.749,0.153-4.128,0.333
					c-1.374,0.199-2.79,0.376-4.232,0.526c-1.441,0.165-2.858,0.459-4.218,0.956c-1.368,0.479-2.625,1.292-4.148,1.704
					c-0.786,0.214-1.666,0.234-2.445,0.101c-0.79-0.115-1.534-0.331-2.244-0.603c-1.409-0.569-2.723-1.298-3.832-2.36L13.238,39.803
					z"/>
			</g>
			<g>
				<path fill="#9E1915" d="M25.102,37.242c0.045-0.31,0.104-0.604,0.173-0.888c0.075-0.276,0.142-0.562,0.24-0.817
					c0.208-0.141,0.363-0.334,0.548-0.5l0.532-0.518l2.633-2.557l-1.134,3.506c-0.118,0.366-0.231,0.823-0.317,1.247
					c-0.089,0.433-0.16,0.871-0.212,1.311c-0.053,0.439-0.086,0.88-0.103,1.321c0.001,0.11-0.015,0.22,0.001,0.331
					c0.041,0.055-0.013,0.11-0.068,0.165l-0.153,0.167c-0.197,0.226-0.426,0.46-0.673,0.709c-0.271-0.218-0.521-0.451-0.722-0.693
					l-0.155-0.184c-0.058-0.062-0.109-0.125-0.067-0.187c0.018-0.123,0.009-0.246,0.017-0.37c0.018-0.494,0.055-0.987,0.112-1.478
					c0.059-0.49,0.138-0.976,0.235-1.46c0.104-0.492,0.21-0.947,0.379-1.471l1.499,0.949l-0.532,0.517
					c-0.171,0.179-0.37,0.329-0.517,0.534c-0.257,0.09-0.545,0.147-0.824,0.216C25.708,37.156,25.411,37.207,25.102,37.242z"/>
			</g>
			<g>
				<path fill="#9E1915" d="M32.944,28.855c0.148,0.237,0.398,0.406,0.974,0.794c0.27,0.194,0.653,0.486,0.925,0.971
					c0.274,0.486,0.31,1.012,0.269,1.395c-0.096,0.761-0.379,1.298-0.632,1.786c-0.263,0.484-0.539,0.932-0.821,1.375
					c-1.137,1.757-2.354,3.412-3.6,5.052c0.822-1.881,1.618-3.784,2.288-5.69c0.308-0.921,0.68-2.006,0.575-2.58
					c-0.029-0.125-0.08-0.126-0.086-0.072c-0.002,0.048-0.043,0.029-0.212-0.033c-0.309-0.117-1.022-0.344-1.621-0.816
					L32.944,28.855z"/>
			</g>
			<path fill="none" stroke="#9E1915" stroke-width="2.5541" stroke-miterlimit="10" d="M21.879,44.904c0,0-0.607,8.393,0.486,9.853
				"/>
			<g>
				<path fill="#9E1915" d="M20.636,44.839c1.341-0.314,2.678-0.464,3.827-0.784c0.271-0.065,0.567-0.159,0.681-0.247
					c0.187-0.071,0.189-0.109,0.353-0.185l0.402-0.219l1.746-0.859c0.596-0.303,1.216-0.56,1.867-0.802
					c0.658-0.244,1.309-0.485,2.152-0.668c0.215-0.042,0.451-0.069,0.729-0.087c0.3-0.004,0.586-0.034,1.169,0.112l0.208,0.062
					c0.079,0.026,0.189,0.076,0.282,0.121c0.189,0.096,0.359,0.182,0.607,0.403c0.223,0.198,0.413,0.42,0.57,0.729
					c0.076,0.146,0.141,0.301,0.188,0.454c0.034,0.126,0.062,0.257,0.08,0.39c0.019,0.133,0.027,0.267,0.028,0.398l-0.001,0.112
					l-0.003,0.135l-0.018,0.325c-0.053,0.742-0.104,1.39-0.195,2.05c-0.216,1.303-0.396,2.583-0.645,3.843
					c-0.257,1.261-0.523,2.509-0.624,3.479c-0.124,2.453-0.166,5.135-0.632,7.82l-0.252,0.043c-0.461-2.562-0.909-5.118-1.127-7.729
					c-0.115-1.338,0.12-2.633,0.255-3.923l0.498-3.864c0.081-0.643,0.173-1.286,0.229-1.923c0.012-0.14,0.03-0.352,0.021-0.433
					c-0.005-0.052-0.025-0.078-0.146-0.118c-0.233-0.064-0.565-0.033-0.867,0.008c-1.245,0.201-2.484,0.623-3.713,1.022
					l-1.852,0.616c-0.309,0.098-0.628,0.199-0.954,0.271c-0.346,0.07-0.675,0.087-1.008,0.094c-1.323-0.003-2.614-0.183-3.902-0.397
					L20.636,44.839z"/>
			</g>
			<g>
				<path fill="#9E1915" d="M21.001,48.459c1.161-0.014,2.324-0.028,3.46-0.143c0.563-0.061,1.134-0.124,1.632-0.264
					c0.483-0.163,1.104-0.364,1.646-0.527c1.126-0.309,2.212-0.815,3.381-0.948c1.165-0.107,2.37-0.173,3.615,0.29l-0.002,0.183
					c-1.072,0.596-2.145,1.038-3.257,1.348c-1.108,0.314-2.293,0.288-3.431,0.488l-1.742,0.268
					c-0.645,0.069-1.238,0.052-1.835,0.005c-1.184-0.104-2.34-0.27-3.485-0.517L21.001,48.459z"/>
			</g>
			<g>
				<path fill="#9E1915" d="M20.981,52.934c1.064-0.091,2.129-0.179,3.186-0.296c1.046-0.128,2.132-0.245,3.077-0.496l1.498-0.542
					c0.51-0.179,1.006-0.422,1.527-0.573c0.521-0.152,1.073-0.172,1.637-0.143c0.56,0.044,1.154,0.121,1.722,0.457l-0.002,0.183
					c-0.979,0.668-1.905,1.146-2.947,1.344c-0.521,0.079-1.062,0.08-1.59,0.154l-1.605,0.231c-1.151,0.151-2.207,0.111-3.29,0.077
					c-1.075-0.043-2.146-0.107-3.213-0.215L20.981,52.934z"/>
			</g>
			<g>
				<path fill="#9E1915" d="M16.649,51.434c0.721,1.112,1.2,2.256,1.618,3.405c0.408,1.146,0.728,2.319,1.01,3.432
					c0.073,0.298,0.125,0.495,0.222,0.812l0.228,0.899c0.134,0.601,0.25,1.202,0.329,1.814c0.157,1.224,0.233,2.47,0.061,3.785
					c-0.848-1.021-1.452-2.108-1.985-3.214c-0.267-0.554-0.499-1.115-0.721-1.678l-0.312-0.841c-0.095-0.262-0.215-0.646-0.29-0.938
					c-0.312-1.244-0.459-2.458-0.506-3.7C16.269,53.97,16.327,52.72,16.649,51.434z"/>
			</g>
			<g>
				<path fill="#9E1915" d="M11.176,57.492c0.907,0.681,1.95,1.16,2.998,1.357c0.524,0.088,1.057,0.108,1.549,0.03
					c0.483-0.095,1.055-0.259,1.589-0.407c2.18-0.591,4.381-1.194,6.609-1.677c4.46-0.975,9.01-1.725,13.765-1.483
					c1.188,0.096,2.393,0.259,3.606,0.623c1.193,0.37,2.487,0.925,3.467,2.073c0.997,1.15,1.3,2.777,1.059,4.131
					c-0.11,0.715-0.435,1.486-0.971,2.07c-0.539,0.588-1.223,0.941-1.866,1.154c-1.308,0.408-2.541,0.404-3.727,0.307
					c-1.185-0.113-2.325-0.327-3.447-0.587c-1.118-0.279-2.219-0.584-3.305-0.925c-1.091-0.32-2.151-0.727-3.265-0.951
					c1.146-0.043,2.287,0.133,3.413,0.258c1.128,0.134,2.245,0.288,3.359,0.38c1.111,0.108,2.222,0.183,3.301,0.151
					c1.067-0.036,2.143-0.139,2.976-0.502c0.848-0.378,1.224-0.894,1.317-1.687c0.085-0.872-0.137-1.666-0.671-2.216
					c-0.527-0.568-1.381-1-2.343-1.263c-0.96-0.273-2.016-0.401-3.082-0.473c-2.142-0.167-4.357-0.042-6.568,0.139
					c-2.219,0.16-4.438,0.473-6.669,0.753l-6.717,0.944c-0.577,0.065-1.115,0.142-1.759,0.166c-0.637-0.002-1.245-0.116-1.812-0.334
					C12.854,59.101,11.904,58.369,11.176,57.492z"/>
			</g>
			<g>
				<path fill="#9E1915" d="M26.951,44.114c-0.336,0.746-0.321,1.555-0.366,2.348c-0.037,0.794-0.026,1.594-0.033,2.391
					c0.018,1.595,0.021,3.191,0.062,4.786c0.012,1.595,0.058,3.189,0.106,4.777l0.113,2.414l0.021,1.225l0.001,0.15l0.001,0.07
					c0,0.01,0.002,0.023-0.002,0.021l-0.014-0.024c-0.08-0.019,0.157,0.001-0.229-0.09c-0.17,0.096-0.105,0.103-0.139,0.158
					c-0.002,0.021,0.001,0.019,0.001,0.017c0.016-0.078,0.02-0.191,0.027-0.291l0.059-0.619l0.217,0.587
					c0.032,0.103,0.062,0.188,0.089,0.313c0.001,0.011,0.004,0.021,0.001,0.055c-0.035,0.059,0.03,0.07-0.143,0.165
					c-0.391-0.091-0.152-0.076-0.234-0.096l-0.02-0.042l-0.022-0.052l-0.032-0.078l-0.06-0.147c-0.15-0.389-0.272-0.779-0.406-1.169
					c-0.235-0.779-0.481-1.564-0.644-2.39c-0.348-1.63-0.474-3.278-0.519-4.924c-0.007-1.646,0.07-3.295,0.35-4.933
					c0.129-0.817,0.317-1.632,0.568-2.433C25.995,45.531,26.264,44.651,26.951,44.114z"/>
			</g>
			<g>
				<path fill="#9E1915" d="M21.726,62.281c0.139,0.205,0.254,0.414,0.374,0.623l-0.489-0.254c1.436-0.903,2.949-1.66,4.484-2.432
					c0.756-0.42,1.562-0.702,2.395-0.831c0.829-0.144,1.667-0.237,2.6-0.155l0.066,0.17c-0.625,0.7-1.365,1.177-2.121,1.575
					c-0.754,0.413-1.538,0.661-2.354,0.824c-1.61,0.39-3.169,0.979-4.777,1.479l-0.562,0.175l0.071-0.43
					c0.039-0.236,0.074-0.474,0.132-0.714L21.726,62.281z"/>
			</g>
		</g>
		<g>
			<g>
				<path fill="#010202" d="M10.918,27.038c0.971-0.948,1.979-1.815,2.975-2.694l1.512-1.28l1.531-1.222
					c0.51-0.404,0.972-0.892,1.439-1.355c0.474-0.456,1.013-0.78,1.628-0.967c1.223-0.371,2.628-0.475,4.212-0.136l0.478,0.183
					c0.058,0.679-0.116,1.067-0.235,1.515c-0.152,0.403-0.313,0.792-0.511,1.128c-0.387,0.676-0.841,1.237-1.343,1.708
					c-0.501,0.473-1.087,0.793-1.743,0.975c-0.661,0.174-1.335,0.314-1.962,0.534l-1.891,0.631l-1.925,0.546
					c-1.298,0.33-2.592,0.659-3.933,0.891L10.918,27.038z"/>
			</g>
			<g>
				<path fill="#010202" d="M47.959,23.578c-2.441-0.453-4.839-1.047-7.258-1.631c-1.2-0.318-2.398-0.648-3.606-1.021
					c-0.602-0.198-1.201-0.402-1.821-0.646c-0.312-0.125-0.624-0.252-0.977-0.432c-0.172-0.089-0.377-0.203-0.597-0.364
					l-0.433-0.317c-2.039-1.602-4.148-2.909-5.681-4.888c-1.543-1.942-2.937-4.025-3.794-6.627l0.312-0.307
					c2.582,0.903,4.643,2.308,6.574,3.834c0.959,0.771,1.813,1.64,2.586,2.589c0.762,0.948,1.526,1.94,2.314,2.769
					c0.402,0.569,1.607,1.148,2.631,1.701c1.061,0.57,2.152,1.119,3.252,1.657c2.185,1.125,4.422,2.154,6.634,3.268L47.959,23.578z"
					/>
			</g>
		</g>
	</g>
</g>
<g>
	<path d="M49.591,6.264c-0.875-0.408-1.247-1.08-1.247-1.751c0-1.235,1.044-2.075,2.423-2.075c1.511,0,2.278,0.936,2.278,1.919
		c0,0.66-0.335,1.379-1.295,1.823v0.036c0.972,0.384,1.571,1.08,1.571,2.015c0,1.367-1.163,2.267-2.65,2.267
		c-1.632,0-2.615-0.959-2.615-2.099c0-0.983,0.588-1.691,1.548-2.099L49.591,6.264z M52.254,8.339c0-0.936-0.66-1.403-1.715-1.703
		c-0.912,0.264-1.403,0.875-1.403,1.619c-0.036,0.78,0.563,1.475,1.559,1.475C51.641,9.73,52.254,9.143,52.254,8.339z M49.351,4.441
		c-0.013,0.78,0.588,1.199,1.487,1.439c0.671-0.228,1.188-0.708,1.188-1.416c0-0.624-0.372-1.271-1.319-1.271
		C49.831,3.194,49.351,3.77,49.351,4.441z"/>
</g>
</svg>
