<?xml version="1.0" encoding="utf-8"?>
<!-- Generator: Adobe Illustrator 15.0.0, SVG Export Plug-In . SVG Version: 6.00 Build 0)  -->
<!DOCTYPE svg PUBLIC "-//W3C//DTD SVG 1.1//EN" "http://www.w3.org/Graphics/SVG/1.1/DTD/svg11.dtd">
<svg version="1.1" id="Manzu" xmlns="http://www.w3.org/2000/svg" xmlns:xlink="http://www.w3.org/1999/xlink" x="0px" y="0px"
	 width="54.223px" height="74.064px" viewBox="0 0 54.223 74.064" enable-background="new 0 0 54.223 74.064" xml:space="preserve">
<g id="_x39_man">
	
		<rect x="0.183" y="0.183" fill="#F6F5F1" stroke="#010202" stroke-width="0.3649" stroke-miterlimit="10" width="53.857" height="73.7"/>
	<g>
		<g id="MAN_8_">
			<g>
				<path fill="#9E1915" d="M13.23,39.802c2.946,0.352,5.696,1.117,8.097,0.986c1.322-0.04,2.837-0.059,4.229-0.387
					c1.403-0.324,2.738-0.885,4.067-1.511c1.326-0.638,2.698-1.195,4.152-1.551c1.446-0.386,2.959-0.649,4.446-0.688
					c2.976-0.027,5.92,0.382,8.718,1.496l-0.028,0.254c-2.933,0.525-5.765,0.714-8.543,0.976c-1.39,0.113-2.749,0.152-4.129,0.333
					c-1.373,0.199-2.789,0.376-4.232,0.526c-1.441,0.165-2.858,0.46-4.217,0.956c-1.369,0.479-2.625,1.291-4.149,1.703
					c-0.785,0.214-1.666,0.234-2.445,0.101c-0.79-0.115-1.532-0.331-2.243-0.603c-1.409-0.57-2.724-1.298-3.832-2.36L13.23,39.802z"
					/>
			</g>
			<g>
				<path fill="#9E1915" d="M25.094,37.241c0.045-0.31,0.104-0.604,0.173-0.888c0.075-0.276,0.143-0.562,0.24-0.817
					c0.208-0.141,0.364-0.334,0.548-0.5l0.532-0.518l2.633-2.557l-1.134,3.506c-0.118,0.366-0.231,0.823-0.317,1.247
					c-0.089,0.433-0.159,0.871-0.212,1.311s-0.086,0.88-0.102,1.321c0.001,0.11-0.016,0.22,0.001,0.331
					c0.041,0.055-0.014,0.11-0.069,0.165l-0.153,0.167c-0.196,0.226-0.426,0.46-0.673,0.709c-0.271-0.218-0.521-0.451-0.722-0.693
					l-0.155-0.184c-0.057-0.062-0.108-0.125-0.066-0.187c0.017-0.124,0.009-0.247,0.016-0.37c0.018-0.494,0.055-0.987,0.113-1.478
					c0.058-0.49,0.137-0.976,0.234-1.46c0.104-0.492,0.21-0.947,0.379-1.471l1.499,0.949l-0.531,0.517
					c-0.172,0.179-0.37,0.329-0.518,0.534c-0.257,0.09-0.545,0.147-0.824,0.216C25.7,37.155,25.404,37.205,25.094,37.241z"/>
			</g>
			<g>
				<path fill="#9E1915" d="M32.937,28.854c0.149,0.237,0.399,0.406,0.975,0.794c0.269,0.194,0.652,0.486,0.924,0.971
					c0.274,0.486,0.31,1.012,0.269,1.395c-0.095,0.761-0.379,1.298-0.632,1.786c-0.261,0.484-0.538,0.932-0.82,1.375
					c-1.137,1.757-2.354,3.412-3.6,5.052c0.823-1.881,1.619-3.784,2.287-5.69c0.308-0.921,0.68-2.005,0.576-2.58
					c-0.031-0.124-0.08-0.126-0.086-0.072c-0.002,0.048-0.043,0.029-0.213-0.033c-0.31-0.116-1.021-0.343-1.62-0.815L32.937,28.854z
					"/>
			</g>
			<path fill="none" stroke="#9E1915" stroke-width="2.5541" stroke-miterlimit="10" d="M21.871,44.903c0,0-0.607,8.393,0.485,9.853
				"/>
			<g>
				<path fill="#9E1915" d="M20.628,44.838c1.341-0.314,2.678-0.464,3.828-0.784c0.27-0.065,0.566-0.159,0.679-0.247
					c0.188-0.071,0.191-0.109,0.354-0.185l0.402-0.219l1.746-0.859c0.596-0.304,1.216-0.56,1.867-0.802
					c0.659-0.244,1.309-0.485,2.153-0.669c0.215-0.042,0.45-0.068,0.728-0.086c0.3-0.004,0.586-0.034,1.169,0.112l0.208,0.062
					c0.079,0.026,0.19,0.076,0.282,0.121c0.189,0.096,0.359,0.182,0.607,0.403c0.224,0.198,0.413,0.42,0.57,0.729
					c0.076,0.146,0.141,0.301,0.189,0.454c0.033,0.126,0.062,0.257,0.08,0.39c0.018,0.133,0.026,0.267,0.028,0.397v0.113
					l-0.003,0.135L35.5,44.23c-0.054,0.742-0.104,1.39-0.196,2.05c-0.216,1.303-0.396,2.583-0.644,3.843
					c-0.257,1.261-0.524,2.51-0.624,3.479c-0.124,2.453-0.167,5.135-0.633,7.82l-0.252,0.043c-0.461-2.562-0.909-5.118-1.127-7.729
					c-0.114-1.338,0.12-2.633,0.255-3.923l0.498-3.865c0.081-0.642,0.174-1.285,0.229-1.922c0.012-0.139,0.031-0.352,0.021-0.433
					c-0.005-0.052-0.024-0.078-0.146-0.118c-0.233-0.064-0.565-0.033-0.867,0.008c-1.245,0.201-2.484,0.623-3.713,1.022
					l-1.851,0.616c-0.31,0.098-0.629,0.199-0.954,0.271c-0.347,0.07-0.676,0.087-1.009,0.094c-1.322-0.003-2.613-0.183-3.901-0.397
					L20.628,44.838z"/>
			</g>
			<g>
				<path fill="#9E1915" d="M20.993,48.458c1.16-0.014,2.323-0.028,3.46-0.143c0.562-0.061,1.133-0.124,1.632-0.264
					c0.482-0.163,1.104-0.364,1.645-0.527c1.126-0.309,2.212-0.815,3.381-0.948c1.165-0.107,2.37-0.173,3.615,0.29l-0.002,0.183
					c-1.072,0.597-2.144,1.039-3.257,1.349c-1.108,0.313-2.293,0.287-3.43,0.487l-1.743,0.268c-0.645,0.069-1.238,0.052-1.834,0.004
					c-1.185-0.103-2.34-0.269-3.486-0.516L20.993,48.458z"/>
			</g>
			<g>
				<path fill="#9E1915" d="M20.974,52.933c1.065-0.091,2.129-0.179,3.187-0.296c1.046-0.128,2.132-0.245,3.076-0.496l1.498-0.542
					c0.511-0.179,1.007-0.422,1.527-0.573c0.521-0.152,1.074-0.172,1.637-0.143c0.56,0.044,1.154,0.121,1.723,0.457l-0.002,0.183
					c-0.98,0.669-1.906,1.146-2.948,1.343c-0.521,0.08-1.062,0.082-1.589,0.155l-1.606,0.231c-1.15,0.151-2.207,0.111-3.29,0.077
					c-1.075-0.043-2.145-0.107-3.213-0.215L20.974,52.933z"/>
			</g>
			<g>
				<path fill="#9E1915" d="M16.642,51.432c0.721,1.112,1.2,2.256,1.618,3.405c0.408,1.146,0.728,2.318,1.01,3.433
					c0.073,0.297,0.125,0.494,0.223,0.811l0.227,0.899c0.134,0.601,0.25,1.202,0.329,1.814c0.158,1.224,0.234,2.47,0.061,3.785
					c-0.848-1.021-1.451-2.108-1.984-3.215c-0.268-0.553-0.499-1.114-0.722-1.677l-0.312-0.841c-0.094-0.262-0.214-0.646-0.29-0.938
					c-0.312-1.244-0.459-2.458-0.505-3.7C16.261,53.968,16.319,52.718,16.642,51.432z"/>
			</g>
			<g>
				<path fill="#9E1915" d="M11.168,57.491c0.908,0.681,1.951,1.16,2.998,1.356c0.523,0.088,1.056,0.108,1.549,0.03
					c0.483-0.095,1.054-0.259,1.588-0.407c2.18-0.591,4.381-1.194,6.611-1.677c4.46-0.975,9.009-1.725,13.763-1.483
					c1.189,0.095,2.393,0.259,3.607,0.623c1.192,0.369,2.486,0.925,3.468,2.073c0.996,1.149,1.298,2.777,1.057,4.131
					c-0.109,0.715-0.434,1.487-0.971,2.07c-0.539,0.588-1.222,0.941-1.866,1.153c-1.307,0.408-2.541,0.404-3.726,0.307
					c-1.186-0.113-2.326-0.327-3.448-0.587c-1.118-0.279-2.218-0.584-3.304-0.926c-1.092-0.319-2.152-0.726-3.266-0.95
					c1.146-0.043,2.287,0.133,3.413,0.258c1.128,0.134,2.245,0.288,3.36,0.38c1.11,0.109,2.221,0.183,3.3,0.151
					c1.068-0.036,2.143-0.139,2.976-0.502c0.85-0.379,1.225-0.894,1.317-1.687c0.085-0.872-0.137-1.666-0.67-2.216
					c-0.527-0.568-1.381-1-2.342-1.263c-0.961-0.273-2.018-0.401-3.082-0.473c-2.144-0.167-4.359-0.042-6.57,0.139
					c-2.219,0.16-4.437,0.473-6.668,0.753l-6.718,0.944c-0.577,0.065-1.114,0.143-1.757,0.166c-0.639-0.002-1.246-0.118-1.812-0.334
					C12.847,59.1,11.896,58.368,11.168,57.491z"/>
			</g>
			<g>
				<path fill="#9E1915" d="M26.943,44.112c-0.336,0.746-0.321,1.555-0.365,2.348c-0.037,0.794-0.027,1.594-0.033,2.391
					c0.017,1.595,0.02,3.191,0.062,4.786c0.013,1.595,0.059,3.189,0.106,4.777l0.114,2.414l0.021,1.225l0.001,0.15l0.001,0.07
					c0,0.009,0.001,0.023-0.002,0.021l-0.013-0.024c-0.081-0.019,0.157,0.001-0.229-0.09c-0.17,0.096-0.104,0.102-0.139,0.158
					c-0.002,0.021,0.001,0.019,0.002,0.017c0.015-0.078,0.019-0.191,0.027-0.291l0.058-0.619l0.217,0.586
					c0.032,0.104,0.062,0.189,0.089,0.314c0.001,0.01,0.004,0.021,0.001,0.055c-0.034,0.059,0.03,0.07-0.143,0.165
					c-0.39-0.091-0.151-0.076-0.234-0.096l-0.021-0.042l-0.021-0.052l-0.031-0.078l-0.061-0.147
					c-0.149-0.389-0.271-0.779-0.406-1.169c-0.235-0.779-0.481-1.564-0.644-2.39c-0.347-1.63-0.473-3.278-0.519-4.924
					c-0.007-1.647,0.069-3.296,0.35-4.933c0.129-0.817,0.318-1.632,0.569-2.433C25.986,45.529,26.256,44.649,26.943,44.112z"/>
			</g>
			<g>
				<path fill="#9E1915" d="M21.718,62.279c0.139,0.205,0.255,0.414,0.375,0.623l-0.489-0.254c1.437-0.902,2.948-1.66,4.484-2.432
					c0.756-0.42,1.562-0.702,2.394-0.831c0.83-0.145,1.667-0.237,2.601-0.155l0.065,0.17c-0.625,0.7-1.363,1.177-2.121,1.575
					c-0.753,0.413-1.536,0.661-2.354,0.824c-1.609,0.39-3.169,0.979-4.776,1.479l-0.56,0.175l0.07-0.429
					c0.038-0.236,0.072-0.474,0.131-0.714L21.718,62.279z"/>
			</g>
		</g>
		<g>
			<g>
				<path fill="#010202" d="M12.952,24.858c1.603-1.364,3.23-2.682,4.786-4.072c0.79-0.68,1.569-1.365,2.323-2.065
					c0.764-0.686,1.512-1.387,2.171-2.101c0.323-0.354,0.634-0.729,0.813-1.059c0.089-0.146,0.145-0.33,0.073-0.254l0.033-0.513
					c0.044-0.855,0.108-1.862,0.267-2.852c0.157-0.999,0.343-2.019,0.61-3.047c0.257-1.029,0.568-2.068,1.061-3.125l0.365-0.013
					c0.557,1.034,0.895,2.084,1.146,3.144c0.263,1.062,0.41,2.132,0.465,3.222c0.046,1.096-0.028,2.181-0.379,3.38
					c-0.091,0.29-0.204,0.638-0.371,1c-0.261,0.563-0.517,0.811-0.751,1.07c-0.477,0.484-0.918,0.843-1.363,1.194
					c-1.76,1.379-3.568,2.455-5.415,3.506c-1.865,1.011-3.717,2.013-5.641,2.893L12.952,24.858z"/>
			</g>
			<g>
				<path fill="#010202" d="M22.651,13.329c0.938-1.039,1.947-1.955,2.988-2.815c1.027-0.883,2.104-1.682,3.195-2.454
					c1.096-0.766,2.207-1.503,3.348-2.188c1.133-0.701,2.31-1.324,3.542-1.85l1.54,3.237c-1.117,0.273-2.251,0.501-3.39,0.72
					c-1.14,0.219-2.268,0.463-3.368,0.776l0.481-0.63c-0.639,3.261-0.509,6.648-0.062,9.926c0.107,0.812,0.229,1.625,0.358,2.369
					c0.072,0.358,0.149,0.737,0.225,0.932l0.007,0.018l0.003,0.008c-0.017-0.06,0.039,0.138-0.036-0.131l0.004,0.009l0.03,0.072
					l0.016,0.035L31.519,21.3c-0.013-0.045-0.028-0.089-0.049-0.131c-0.046-0.104-0.038-0.094-0.037-0.109
					c0.018-0.004,0.095,0.044,0.189,0.102c0.413,0.254,1.124,0.549,1.814,0.781c0.709,0.234,1.451,0.463,2.208,0.659l4.583,1.109
					c0.753,0.159,1.521,0.345,2.171,0.429l0.396,0.055c0.048,0.008,0.064,0.011,0.042,0.023L42.69,24.27
					c-0.072,0.036-0.226,0.077-0.498,0.295c-0.157,0.138-0.282,0.255-0.469,0.575c-0.146,0.281-0.232,0.605-0.225,0.941
					c0.01,0.291,0.058,0.468,0.142,0.672c0.042,0.104,0.097,0.205,0.162,0.294c0.162,0.216,0.217,0.218,0.104,0.104
					c-0.276-0.297-0.443-0.546-0.599-0.79c-0.577-0.965-0.843-1.821-1.124-2.683c-0.261-0.858-0.434-1.717-0.604-2.564
					c-0.285-1.712-0.471-3.414-0.437-5.16l0.424-0.109c0.895,1.474,1.678,2.963,2.494,4.396c0.383,0.724,0.801,1.425,1.206,2.094
					c0.393,0.661,0.845,1.318,1.233,1.715c0.091,0.093,0.187,0.17,0.208,0.163c0.036,0.032,0.248,0.174,0.529,0.56
					c0.091,0.137,0.171,0.283,0.236,0.433c0.095,0.254,0.164,0.481,0.173,0.823c0.051,0.771-0.487,1.543-0.833,1.781
					c-0.354,0.282-0.603,0.367-0.774,0.435c-0.21,0.075-0.306,0.093-0.45,0.128c-0.229,0.048-0.418,0.071-0.579,0.087
					c-0.326,0.03-0.597,0.04-0.854,0.041c-1.014-0.02-1.895-0.097-2.778-0.24c-1.758-0.271-3.448-0.704-5.106-1.334
					c-0.83-0.31-1.661-0.636-2.488-1.046c-0.836-0.423-1.652-0.834-2.573-1.585c-0.233-0.199-0.472-0.425-0.727-0.747
					c-0.132-0.175-0.246-0.335-0.392-0.621c-0.043-0.089-0.082-0.18-0.117-0.272l-0.049-0.134l-0.009-0.038l-0.019-0.076
					l-0.043-0.159l-0.006-0.03l-0.01-0.061c-0.098-0.62-0.084-1.076-0.061-1.549c0.042-0.921,0.181-1.775,0.327-2.629
					c0.298-1.698,0.664-3.353,0.924-5.013c0.246-1.662,0.425-3.317,0.444-5.002l0.004-0.395l0.479-0.235
					c1.025-0.508,2.025-1.084,3.017-1.688c0.991-0.603,1.984-1.194,2.996-1.743l1.54,3.236c-1.077,0.799-2.21,1.498-3.388,2.12
					c-1.168,0.637-2.367,1.223-3.581,1.78c-1.22,0.551-2.452,1.074-3.733,1.515c-1.27,0.461-2.57,0.869-3.94,1.152L22.651,13.329z"
					/>
			</g>
		</g>
	</g>
</g>
<g>
	<path d="M48.138,8.914c0.228,0.024,0.492,0,0.852-0.036c0.611-0.083,1.188-0.324,1.631-0.755c0.516-0.468,0.888-1.151,1.031-2.063
		h-0.035c-0.433,0.528-1.056,0.828-1.848,0.828c-1.391,0-2.29-1.055-2.29-2.387c0-1.475,1.067-2.771,2.662-2.771
		s2.578,1.283,2.578,3.298c0,1.703-0.575,2.902-1.343,3.646c-0.6,0.587-1.428,0.947-2.267,1.043c-0.384,0.06-0.72,0.072-0.972,0.06
		V8.914z M48.522,4.44c0,0.972,0.588,1.655,1.499,1.655c0.708,0,1.26-0.348,1.535-0.815c0.061-0.108,0.096-0.216,0.096-0.396
		c0-1.331-0.491-2.351-1.606-2.351C49.157,2.533,48.522,3.325,48.522,4.44z"/>
</g>
</svg>
