<?xml version="1.0" encoding="utf-8"?>
<!-- Generator: Adobe Illustrator 15.0.0, SVG Export Plug-In . SVG Version: 6.00 Build 0)  -->
<!DOCTYPE svg PUBLIC "-//W3C//DTD SVG 1.1//EN" "http://www.w3.org/Graphics/SVG/1.1/DTD/svg11.dtd">
<svg version="1.1" id="Jihai" xmlns="http://www.w3.org/2000/svg" xmlns:xlink="http://www.w3.org/1999/xlink" x="0px" y="0px"
	 width="54.225px" height="74.066px" viewBox="0 0 54.225 74.066" enable-background="new 0 0 54.225 74.066" xml:space="preserve">
<g id="Ton">
	
		<rect x="0.183" y="0.183" fill="#F6F5F1" stroke="#010202" stroke-width="0.3649" stroke-miterlimit="10" width="53.857" height="73.7"/>
	<g>
		<g>
			<path d="M3.699,54.9c1.916-0.724,3.694-1.693,5.317-2.878c1.633-1.164,3.137-2.491,4.543-3.909
				c1.407-1.428,2.527-3.099,3.946-4.504c1.41-1.428,2.825-2.859,4.498-4.204l0.22,0.131c-0.5,2.13-1.548,3.988-2.757,5.71
				c-1.209,1.738-2.907,3.057-4.535,4.381c-1.629,1.333-3.382,2.526-5.253,3.488C7.8,54.054,5.816,54.812,3.77,55.146L3.699,54.9z"
				/>
		</g>
		<g>
			<path d="M26.429,39.278c2.964,1.054,5.232,2.54,7.311,4.121c2.048,1.586,3.863,3.349,5.426,4.986
				c0.373,0.417,0.754,0.798,1.072,1.116l0.373,0.4c0.063,0.09,0.153,0.127-0.18,0.039c-0.099-0.027-0.205-0.052-0.411-0.09
				c-0.07-0.008-0.212-0.032-0.355-0.042l-0.209-0.006c-0.032,0.002,0.026,0.006,0.034,0.01l0.479,0.083
				c0.312,0.047,0.631,0.128,0.944,0.195c0.633,0.13,1.265,0.299,1.897,0.475c1.268,0.366,2.536,0.793,3.846,1.368
				c0.656,0.302,1.326,0.601,2.028,1.039c0.349,0.222,0.714,0.453,1.057,0.751c0.333,0.323,0.624,0.684,0.754,1.09l-0.297,0.416
				c-0.491-0.343-1.075-0.45-1.704-0.495c-0.625-0.044-1.27-0.041-1.913-0.04l-3.88-0.044l-1.943-0.038l-0.972-0.025l-0.484-0.014
				c-0.191-0.002-0.454-0.056-0.623-0.127c-0.72-0.299-1.229-0.73-1.746-1.157c-0.508-0.436-0.982-0.893-1.442-1.359
				c-1.793-1.916-3.399-3.955-4.978-6.017c-0.785-1.032-1.561-2.072-2.317-3.124c-0.739-1.064-1.468-2.136-2.184-3.22L26.429,39.278
				z"/>
		</g>
		<g>
			<path d="M15.963,22.5c1.474,0.171,3.035,0.065,4.324-0.423c1.4-0.586,2.846-1.154,4.27-1.707c0.552-0.229,1.259-0.67,1.943-1.006
				c0.695-0.348,1.438-0.592,2.215-0.751c0.779-0.153,1.583-0.257,2.437-0.23c0.818,0.035,1.966,0.091,2.625,0.986l-0.213,0.25
				c-0.341,0.069-0.674,0.222-0.968,0.396c-0.146,0.089-0.308,0.17-0.431,0.267c-0.053,0.042-0.148,0.102-0.234,0.146l-0.065,0.035
				l-0.017,0.01l-0.004,0.003c0.046-0.012,0.011-0.002,0.02-0.003l-0.007,0.004l-0.03,0.019l-0.118,0.073
				c-0.63,0.408-1.285,0.771-1.955,1.108c-0.672,0.331-1.369,0.606-2.109,0.788c-0.76,0.168-1.458,0.35-2.393,0.495
				c-1.536,0.232-3.049,0.452-4.623,0.584c-1.706,0.127-3.293-0.091-4.767-0.732L15.963,22.5z"/>
		</g>
		<g>
			<path d="M9.336,27.43c1.104,0.987,2.146,2.024,3.221,3.036c1.055,1.027,2.09,2.07,3.105,3.13c1.02,1.057,2.239,1.949,2.994,3.222
				c0.77,1.259,1.45,2.59,1.747,4.233l-0.228,0.184c-1.547-0.627-2.712-1.565-3.785-2.577c-1.091-0.999-1.715-2.376-2.54-3.589
				c-0.828-1.212-1.639-2.438-2.429-3.682c-0.77-1.26-1.571-2.491-2.312-3.773L9.336,27.43z"/>
		</g>
		<g>
			<path d="M11.507,29.794c2.331-0.778,4.678-1.496,7.023-2.218c2.345-0.729,4.699-1.423,7.062-2.092
				c2.366-0.677,4.732-1.287,7.162-1.882c0.623-0.144,1.203-0.296,1.939-0.429l0.321-0.044c0.191,0.007,0.146-0.066,0.809,0.049
				c0.099,0.022,0.196,0.055,0.29,0.09l0.152,0.066l0.054,0.021c0.064,0.029,0.215,0.11,0.312,0.172
				c0.146,0.09,0.25,0.161,0.347,0.229c0.38,0.273,0.642,0.501,0.911,0.735c1.044,0.915,1.869,1.824,2.684,2.845l1.765,2.217
				l-2.545,1.22c-0.327,0.157-0.649,0.322-0.979,0.473l0.929-0.859c-1.1,1.684-2.317,3.296-3.614,4.86
				c-1.324,1.548-2.693,3.069-4.34,4.426l-0.375-0.225c0.422-2.09,1.12-4.015,1.862-5.912c0.771-1.881,1.62-3.715,2.588-5.477
				l0.276-0.503l0.651-0.357c0.318-0.174,0.646-0.333,0.967-0.5l-0.779,3.437L34.9,27.402l-0.428-0.516
				c-0.021-0.027-0.04-0.048-0.021-0.045c0.033,0.021,0.119,0.061,0.117,0.054l-0.049-0.03l-0.013-0.008L34.5,26.853
				c-0.093-0.043,0.114,0.052,0.119,0.054c0.075,0.031,0.154,0.058,0.235,0.078c0.512,0.084,0.311,0.021,0.352,0.031
				c-0.039-0.003-0.073-0.009-0.136-0.008c-0.479-0.001-1.104,0.058-1.688,0.125c-2.384,0.276-4.803,0.683-7.221,1.021L18.891,29.2
				l-7.288,1.02L11.507,29.794z"/>
		</g>
		<g>
			<path d="M14.724,34.722c1.701-0.637,3.425-1.188,5.142-1.771c1.724-0.559,3.455-1.087,5.203-1.574
				c0.874-0.244,1.739-0.538,2.621-0.804c0.442-0.125,0.891-0.235,1.354-0.312c0.232-0.032,0.47-0.072,0.719-0.093
				c0.27-0.013,0.468-0.035,0.898-0.02c0.044,0.003,0.134,0.011,0.229,0.024c0.008-0.012,0.415,0.094,0.434,0.118l0.167,0.088
				l0.316,0.176c0.2,0.123,0.399,0.236,0.593,0.364c0.381,0.265,0.77,0.502,1.133,0.795c0.74,0.558,1.453,1.167,2.097,1.924
				l-0.121,0.266c-0.992,0.005-1.919-0.133-2.819-0.317c-0.457-0.078-0.891-0.209-1.332-0.311l-0.646-0.177l-0.305-0.088
				l-0.146-0.04c-0.034,0.008,0.318,0.096,0.271,0.081c0.038,0.009,0.072,0.011,0.061,0.015c-0.02,0.013-0.27,0.049-0.445,0.089
				l-0.618,0.104c-0.425,0.065-0.863,0.114-1.306,0.154c-0.89,0.065-1.789,0.129-2.68,0.25c-1.777,0.245-3.565,0.486-5.357,0.712
				c-1.798,0.2-3.588,0.45-5.395,0.632L14.724,34.722z"/>
		</g>
		<g>
			<path d="M17.858,40.505c0.608-0.377,1.222-0.654,1.833-0.936c0.617-0.071,1.238-0.049,1.855-0.077l3.715-0.102l-0.084,0.007
				l4.054-0.492c0.675-0.091,1.354-0.143,2.023-0.267c0.707,0.171,1.419,0.39,2.141,0.681c-0.631,0.455-1.271,0.837-1.915,1.173
				c-0.682,0.039-1.354,0.151-2.029,0.225l-4.054,0.491l-0.043,0.006l-0.043,0.001l-3.714,0.102
				c-0.619,0.005-1.237,0.062-1.858,0.022C19.113,41.094,18.487,40.849,17.858,40.505z"/>
		</g>
		<g>
			<g>
				<path d="M16.787,51.063c0.735,0.931,8.355,9.698,5.478,11.491c1.941,2.269,3.886,4.536,5.828,6.806
					c-0.295-10.055-0.531-20.111-0.704-30.168c-0.107-6.289-0.205-12.582-0.121-18.872c0.021-1.632-0.044-3.354,0.24-4.969
					c0.265-1.486,2.492-1.05,3.11-1.919c0.761-1.069-4.417-6.732-5.562-7.024c-2.127-0.541-4.918-0.046-7.071-0.043
					c-0.245,0.001,2.239,3.739,2.398,3.933c0.652,0.793,2.199,3.11,3.399,3.108c1.979-0.003,4.651-0.485,6.6,0.011
					c-1.854-2.342-3.709-4.684-5.562-7.023c-0.494,0.693-2.219,0.799-2.922,1.571s-0.421,3.03-0.449,3.958
					c-0.195,6.204-0.045,12.429,0.049,18.634c0.162,10.746,0.423,21.491,0.737,32.233c0.033,1.116,4.843,7.42,5.829,6.807
					c3.816-2.378-7.698-16.101-8.771-17.454c-1.019-1.289-2.333-3.364-3.916-4.043C14.703,47.81,16.64,50.878,16.787,51.063
					L16.787,51.063z"/>
			</g>
		</g>
	</g>
</g>
<g>
	<path d="M52.697,7.076h-3.13v2.915h3.502v0.875h-4.558V2.783h4.378v0.875h-3.322v2.555h3.13V7.076z"/>
</g>
</svg>
