<?xml version="1.0" encoding="utf-8"?>
<!-- Generator: Adobe Illustrator 15.0.0, SVG Export Plug-In . SVG Version: 6.00 Build 0)  -->
<!DOCTYPE svg PUBLIC "-//W3C//DTD SVG 1.1//EN" "http://www.w3.org/Graphics/SVG/1.1/DTD/svg11.dtd">
<svg version="1.1" id="Jihai" xmlns="http://www.w3.org/2000/svg" xmlns:xlink="http://www.w3.org/1999/xlink" x="0px" y="0px"
	 width="54.225px" height="74.066px" viewBox="0 0 54.225 74.066" enable-background="new 0 0 54.225 74.066" xml:space="preserve">
<g id="Nan">
	
		<rect x="0.183" y="0.183" fill="#F6F5F1" stroke="#010202" stroke-width="0.3649" stroke-miterlimit="10" width="53.857" height="73.7"/>
	<g>
		<g>
			<path d="M35.236,25.263c-1.301,0.92-2.699,1.593-4.069,2.143c-1.378,0.551-2.766,0.991-4.158,1.373
				c-2.784,0.753-5.587,1.296-8.399,1.662c2.666-0.955,5.265-2.077,7.736-3.361c2.443-1.294,4.854-2.764,6.527-4.596L35.236,25.263z
				"/>
		</g>
		<g>
			<path d="M28.496,20.041c-0.052-0.523-0.136-1.122-0.225-1.68c-0.09-0.566-0.195-1.127-0.314-1.673
				c-0.12-0.544-0.258-1.074-0.414-1.56c-0.148-0.471-0.349-0.936-0.471-1.143l3.394-0.187c-0.521,0.705-0.982,1.554-1.264,2.348
				c-0.141,0.398-0.236,0.792-0.269,1.143c-0.04,0.272,0.018,0.814,0.021,1.482c-0.001,2.386-0.35,4.611-0.787,6.811
				c-0.913,4.377-2.249,8.602-3.964,12.642c1.009-4.263,1.601-8.606,1.755-12.902c0.063-2.137,0.016-4.294-0.327-6.269
				c-0.064-0.424-0.244-0.957-0.277-1.779c-0.03-0.742,0.057-1.438,0.194-2.093c0.291-1.314,0.757-2.474,1.394-3.618l1.412-2.545
				l1.98,2.358c0.641,0.762,0.964,1.42,1.289,2.077c0.309,0.652,0.56,1.288,0.786,1.92c0.228,0.632,0.429,1.262,0.613,1.891
				c0.186,0.638,0.353,1.241,0.511,1.927L28.496,20.041z"/>
		</g>
		<g>
			<path d="M9.203,39.966c2.106,1.07,3.52,2.422,4.719,3.857c1.176,1.448,2.08,3.004,2.743,4.658c0.665,1.654,1.1,3.4,1.262,5.259
				c0.135,1.868,0.062,3.82-0.695,6.051l-0.406,0.164l-1.102-2.438l-1.04-2.463l-2.074-4.93l-1.939-4.983l-0.968-2.492l-0.905-2.52
				L9.203,39.966z"/>
		</g>
		<g>
			<g>
				<path d="M16.138,45.357c8.021-3.438,16.041-6.876,24.062-10.313c-1.849-0.325-3.696-0.651-5.544-0.978
					c2.315,1.701,4.509,3.65,6.139,6.029c1.463,2.134,0.156,4.57-0.671,6.688c-1.307,3.343-2.928,6.573-4.673,9.705
					c-1.186,2.129-2.843,5.58-5.249,6.59c1.756,0.286,3.511,0.572,5.268,0.858c-1.867-0.676-3.846-2.951-5.562-4.017
					c-1.419-0.88-4.799-0.347-5.57-0.823c3.396,2.104,5.352,4.367,9.338,4.959c3.409,0.505,4.748-2.066,6.452-4.744
					c2.602-4.083,4.688-8.607,6.365-13.142c1.484-4.007-0.512-6.252-3.453-8.981c-2.396-2.224-4.292-3.023-7.596-3.271
					c-1.91-0.144-4.271,1.501-5.959,2.225c-6.288,2.694-12.576,5.391-18.864,8.086C11.244,43.959,14.71,45.969,16.138,45.357
					L16.138,45.357z"/>
			</g>
		</g>
		<g>
			<path d="M24.115,46.062c-0.494-1.306-1.076-2.534-1.847-3.65c-0.739-1.126-1.625-2.138-2.63-2.999
				c-1.001-0.878-2.184-1.469-3.244-2.229l-3.402-2.276l0.043-0.178c1.489-0.15,2.942,0.256,4.266,0.87
				c1.345,0.613,2.396,1.703,3.364,2.775c0.972,1.084,1.777,2.301,2.398,3.588c0.594,1.3,1.018,2.676,1.228,4.051L24.115,46.062z"/>
		</g>
		<g>
			<g>
				<path d="M29.213,34.097c2.898-1.886,5.799-3.771,8.696-5.655c-1.086,0.498-2.172,0.995-3.258,1.493
					c2.084,0.852-1.674,4.457-2.182,5.022c-2.499,2.787-3.073,6.519-4.203,9.937c0.227-0.687,3.017-0.665,3.307-1.541
					c1.438-4.351,2.394-7.963,5.578-11.456c1.252-1.374,2.24-4.226-0.444-3.02c-3.804,1.711-7.219,4.396-10.703,6.662
					C26.676,35.103,28.299,34.691,29.213,34.097L29.213,34.097z"/>
			</g>
		</g>
		<g>
			<path d="M20.492,47.723c1.138-0.632,2.306-1.263,3.481-1.873c1.184-0.597,2.394-1.148,3.645-1.634l1.885-0.771
				c0.604-0.253,1.435-0.434,2.122-0.396c0.714,0.009,1.407,0.141,2.083,0.34c0.675,0.201,1.338,0.483,1.968,0.952l-0.02,0.291
				c-0.671,0.387-1.313,0.635-1.942,0.839c-0.628,0.202-1.239,0.378-1.824,0.503c-0.612,0.143-1.069,0.19-1.733,0.25
				c-0.63,0.046-1.271,0.103-1.898,0.221c-1.258,0.235-2.525,0.499-3.803,0.77c-1.29,0.24-2.547,0.579-3.878,0.788L20.492,47.723z"
				/>
		</g>
		<g>
			<path d="M21.568,52.62c0.968-0.588,1.969-1.173,2.976-1.742c1.017-0.554,2.059-1.065,3.143-1.516
				c1.104-0.41,2.078-1.161,3.514-1.093c0.636,0.023,1.244,0.142,1.836,0.357c0.59,0.207,1.166,0.494,1.705,0.967l-0.023,0.291
				c-0.591,0.385-1.148,0.63-1.691,0.829c-0.542,0.215-1.068,0.357-1.562,0.485c-0.831,0.246-2.043,0.174-3.113,0.379
				c-1.091,0.2-2.192,0.425-3.306,0.654c-1.126,0.2-2.219,0.493-3.387,0.664L21.568,52.62z"/>
		</g>
		<g>
			<path d="M26.146,58.986c-0.228-1.22-0.397-2.438-0.579-3.652c-0.172-1.215-0.322-2.427-0.46-3.631
				c-0.07-0.602-0.205-1.201-0.328-1.79c-0.05-0.294-0.101-0.586-0.111-0.87c-0.009-0.143-0.01-0.282-0.007-0.419l0.008-0.196
				l0.004-0.048l-0.005-0.076l0.001-0.009l0.001-0.014l0.003-0.029l0.011-0.113c0.062-1.562,1.164-3.353,2.83-3.479l0.19,0.269
				c-0.238,1.433,0.028,2.21,0.259,3.054l0.021,0.113l0.005,0.027l0.003,0.015l0.001,0.007l0.001,0.004
				c-0.01-0.141-0.002-0.036-0.004-0.066l0.013,0.066l0.042,0.257c0.022,0.168,0.036,0.33,0.041,0.491
				c0.016,0.323-0.02,0.638-0.057,0.951c-0.099,0.626-0.226,1.24-0.295,1.854c-0.137,1.228-0.314,2.444-0.525,3.659
				c-0.221,1.215-0.441,2.427-0.733,3.636L26.146,58.986z"/>
		</g>
	</g>
</g>
<g>
	<path d="M48.391,8.762c0.468,0.3,1.14,0.528,1.859,0.528c1.067,0,1.691-0.563,1.691-1.379c0-0.743-0.433-1.187-1.523-1.595
		c-1.319-0.48-2.135-1.176-2.135-2.303c0-1.259,1.043-2.195,2.614-2.195c0.815,0,1.428,0.192,1.775,0.396l-0.288,0.852
		c-0.252-0.156-0.792-0.384-1.523-0.384c-1.104,0-1.523,0.66-1.523,1.211c0,0.755,0.492,1.127,1.607,1.559
		c1.367,0.528,2.051,1.188,2.051,2.375c0,1.248-0.911,2.339-2.818,2.339c-0.779,0-1.631-0.24-2.062-0.528L48.391,8.762z"/>
</g>
</svg>
