<?xml version="1.0" encoding="utf-8"?>
<!-- Generator: Adobe Illustrator 15.0.0, SVG Export Plug-In . SVG Version: 6.00 Build 0)  -->
<!DOCTYPE svg PUBLIC "-//W3C//DTD SVG 1.1//EN" "http://www.w3.org/Graphics/SVG/1.1/DTD/svg11.dtd">
<svg version="1.1" id="Jihai" xmlns="http://www.w3.org/2000/svg" xmlns:xlink="http://www.w3.org/1999/xlink" x="0px" y="0px"
	 width="54.225px" height="74.066px" viewBox="0 0 54.225 74.066" enable-background="new 0 0 54.225 74.066" xml:space="preserve">
<g id="Sha">
	
		<rect x="0.183" y="0.183" fill="#F6F5F1" stroke="#010202" stroke-width="0.3649" stroke-miterlimit="10" width="53.857" height="73.7"/>
	<g>
		<g>
			<path d="M20.525,26.901c0.327,0.563,0.638,1.134,0.938,1.706l0.438,0.862c0.134,0.291,0.314,0.567,0.403,0.871l0.024,0.09
				l0.004,0.077c0.074,1.953,0.211,3.903,0.313,5.854l0.332,5.854l0.332,5.854l0.166,2.927l0.083,1.464
				c0.014,0.488,0.12,0.973,0.015,1.469l-0.044,0.209l0.043-0.119c-0.251,0.688-0.514,1.378-0.827,2.062
				c-0.201-0.726-0.352-1.446-0.491-2.167l-0.001,0.089c-0.161-0.479-0.108-0.973-0.15-1.459L22.02,51.08l-0.166-2.927L21.522,42.3
				l-0.332-5.854c-0.119-1.951-0.203-3.904-0.352-5.854l0.029,0.167c-0.089-0.305-0.085-0.636-0.127-0.952l-0.094-0.962
				C20.595,28.2,20.552,27.554,20.525,26.901z"/>
		</g>
		<g>
			<path d="M26.676,53.949c0.022-2.661,0.121-5.316,0.186-7.975c0.085-2.656,0.19-5.312,0.331-7.964
				c0.062-1.327,0.114-2.655,0.145-3.986c0.023-1.331,0.098-2.659,0.275-3.979c0.093-0.658,0.198-1.316,0.333-1.975
				c0.132-0.681,0.229-1.354,0.768-2.312c0.155-0.239,0.391-0.558,0.842-0.771c0.467-0.224,0.968-0.143,1.233-0.031
				c0.562,0.23,0.779,0.521,1.039,0.77c0.484,0.507,0.837,0.998,1.375,1.397l-0.063,0.285c-0.765,0.088-1.516-0.217-2.134-0.433
				c-0.295-0.106-0.634-0.199-0.714-0.152c-0.049,0.025,0.094,0.089,0.269,0.035c0.158-0.053,0.188-0.091,0.188-0.041
				c-0.025,0.253-0.021,0.934-0.046,1.562c-0.013,0.661-0.047,1.321-0.092,1.981c-0.098,1.318-0.29,2.63-0.528,3.938
				c-0.231,1.309-0.438,2.619-0.633,3.933c-0.372,2.628-0.77,5.253-1.184,7.878c-0.437,2.622-0.831,5.249-1.299,7.869L26.676,53.949
				z"/>
		</g>
		<g>
			<path d="M9.557,22.942c4.226-1.368,8.487-2.579,12.761-3.797c4.293-1.184,8.555-2.271,13.035-3.156
				c0.566-0.116,1.139-0.229,1.767-0.317c0.323-0.044,0.635-0.089,1.07-0.099c0.124,0.001,0.238,0.001,0.387,0.011l0.264,0.029
				l0.197,0.032l0.213,0.029l0.312,0.064c1.427,0.322,2.539,0.767,3.647,1.334c1.104,0.564,2.12,1.211,3.139,2.104
				c0.258,0.229,0.518,0.46,0.797,0.769c0.14,0.158,0.278,0.319,0.44,0.542c0.151,0.209,0.347,0.485,0.538,0.946
				c0.059,0.148,0.107,0.303,0.146,0.458c0.041,0.15,0.081,0.459,0.08,0.685c0.015,0.196-0.049,0.629-0.155,0.921
				c-0.101,0.312-0.292,0.617-0.512,0.88L47.6,24.473c0.153-0.135-0.315,0.294-0.265,0.243l-0.021,0.016l-0.021,0.015
				c-0.054,0.041-0.145,0.106-0.22,0.153c-0.135,0.09-0.385,0.208-0.445,0.228L46.4,25.206c-0.276,0.081-0.455,0.104-0.619,0.123
				c-0.597,0.05-0.928,0.002-1.286-0.033c-1.332-0.175-2.408-0.479-3.521-0.807c-1.101-0.326-2.169-0.705-3.228-1.109
				c-2.104-0.846-4.183-1.735-6.142-2.985l0.162-0.484c2.256,0.077,4.479,0.217,6.68,0.36l3.263,0.233
				c1.061,0.065,2.165,0.141,3.039,0.106c0.192-0.009,0.417-0.041,0.368-0.062c-0.027-0.002-0.069-0.004-0.215,0.035
				c-0.044,0.013-0.088,0.026-0.13,0.044c-0.027,0.01-0.249,0.107-0.354,0.184c-0.06,0.039-0.136,0.096-0.174,0.129l0.02-0.019
				l0.02-0.018c0.061-0.054-0.406,0.365-0.247,0.225l-0.069,0.074c-0.188,0.203-0.316,0.462-0.41,0.703
				c-0.099,0.224-0.122,0.591-0.126,0.718c-0.012,0.158,0.033,0.395,0.054,0.48c0.017,0.089,0.044,0.178,0.079,0.262
				c0.076,0.211,0.118,0.254,0.094,0.251c-0.009,0.004-0.06-0.034-0.114-0.072c-0.108-0.084-0.271-0.211-0.442-0.329
				c-0.712-0.483-1.579-1.008-2.411-1.506c-0.832-0.479-1.729-0.989-2.424-1.291c-0.06-0.249-1.37-0.2-2.364-0.163
				c-2.126,0.134-4.315,0.411-6.493,0.681l-6.562,0.828L9.666,23.44L9.557,22.942z"/>
		</g>
		<g>
			<path d="M24.188,32.493c0.881-1.103,1.797-2.17,2.692-3.256l2.759-3.191c0.928-1.056,1.742-2.222,2.822-3.128
				c1.071-0.913,2.194-1.775,3.537-2.423l0.131,0.127c-0.626,1.354-1.472,2.49-2.367,3.576c-0.89,1.094-2.042,1.927-3.083,2.871
				l-3.147,2.808c-1.072,0.914-2.125,1.847-3.213,2.743L24.188,32.493z"/>
		</g>
		<g>
			<path d="M10.523,33.651c0.573,0.293,1.103,0.619,1.633,0.944l0.77,0.507c0.234,0.185,0.562,0.302,0.701,0.557l0.167,0.308
				l-0.01-0.024c0.64,1.721,1.371,3.403,2.053,5.106l2.078,5.098l2.079,5.096l0.521,1.274c0.091,0.211,0.16,0.43,0.282,0.628
				c0.118,0.199,0.065,0.469,0.092,0.706c0.042,0.974,0.058,1.958,0.003,2.971c-0.747-0.686-1.426-1.4-2.076-2.125
				c-0.147-0.188-0.374-0.343-0.429-0.568c-0.052-0.227-0.154-0.433-0.236-0.646l-0.521-1.274l-2.078-5.097l-2.078-5.096
				c-0.705-1.694-1.359-3.409-2.105-5.086l0.157,0.281c-0.202-0.209-0.217-0.556-0.324-0.835l-0.257-0.885
				C10.788,34.888,10.634,34.286,10.523,33.651z"/>
		</g>
		<g>
			<g>
				<path d="M13.233,39.627c3.03-1.101,6.071-2.169,9.121-3.214c4.386-1.501,8.426-4.077,12.205-0.526
					c3.747,3.52,0.811,7.295-1.146,10.897c-1.761,3.244-3.647,6.426-5.58,9.571c0.969-1.578,5.485-1.247,6.613-3.084
					c1.933-3.147,3.796-6.339,5.581-9.571c2.726-4.937,4.807-8.312-0.596-12.369c-2.443-1.835-7.183,0.826-9.612,1.634
					c-3.67,1.22-7.318,2.513-10.953,3.832c-1.559,0.566-3.072,1.308-4.552,2.052C14.135,38.938,11.947,40.094,13.233,39.627
					L13.233,39.627z"/>
			</g>
		</g>
		<g>
			<g>
				<path d="M19.904,57.509c4.052-1.16,7.597-1.006,11.729-0.363c2.095,0.325,2.993-2.874,0.884-3.201
					c-4.723-0.733-8.854-0.966-13.494,0.364C16.967,54.896,17.842,58.101,19.904,57.509L19.904,57.509z"/>
			</g>
		</g>
	</g>
</g>
<g>
	<path d="M45.843,10.2l-2.051-8.083h1.104l0.96,4.09c0.239,1.007,0.455,2.015,0.6,2.794h0.023c0.132-0.804,0.384-1.763,0.66-2.807
		l1.079-4.078h1.092l0.983,4.102c0.228,0.959,0.443,1.919,0.563,2.771h0.023c0.168-0.887,0.396-1.787,0.648-2.794l1.067-4.078h1.067
		L51.372,10.2H50.28l-1.02-4.209c-0.251-1.032-0.419-1.823-0.527-2.639H48.71c-0.133,0.803-0.324,1.595-0.624,2.639L46.934,10.2
		H45.843z"/>
</g>
</svg>
