<?xml version="1.0" encoding="utf-8"?>
<!-- Generator: Adobe Illustrator 15.0.0, SVG Export Plug-In . SVG Version: 6.00 Build 0)  -->
<!DOCTYPE svg PUBLIC "-//W3C//DTD SVG 1.1//EN" "http://www.w3.org/Graphics/SVG/1.1/DTD/svg11.dtd">
<svg version="1.1" id="Pinzu" xmlns="http://www.w3.org/2000/svg" xmlns:xlink="http://www.w3.org/1999/xlink" x="0px" y="0px"
	 width="54.225px" height="74.066px" viewBox="0 0 54.225 74.066" enable-background="new 0 0 54.225 74.066" xml:space="preserve">
<g id="_x34_pin">
	
		<rect x="0.183" y="0.183" fill="#F6F5F1" stroke="#010202" stroke-width="0.3649" stroke-miterlimit="10" width="53.857" height="73.7"/>
	<g id="Point_8_">
		<g>
			<path fill="#1F223A" d="M13.989,45.171c-5.407,0-9.79,4.384-9.79,9.791c0,5.408,4.383,9.791,9.79,9.791s9.791-4.384,9.791-9.791
				C23.78,49.555,19.396,45.171,13.989,45.171z M13.989,62.322c-4.064,0-7.359-3.295-7.359-7.36c0-4.064,3.295-7.359,7.359-7.359
				c4.065,0,7.36,3.295,7.36,7.359C21.349,59.027,18.055,62.322,13.989,62.322z"/>
			<path fill="#1F223A" d="M20.235,52.932c-1.12-3.45-4.826-5.337-8.275-4.218c-3.45,1.122-5.338,4.826-4.217,8.276
				s4.826,5.338,8.276,4.217S21.356,56.382,20.235,52.932z M13.989,49.511c0.709,0,1.386,0.135,2.007,0.381l-0.729,1.846
				c-0.396-0.156-0.825-0.242-1.276-0.242c-0.45,0-0.88,0.086-1.275,0.242l-0.729-1.846C12.604,49.646,13.281,49.511,13.989,49.511z
				 M8.805,53.277c0.22-0.674,0.557-1.276,0.982-1.791l1.529,1.265c-0.271,0.327-0.485,0.71-0.625,1.14
				c-0.139,0.428-0.189,0.863-0.163,1.288l-1.981,0.124C8.506,54.636,8.586,53.951,8.805,53.277z M12.632,60.243
				c-0.646-0.166-1.272-0.455-1.847-0.871c-0.573-0.417-1.042-0.924-1.398-1.487l1.676-1.064c0.229,0.359,0.524,0.681,0.891,0.946
				c0.364,0.265,0.763,0.447,1.174,0.554L12.632,60.243z M13.989,57.151c-1.209,0-2.189-0.98-2.189-2.189s0.98-2.188,2.189-2.188
				s2.189,0.979,2.189,2.188S15.198,57.151,13.989,57.151z M17.193,59.372c-0.573,0.417-1.2,0.705-1.848,0.871l-0.493-1.923
				c0.411-0.105,0.81-0.289,1.175-0.554c0.364-0.266,0.661-0.587,0.889-0.945l1.676,1.064
				C18.234,58.449,17.767,58.956,17.193,59.372z M19.432,55.304l-1.981-0.125c0.026-0.425-0.024-0.859-0.164-1.289
				c-0.14-0.429-0.354-0.812-0.624-1.139l1.529-1.265c0.426,0.514,0.764,1.116,0.981,1.79
				C19.394,53.952,19.474,54.637,19.432,55.304z"/>
		</g>
		<circle fill="#FFFFFF" cx="13.989" cy="54.962" r="0.851"/>
	</g>
	<g id="Point_7_">
		<g>
			<path fill="#1F233B" d="M40.185,45.171c-5.407,0-9.791,4.384-9.791,9.791c0,5.408,4.384,9.791,9.791,9.791
				c5.405,0,9.79-4.384,9.79-9.791C49.975,49.555,45.591,45.171,40.185,45.171z M40.185,62.322c-4.065,0-7.36-3.295-7.36-7.36
				c0-4.064,3.295-7.359,7.36-7.359c4.063,0,7.358,3.295,7.358,7.359C47.544,59.027,44.249,62.322,40.185,62.322z"/>
			<path fill="#1F233B" d="M46.431,52.932c-1.121-3.45-4.826-5.337-8.276-4.218c-3.45,1.122-5.338,4.826-4.217,8.276
				s4.826,5.338,8.275,4.217S47.552,56.382,46.431,52.932z M40.185,49.511c0.708,0,1.385,0.135,2.006,0.381l-0.73,1.846
				c-0.395-0.156-0.824-0.242-1.274-0.242c-0.451,0-0.881,0.086-1.275,0.242l-0.729-1.846
				C38.799,49.646,39.476,49.511,40.185,49.511z M35,53.277c0.22-0.674,0.558-1.276,0.982-1.791l1.53,1.265
				c-0.271,0.327-0.486,0.71-0.625,1.14c-0.141,0.428-0.19,0.863-0.164,1.288l-1.981,0.124C34.7,54.636,34.781,53.951,35,53.277z
				 M38.826,60.243c-0.646-0.166-1.272-0.455-1.846-0.871c-0.574-0.417-1.042-0.924-1.4-1.487l1.677-1.064
				c0.229,0.359,0.525,0.681,0.891,0.946c0.364,0.265,0.763,0.447,1.174,0.554L38.826,60.243z M40.185,57.151
				c-1.209,0-2.189-0.98-2.189-2.189s0.98-2.188,2.189-2.188s2.188,0.979,2.188,2.188S41.394,57.151,40.185,57.151z M43.388,59.372
				c-0.573,0.417-1.2,0.705-1.849,0.871l-0.493-1.923c0.411-0.105,0.811-0.289,1.176-0.554c0.363-0.266,0.66-0.587,0.89-0.945
				l1.676,1.064C44.429,58.449,43.961,58.956,43.388,59.372z M45.626,55.304l-1.98-0.125c0.025-0.425-0.024-0.859-0.164-1.289
				c-0.14-0.429-0.354-0.812-0.624-1.139l1.529-1.265c0.426,0.514,0.764,1.116,0.981,1.79
				C45.588,53.952,45.668,54.637,45.626,55.304z"/>
		</g>
		<circle fill="#FFFFFF" cx="40.185" cy="54.962" r="0.851"/>
	</g>
	<g id="Point_6_">
		<g>
			<path fill="#1F223A" d="M40.185,9.146c-5.407,0-9.791,4.384-9.791,9.791s4.384,9.791,9.791,9.791c5.405,0,9.79-4.383,9.79-9.791
				S45.591,9.146,40.185,9.146z M40.185,26.297c-4.065,0-7.36-3.295-7.36-7.359c0-4.065,3.295-7.36,7.36-7.36
				c4.063,0,7.358,3.295,7.358,7.36C47.544,23.002,44.249,26.297,40.185,26.297z"/>
			<path fill="#1F223A" d="M46.431,16.908c-1.121-3.45-4.826-5.337-8.276-4.217c-3.45,1.121-5.338,4.826-4.217,8.275
				c1.121,3.45,4.826,5.339,8.275,4.218C45.663,24.062,47.552,20.358,46.431,16.908z M40.185,13.486
				c0.708,0,1.385,0.135,2.006,0.381l-0.73,1.846c-0.395-0.155-0.824-0.241-1.274-0.241c-0.451,0-0.881,0.086-1.275,0.241
				l-0.729-1.846C38.799,13.621,39.476,13.486,40.185,13.486z M35,17.253c0.22-0.674,0.558-1.275,0.982-1.791l1.53,1.267
				c-0.271,0.327-0.486,0.71-0.625,1.139c-0.141,0.428-0.19,0.864-0.164,1.288l-1.981,0.125C34.7,18.612,34.781,17.927,35,17.253z
				 M38.826,24.219c-0.646-0.166-1.272-0.455-1.846-0.871c-0.574-0.417-1.042-0.925-1.4-1.488l1.677-1.064
				c0.229,0.358,0.525,0.682,0.891,0.946c0.364,0.265,0.763,0.449,1.174,0.554L38.826,24.219z M40.185,21.126
				c-1.209,0-2.189-0.979-2.189-2.188s0.98-2.189,2.189-2.189s2.188,0.98,2.188,2.189S41.394,21.126,40.185,21.126z M43.388,23.347
				c-0.573,0.417-1.2,0.706-1.849,0.872l-0.493-1.924c0.411-0.104,0.811-0.289,1.176-0.554c0.363-0.264,0.66-0.587,0.89-0.945
				l1.676,1.064C44.429,22.424,43.961,22.931,43.388,23.347z M45.626,19.279l-1.98-0.125c0.025-0.424-0.024-0.86-0.164-1.289
				c-0.14-0.428-0.354-0.811-0.624-1.138l1.529-1.266c0.426,0.516,0.764,1.116,0.981,1.79
				C45.588,17.927,45.668,18.612,45.626,19.279z"/>
		</g>
		<circle fill="#FFFFFF" cx="40.185" cy="18.937" r="0.851"/>
	</g>
	<g id="Point_5_">
		<g>
			<path fill="#1F223A" d="M13.989,9.146c-5.407,0-9.79,4.384-9.79,9.791s4.383,9.791,9.79,9.791s9.791-4.383,9.791-9.791
				S19.396,9.146,13.989,9.146z M13.989,26.297c-4.064,0-7.359-3.295-7.359-7.359c0-4.065,3.295-7.36,7.359-7.36
				c4.065,0,7.36,3.295,7.36,7.36C21.349,23.002,18.055,26.297,13.989,26.297z"/>
			<path fill="#1F223A" d="M20.235,16.908c-1.12-3.45-4.826-5.337-8.275-4.217c-3.45,1.121-5.338,4.826-4.217,8.275
				c1.121,3.45,4.826,5.339,8.276,4.218C19.469,24.062,21.356,20.358,20.235,16.908z M13.989,13.486
				c0.709,0,1.386,0.135,2.007,0.381l-0.729,1.846c-0.396-0.155-0.825-0.241-1.276-0.241c-0.45,0-0.88,0.086-1.275,0.241
				l-0.729-1.846C12.604,13.621,13.281,13.486,13.989,13.486z M8.805,17.253c0.22-0.674,0.557-1.275,0.982-1.791l1.529,1.267
				c-0.271,0.327-0.485,0.71-0.625,1.139c-0.139,0.428-0.189,0.864-0.163,1.288L8.548,19.28C8.506,18.612,8.586,17.927,8.805,17.253
				z M12.632,24.219c-0.646-0.166-1.272-0.455-1.847-0.871c-0.573-0.417-1.042-0.925-1.398-1.488l1.676-1.064
				c0.229,0.358,0.524,0.682,0.891,0.946c0.364,0.265,0.763,0.449,1.174,0.554L12.632,24.219z M13.989,21.126
				c-1.209,0-2.189-0.979-2.189-2.188s0.98-2.189,2.189-2.189s2.189,0.98,2.189,2.189C16.179,20.146,15.198,21.126,13.989,21.126z
				 M17.193,23.347c-0.573,0.417-1.2,0.706-1.848,0.872l-0.493-1.924c0.411-0.104,0.81-0.289,1.175-0.554
				c0.364-0.264,0.661-0.587,0.889-0.945l1.676,1.064C18.234,22.424,17.767,22.931,17.193,23.347z M19.432,19.279l-1.981-0.125
				c0.026-0.424-0.024-0.86-0.164-1.289c-0.14-0.428-0.354-0.811-0.624-1.138l1.529-1.266c0.426,0.516,0.764,1.116,0.981,1.79
				C19.394,17.927,19.474,18.612,19.432,19.279z"/>
		</g>
		<circle fill="#FFFFFF" cx="13.989" cy="18.937" r="0.851"/>
	</g>
</g>
<g>
	<path d="M50.414,10.033V7.899h-3.622V7.215l3.479-4.978h1.139v4.846h1.092v0.815h-1.092v2.135H50.414z M50.414,7.083V4.481
		c0-0.408,0.012-0.816,0.036-1.224h-0.036c-0.239,0.456-0.432,0.792-0.647,1.151l-1.907,2.65v0.024H50.414z"/>
</g>
</svg>
