<?xml version="1.0" encoding="utf-8"?>
<!-- Generator: Adobe Illustrator 15.0.0, SVG Export Plug-In . SVG Version: 6.00 Build 0)  -->
<!DOCTYPE svg PUBLIC "-//W3C//DTD SVG 1.1//EN" "http://www.w3.org/Graphics/SVG/1.1/DTD/svg11.dtd">
<svg version="1.1" id="Jihai" xmlns="http://www.w3.org/2000/svg" xmlns:xlink="http://www.w3.org/1999/xlink" x="0px" y="0px"
	 width="54.225px" height="74.066px" viewBox="0 0 54.225 74.066" enable-background="new 0 0 54.225 74.066" xml:space="preserve">
<g id="Pei">
	
		<rect x="0.183" y="0.183" fill="#F6F5F1" stroke="#010202" stroke-width="0.3649" stroke-miterlimit="10" width="53.857" height="73.7"/>
	<g>
		<g>
			<g>
				<path d="M32.091,16.932c-1.764,1.388-3.526,2.775-5.29,4.165c-0.335,0.264,0.857,1.538,0.979,1.674
					c2.013,2.272,0.601,9.729,0.615,12.461c0.023,4.644-0.221,10.171,1.493,14.578c2.958,7.616,11.558,6.016,17.855,4.138
					c-0.012,0.004-2.32-3.997-3.611-3.611c-3.519,1.049-7.267,1.833-10.945,1.493c-2.105-0.193,0.805,2.7,0.082,0.363
					c-0.234-0.758-0.353-1.558-0.486-2.337c-0.398-2.312-0.503-4.685-0.61-7.023c-0.297-6.441,1.866-14.6-2.735-19.798
					c0.326,0.559,0.651,1.116,0.978,1.674c1.765-1.388,3.527-2.775,5.29-4.165C36.161,20.182,32.815,16.36,32.091,16.932
					L32.091,16.932z"/>
			</g>
		</g>
		<g>
			<path d="M20.031,24.4c0.721-0.146,1.431-0.188,2.153-0.177c0.355,0.018,0.719,0.047,1.092,0.097
				c0.183,0.03,0.391,0.037,0.535,0.146c0.141,0.119,0.269,0.259,0.429,0.363c0.306,0.24,0.618,0.496,0.948,0.909
				c0.163,0.211,0.336,0.456,0.479,0.816c0.14,0.36,0.236,0.86,0.119,1.391c-0.058,0.241-0.155,0.506-0.271,0.685l-0.091,0.146
				l-0.048,0.071l-0.012,0.017c-0.073,0.106,0.085-0.124,0.068-0.099l-0.009,0.012c-0.008,0.015-0.069,0.112-0.014,0.028
				c0.025-0.029,0.067-0.141,0.057-0.112l-0.01,0.028l-0.035,0.126c-0.053,0.205-0.103,0.476-0.146,0.745
				c-0.334,2.256-0.484,4.718-0.638,7.116c-0.146,2.415-0.258,4.841-0.354,7.269l-0.069,1.82l-0.032,0.91
				c-0.015,0.151,0.01,0.306,0.021,0.457c0.012,0.152-0.066,0.302-0.13,0.451c-0.511,1.199-1.021,2.4-1.674,3.602
				c-0.589-1.233-1.024-2.469-1.454-3.705c-0.053-0.154-0.122-0.311-0.1-0.462s0.057-0.304,0.054-0.456l0.032-0.916l0.069-1.831
				c0.099-2.443,0.21-4.887,0.356-7.335c0.161-2.463,0.296-4.873,0.674-7.441c0.055-0.33,0.112-0.66,0.209-1.046l0.09-0.312
				l0.066-0.188c0.014-0.045,0.092-0.223,0.146-0.322l0.099-0.171l0.007-0.012c-0.015,0.021,0.146-0.214,0.076-0.112l-0.005,0.006
				l-0.019,0.021l-0.03,0.047c-0.023,0.056-0.087,0.167-0.098,0.266c-0.05,0.229-0.009,0.417,0.026,0.495
				c0.03,0.076,0.033,0.064,0.01,0.036c-0.047-0.066-0.201-0.212-0.375-0.345c-0.083-0.078-0.203-0.116-0.314-0.169
				c-0.108-0.06-0.155-0.219-0.233-0.347c-0.146-0.267-0.317-0.535-0.5-0.801L20.031,24.4z"/>
		</g>
		<g>
			<path d="M14.741,31.563c0.367,2.701,0.08,5.482-0.463,8.173c-0.573,2.69-1.427,5.312-2.388,7.854l-1.416,3.765
				c-0.225,0.615-0.435,1.229-0.585,1.808c-0.074,0.288-0.133,0.568-0.158,0.807c-0.029,0.228,0.009,0.431,0.008,0.366
				c-0.001-0.013-0.006-0.021-0.013-0.036L9.715,54.27l-0.008-0.014L9.702,54.25c0.028,0.036-0.27-0.35-0.138-0.18l0.044,0.045
				l0.021,0.023c0.003,0.002,0.011,0.011,0.01,0.008L9.59,54.09c-0.067-0.072-0.152-0.14-0.243-0.188
				c-0.089-0.05-0.206-0.083-0.217-0.09c-0.368-0.073-0.315-0.018-0.288-0.044c0.111-0.036,0.369-0.164,0.606-0.308
				c0.495-0.3,1.019-0.674,1.535-1.063c1.037-0.784,2.067-1.636,3.097-2.492c2.086-1.684,4.161-3.42,6.289-5.099
				c2.152-1.649,4.301-3.318,6.576-4.825c2.252-1.535,4.597-2.956,7.045-4.188c2.456-1.191,5.042-2.259,7.751-2.61
				c-2.531,0.979-4.828,2.345-7.03,3.85c-2.213,1.485-4.322,3.124-6.415,4.784c-2.068,1.691-4.15,3.374-6.18,5.134l-6.187,5.211
				c-1.06,0.854-2.122,1.702-3.25,2.527c-0.566,0.412-1.146,0.816-1.812,1.205c-0.347,0.191-0.688,0.387-1.22,0.555
				c-0.291,0.062-0.582,0.208-1.282,0.04c-0.142-0.025-0.503-0.203-0.688-0.384L7.602,56.03l-0.015-0.015l-0.021-0.023l-0.041-0.048
				c0.124,0.161-0.181-0.231-0.158-0.205l-0.02-0.034L7.31,55.637l-0.073-0.141c-0.042-0.092-0.073-0.179-0.106-0.271
				c-0.211-0.708-0.134-1.198-0.077-1.637c0.07-0.431,0.176-0.807,0.287-1.166c0.228-0.717,0.491-1.366,0.762-2.007
				c0.534-1.277,1.124-2.489,1.695-3.705C12.049,41.866,14.191,36.982,14.741,31.563z"/>
		</g>
		<path stroke="#000000" stroke-width="0.3649" stroke-miterlimit="10" d="M10.21,32.658c0,0,2.585,0.491,3.314,0.491
			s5.048,1.708,4.835,3.104c-0.213,1.396-2.341,2.219-3.648,2.065C13.403,38.167,9.42,33.534,10.21,32.658z"/>
		<path stroke="#000000" stroke-width="0.3649" stroke-miterlimit="10" d="M34.353,35.946c0,0,2.159-1.337,2.919-2.311
			c0.761-0.974-0.76-2.828,0.151-2.92c0.912-0.091,6.052-1.032,6.537,2.89c0.122,1.46-3.404,1.738-5.988,2.646
			c-2.585,0.91-5.02,2.156-6.631,3.16"/>
	</g>
</g>
<g>
	<path d="M46.857,9.867V1.783h1.151l2.579,4.09c0.588,0.947,1.067,1.799,1.439,2.626l0.035-0.012
		c-0.096-1.079-0.119-2.062-0.119-3.322V1.783h0.983v8.083h-1.056l-2.566-4.102c-0.563-0.9-1.104-1.823-1.499-2.699l-0.036,0.012
		c0.06,1.019,0.071,1.991,0.071,3.334v3.454H46.857z"/>
</g>
</svg>
