<?xml version="1.0" encoding="utf-8"?>
<!-- Generator: Adobe Illustrator 15.0.0, SVG Export Plug-In . SVG Version: 6.00 Build 0)  -->
<!DOCTYPE svg PUBLIC "-//W3C//DTD SVG 1.1//EN" "http://www.w3.org/Graphics/SVG/1.1/DTD/svg11.dtd">
<svg version="1.1" id="Jihai" xmlns="http://www.w3.org/2000/svg" xmlns:xlink="http://www.w3.org/1999/xlink" x="0px" y="0px"
	 width="54.223px" height="74.066px" viewBox="0 0 54.223 74.066" enable-background="new 0 0 54.223 74.066" xml:space="preserve">
<g id="Haku">
	
		<rect x="0.183" y="0.183" fill="#F6F5F1" stroke="#010202" stroke-width="0.3649" stroke-miterlimit="10" width="53.858" height="73.7"/>
</g>
<g>
	<path d="M45.842,10.199l-2.051-8.083h1.104l0.96,4.09C46.094,7.213,46.31,8.22,46.454,9h0.023c0.132-0.804,0.384-1.763,0.66-2.807
		l1.079-4.078h1.092l0.983,4.102c0.228,0.959,0.443,1.919,0.563,2.771h0.023c0.168-0.887,0.396-1.787,0.648-2.794l1.067-4.078h1.067
		l-2.291,8.083H50.28L49.26,5.99c-0.251-1.032-0.419-1.823-0.527-2.639h-0.023c-0.133,0.804-0.324,1.595-0.624,2.639l-1.151,4.209
		H45.842z"/>
</g>
</svg>
