<?xml version="1.0" encoding="utf-8"?>
<!-- Generator: Adobe Illustrator 15.0.0, SVG Export Plug-In . SVG Version: 6.00 Build 0)  -->
<!DOCTYPE svg PUBLIC "-//W3C//DTD SVG 1.1//EN" "http://www.w3.org/Graphics/SVG/1.1/DTD/svg11.dtd">
<svg version="1.1" id="Jihai" xmlns="http://www.w3.org/2000/svg" xmlns:xlink="http://www.w3.org/1999/xlink" x="0px" y="0px"
	 width="54.225px" height="74.066px" viewBox="0 0 54.225 74.066" enable-background="new 0 0 54.225 74.066" xml:space="preserve">
<g id="Hatsu">
	
		<rect x="0.183" y="0.183" fill="#F6F5F1" stroke="#010202" stroke-width="0.3649" stroke-miterlimit="10" width="53.857" height="73.7"/>
	<g>
		<g>
			<path fill="#003C14" d="M16.234,25.697c2.006-1.171,3.744-2.659,5.414-4.22c1.689-1.551,3.233-3.203,4.906-4.854
				c0.233-0.219,0.388-0.397,0.776-0.681c0.062-0.038,0.134-0.091,0.307-0.158c0.073-0.026,0.172-0.05,0.26-0.06
				c0.012-0.005,0.17-0.016,0.283,0.007c0.267,0.141-0.086-0.215,0.666,0.384l0.031,0.048c0.073,0.105,0.138,0.237,0.172,0.374
				c0.019,0.068,0.029,0.138,0.034,0.204l0.004,0.109l-0.002,0.063l-0.007,0.118l-0.02,0.164c-0.026,0.195-0.06,0.348-0.092,0.509
				c-0.136,0.622-0.312,1.19-0.493,1.764c-0.369,1.139-0.791,2.244-1.249,3.337c-0.936,2.174-2.046,4.259-3.252,6.284
				c-1.247,2.002-2.601,3.938-4.077,5.771c-1.505,1.811-3.077,3.568-4.812,5.157c-3.428,3.21-7.299,5.943-11.501,7.936
				c3.637-2.894,7.023-5.971,10.082-9.335c3.041-3.373,5.79-6.99,8.128-10.857c1.196-1.917,2.269-3.91,3.231-5.946
				c0.488-1.014,0.944-2.045,1.342-3.085c0.199-0.519,0.38-1.047,0.531-1.544l0.093-0.337l0.012-0.051
				c0.004-0.014,0,0.009,0.002,0.011l0.002,0.01c0.001-0.012-0.001,0.006,0.003,0.083c0.006,0.058,0.017,0.118,0.032,0.177
				c0.034,0.119,0.097,0.233,0.167,0.32c0.037,0.042,0.003-0.002,0.008,0.001c0.745,0.594,0.383,0.24,0.642,0.378
				c0.104,0.021,0.253,0.007,0.257,0.006c0.069-0.006,0.149-0.024,0.206-0.047c0.104-0.04,0.115-0.058,0.115-0.057
				c-0.089,0.041-0.359,0.257-0.558,0.42c-1.729,1.472-3.54,2.998-5.446,4.346C20.511,23.768,18.481,25.039,16.234,25.697z"/>
		</g>
		<g>
			<path fill="#003C14" d="M12.081,26.671c0.713,0.614,1.399,1.241,2.125,1.822c0.708,0.596,1.416,1.179,2.123,1.746
				c0.712,0.569,1.586,0.923,2.129,1.631c0.569,0.695,1.075,1.425,1.491,2.499l-0.131,0.219c-1.17,0.115-2.152-0.269-3.003-0.762
				c-0.875-0.486-1.353-1.403-1.941-2.152c-0.592-0.754-1.137-1.536-1.637-2.348c-0.481-0.824-0.967-1.634-1.361-2.505
				L12.081,26.671z"/>
		</g>
		<g>
			<path fill="#003C14" d="M27.337,18.123c0.991,0.745,1.9,1.542,2.754,2.37l1.269,1.251l1.191,1.297
				c1.56,1.747,3.02,3.554,4.359,5.433c1.349,1.873,2.588,3.812,3.744,5.802c1.167,1.981,2.239,4.021,3.205,6.126l-0.743-0.82
				c0.732,0.666,1.417,1.397,2.128,2.092c0.719,0.685,1.372,1.456,2.047,2.2c0.688,0.729,1.297,1.56,1.942,2.34
				c0.613,0.827,1.227,1.653,1.771,2.569l-0.217,0.293l-4.801-3.45l-4.766-3.498l-0.049-0.035l-0.033-0.056
				c-2.402-3.924-4.799-7.853-7.126-11.821l-3.521-5.936c-1.186-1.973-2.312-3.979-3.47-5.968L27.337,18.123z"/>
		</g>
		<g>
			<path fill="#003C14" d="M38.17,13.956l-0.21,0.094c-0.038,0.016-0.039,0.005-0.064,0.006c-0.045,0.009-0.087,0.01-0.091-0.021
				c-0.013-0.021-0.021-0.076-0.061-0.043c-0.039,0.029-0.099,0.14-0.169,0.291c-0.145,0.32-0.349,0.729-0.582,1.051l-0.491,0.729
				c-0.641,0.979-1.246,2.011-1.823,3.061c-1.152,2.105-2.214,4.288-3.182,6.517c0.433-2.395,0.966-4.775,1.619-7.148
				c0.331-1.187,0.694-2.368,1.124-3.553l0.335-0.885c0.053-0.21,0.059-0.371,0.083-0.631c0.016-0.138,0.036-0.318,0.104-0.57
				c0.063-0.251,0.204-0.572,0.375-0.834c0.173-0.275,0.357-0.478,0.539-0.666l0.463-0.426L38.17,13.956z"/>
		</g>
		<g>
			<path fill="#003C14" d="M41.304,25.516c-0.616,0.556-1.176,0.989-1.761,1.471l-1.736,1.401l-3.481,2.781l2.072-3.939l1.024-1.973
				c0.329-0.647,0.697-1.334,0.964-1.934L41.304,25.516z"/>
		</g>
		<g>
			<path fill="#003C14" d="M15.019,37.13c1.412-0.709,2.829-1.19,4.212-1.691c1.388-0.497,2.73-0.945,3.998-1.523
				c0.185-0.078,0.291-0.141,0.649-0.264c0.106-0.024,0.241-0.089,0.582-0.062c0.176,0.019,0.404,0.097,0.578,0.229
				c0.17,0.13,0.261,0.262,0.321,0.362c0.054,0.094,0.085,0.171,0.104,0.229l0.027,0.08l0.01,0.034l0.042,0.196l0.005,0.069
				c0.008,0.076,0.005,0.261-0.022,0.385c-0.108,0.42-0.215,0.507-0.311,0.653c-0.096,0.126-0.181,0.217-0.263,0.303
				c-0.165,0.169-0.31,0.299-0.459,0.427c-0.576,0.499-1.116,0.918-1.575,1.419c-0.941,0.96-1.553,2.202-1.577,3.774
				c-0.366-0.681-0.554-1.501-0.48-2.336c0.06-0.836,0.37-1.659,0.798-2.369c0.429-0.71,0.964-1.345,1.462-1.889
				c0.116-0.136,0.241-0.269,0.326-0.379c0.041-0.054,0.079-0.106,0.092-0.133c0.013-0.005,0.004-0.082-0.06,0.154
				c-0.021,0.078-0.012,0.218-0.002,0.246l-0.013-0.068l0.037,0.178c0.004,0.014,0.017,0.048,0.047,0.101
				c0.035,0.062,0.098,0.155,0.229,0.257c0.136,0.105,0.32,0.169,0.448,0.181c0.247,0.019,0.289-0.021,0.307-0.019
				c0.005,0.001-0.219,0.117-0.375,0.196c-1.437,0.727-2.985,1.133-4.511,1.332C18.114,37.39,16.573,37.419,15.019,37.13z"/>
		</g>
		<g>
			<path fill="#FFFFFF" d="M11.979,46.373h2.553c0,0,7.663-5.96,10.946-7.419"/>
			<path fill="#003C14" d="M11.979,46.282c0.851-0.423,1.702-0.703,2.553-0.912l-0.616,0.211c0.706-0.918,1.504-1.7,2.335-2.452
				c0.853-0.722,1.736-1.403,2.69-1.992c0.943-0.604,1.956-1.116,3.023-1.542c1.081-0.391,2.225-0.75,3.477-0.724l0.074,0.166
				c-0.989,0.467-1.923,1.062-2.845,1.659c-0.92,0.605-1.822,1.237-2.718,1.881c-1.781,1.296-3.594,2.555-5.348,3.893l-0.034,0.024
				h-0.04l-2.553-0.03L11.979,46.282L11.979,46.282z"/>
		</g>
		<g>
			<path fill="#003C14" d="M21.1,40.414c-0.109,1.212-0.018,2.394,0.37,3.438c0.367,1.065,1.052,1.918,1.615,3.17
				c0.284,0.606,0.459,1.477,0.358,2.227c-0.052,0.716-0.173,1.318-0.312,1.944c-0.289,1.231-0.709,2.411-1.226,3.566
				c-0.539,1.144-1.151,2.271-2.037,3.316c-0.446,0.523-0.953,1.032-1.666,1.464c-0.357,0.207-0.783,0.399-1.295,0.479
				c-0.255,0.036-0.526,0.041-0.796,0c-0.134-0.022-0.27-0.049-0.396-0.091l-0.096-0.031c-0.094-0.029-0.056-0.021-0.09-0.033
				l-0.104-0.043c-1.338-0.566-2.299-1.449-3.167-2.356c-0.835-0.943-1.57-1.94-2.107-3.062c1.021,0.695,1.996,1.383,3.01,1.957
				c0.985,0.592,2.036,1.085,2.976,1.286l0.108,0.024c0.001-0.002,0.074,0.021,0.018,0l0.014-0.004
				c0.018-0.001,0.032-0.011,0.047-0.015c0.028-0.012,0.058-0.033,0.097-0.055c0.075-0.038,0.199-0.116,0.337-0.238
				c0.285-0.234,0.599-0.62,0.896-1.029c0.589-0.842,1.146-1.818,1.651-2.824c0.521-1.002,1.001-2.046,1.462-3.085
				c0.227-0.512,0.447-1.06,0.614-1.521c0.138-0.43,0.141-0.786,0.025-1.304c-0.113-0.498-0.333-1.056-0.531-1.645
				c-0.188-0.597-0.353-1.229-0.424-1.874C20.303,42.781,20.581,41.505,21.1,40.414z"/>
		</g>
		<g>
			<path fill="#003C14" d="M23.259,47.003c-1.425,0.976-2.887,1.88-4.339,2.812c-1.463,0.909-2.939,1.794-4.441,2.643
				c-1.514,0.839-2.902,1.899-4.656,2.413c-0.22,0.072-0.447,0.127-0.697,0.188c-0.128,0.029-0.258,0.054-0.426,0.078
				c-0.076,0.011-0.184,0.022-0.302,0.029c-0.101,0.001-0.134,0.006-0.298-0.008L8.02,55.14c-0.793-0.184-1.195-0.526-1.577-0.879
				c-0.722-0.713-1.181-1.517-1.466-2.426l0.196-0.162c0.827,0.391,1.595,0.809,2.288,1.062c0.329,0.114,0.702,0.199,0.768,0.118
				c-0.142-0.01-0.015-0.056,0.15-0.134l0.512-0.247c1.43-0.759,3.125-1.197,4.697-1.847l4.757-1.945l4.795-1.905L23.259,47.003z"/>
		</g>
		<g>
			<path fill="#003C14" d="M25.029,39.952c0.408-1.502,0.795-2.68,1.249-3.838c0.421-1.166,0.92-2.247,1.447-3.308
				c0.267-0.527,0.542-1.049,0.811-1.551l0.399-0.718l0.178-0.304c0.047-0.081,0.101-0.176,0.135-0.095l0.008,0.014l0.004,0.007
				l0.004,0.004c-0.001-0.062,0.002,0.087,0.002,0.07l0.001-0.004l0.015-0.062c0.005-0.018,0.01-0.048,0.015-0.056l0.017,0.027
				c0.029,0.06,0.043-0.016,0.061-0.034c0.031-0.067,0.05-0.17,0.056-0.286c0.042-0.244,0.043-0.544,0.021-0.851
				c-0.003-0.646-0.089-1.333-0.057-2.146l0.203-0.156c0.409,0.518,0.787,1.053,1.118,1.627c0.304,0.586,0.625,1.188,0.635,1.938
				c-0.068,0.723-0.312,1.319-0.543,1.941c-0.243,0.612-0.511,1.214-0.811,1.798c-0.614,1.158-1.306,2.275-2.091,3.327
				c-0.777,1.055-1.671,2.039-2.705,2.848L25.029,39.952z"/>
		</g>
		<g>
			<g>
				<path fill="#003C14" d="M37.164,40.247c-0.402-1.567-2.052-1.888-3.419-1.499c-2.264,0.646-4.491,2.101-6.877,2.223
					c0.34,0.441,0.68,0.885,1.021,1.326c0.345-0.839,0.315-1.981,0.438-2.869c0.16-1.164,0.316-2.33,0.472-3.495
					c0.098-0.725-1.366-1.735-1.495-0.769c-0.124,0.926-0.249,1.852-0.374,2.776c-0.126,0.924-0.201,2.646-0.454,3.265
					c-0.229,0.556,0.445,1.356,1.02,1.327c0.866-0.045,8.282-2.324,8.19-2.682C35.865,40.555,37.434,41.299,37.164,40.247
					L37.164,40.247z"/>
			</g>
		</g>
		<g>
			<path fill="#003C14" d="M31.983,40.074c0.009,1.188-0.014,2.369-0.04,3.551c-0.025,1.184-0.038,2.366-0.09,3.545
				c-0.035,1.182-0.089,2.358-0.16,3.534c-0.073,1.176-0.123,2.354-0.12,3.54l0.002,0.449l-0.658,0.683
				c-0.545,0.567-1.123,1.094-1.745,1.562c-0.626,0.463-1.3,0.864-1.993,1.239c-0.689,0.38-1.427,0.699-2.176,1.005
				c-0.769,0.277-1.549,0.542-2.423,0.685l-0.223-0.289c0.356-0.81,0.809-1.499,1.271-2.173c0.482-0.648,0.979-1.28,1.521-1.854
				c0.536-0.576,1.094-1.129,1.7-1.617c0.607-0.485,1.262-0.912,1.946-1.299l-0.654,1.133c0.326-1.142,0.602-2.288,0.854-3.438
				c0.253-1.149,0.523-2.298,0.812-3.442c0.271-1.147,0.584-2.289,0.884-3.435c0.298-1.144,0.6-2.287,0.933-3.427L31.983,40.074z"/>
		</g>
		<g>
			<path fill="#003C14" d="M23.18,48.43l15.056-2.294l0.386-0.06l-0.19,0.066c0.344-0.119,0.68-0.203,1.016-0.286
				c0.334-0.072,0.656-0.086,1.004-0.226c0.172-0.064,0.345-0.131,0.499-0.104c0.155,0.021,0.292,0.137,0.424,0.273
				c0.259,0.296,0.493,0.715,0.648,1.521l-0.064,0.322c-0.458,0.682-0.837,0.976-1.189,1.146c-0.176,0.074-0.347,0.128-0.497,0.087
				c-0.152-0.034-0.285-0.163-0.419-0.291c-0.267-0.264-0.559-0.399-0.837-0.598c-0.276-0.207-0.555-0.416-0.823-0.659l0.192,0.008
				l-15.163,1.417L23.18,48.43z"/>
		</g>
		<path fill="#003C14" stroke="#003C14" stroke-width="0.3649" stroke-miterlimit="10" d="M35.785,53.336
			c-0.894,1.404,1.916,2.008,2.463,3.559c0.548,1.551,0,2.554,1.188,3.283c1.186,0.729,5.562-0.364,5.654-3.057
			c0.092-2.689-3.981-4.149-6.051-4.333C36.972,52.606,36.424,52.332,35.785,53.336z"/>
	</g>
</g>
<g>
	<path d="M53.188,10.174c-0.468,0.18-1.403,0.444-2.495,0.444c-1.223,0-2.23-0.312-3.021-1.067c-0.696-0.672-1.128-1.751-1.128-3.01
		c0-2.411,1.667-4.174,4.378-4.174c0.936,0,1.679,0.204,2.026,0.372l-0.264,0.852c-0.432-0.204-0.972-0.348-1.787-0.348
		c-1.967,0-3.25,1.223-3.25,3.25c0,2.051,1.224,3.262,3.118,3.262c0.684,0,1.151-0.096,1.392-0.216V7.127h-1.631V6.288h2.662V10.174
		z"/>
</g>
</svg>
