<?xml version="1.0" encoding="utf-8"?>
<!-- Generator: Adobe Illustrator 15.0.0, SVG Export Plug-In . SVG Version: 6.00 Build 0)  -->
<!DOCTYPE svg PUBLIC "-//W3C//DTD SVG 1.1//EN" "http://www.w3.org/Graphics/SVG/1.1/DTD/svg11.dtd">
<svg version="1.1" id="Jihai" xmlns="http://www.w3.org/2000/svg" xmlns:xlink="http://www.w3.org/1999/xlink" x="0px" y="0px"
	 width="54.225px" height="74.066px" viewBox="0 0 54.225 74.066" enable-background="new 0 0 54.225 74.066" xml:space="preserve">
<g id="Chun">
	
		<rect x="0.183" y="0.183" fill="#F6F5F1" stroke="#010202" stroke-width="0.3649" stroke-miterlimit="10" width="53.857" height="73.7"/>
	<g>
		<path fill="#801927" d="M26.666,68.872c-0.341-5.29-0.562-10.579-0.813-15.87c-0.25-5.292-0.436-10.584-0.571-15.879
			l-0.359-15.965c-0.017-1.359,0.02-2.727,0.112-4.082c0.071-1.337,0.269-2.746,0.347-3.839c0.068-0.543,0.001-0.883,0.082-0.693
			c0.044,0.071,0.107,0.125,0.069,0.045c-0.04-0.072-0.173-0.223-0.354-0.389c-0.777-0.688-1.932-1.554-2.949-2.409l2.895-4.188
			l1.713,0.971c0.587,0.336,1.172,0.672,1.848,1.146c0.339,0.241,0.71,0.521,1.121,0.933c0.408,0.406,0.854,1.011,1.143,1.698
			c0.293,0.688,0.401,1.342,0.445,1.863c0.043,0.525,0.038,0.96,0.026,1.355c-0.093,1.546-0.236,2.76-0.395,4.057l-0.456,3.826
			c-0.604,5.158-0.887,10.481-1.197,15.741c-0.318,5.275-0.643,10.556-1.012,15.837c-0.372,5.28-0.692,10.563-1.108,15.846
			L26.666,68.872z"/>
	</g>
	<g>
		<path fill="#801927" d="M8.958,23.751c1.026,0.475,1.854,1.021,2.699,1.538c0.346,0.749,0.71,1.491,1.079,2.187
			c0.182,0.338,0.383,0.689,0.534,0.906c0.03,0.049,0.072,0.099,0.05,0.069l0.196,0.209l0.438,0.469l1.731,1.862l3.449,3.728
			l1.729,1.857c0.168,0.997,0.343,1.987,0.377,3.107c-1.114-0.122-2.087-0.375-3.067-0.62l-1.717-1.868l-3.447-3.723l-1.724-1.854
			l-0.429-0.458l-0.237-0.254c-0.166-0.185-0.25-0.307-0.339-0.431c-0.33-0.48-0.539-0.869-0.76-1.275
			c-0.43-0.798-0.801-1.579-1.174-2.361C8.477,25.824,8.607,24.828,8.958,23.751z"/>
	</g>
	<g>
		<g>
			<path fill="#801927" d="M16.027,31.274c8.787-3.253,17.575-6.507,26.362-9.761c-1.721-0.371-3.439-0.742-5.159-1.113
				c1.387,1.56,4.945,5.116,2.467,6.513c-1.278,0.72-2.048,3.066-2.704,4.228c-1.205,2.128-2.555,4.217-4.104,6.111
				c-0.196,0.24,4.355,2.369,5.35,1.154c1.558-1.904,2.852-4.001,4.104-6.112c0.627-1.055,1.203-2.142,1.814-3.205
				c0.501-0.874,0.858-0.304,1.446-0.883c1.888-1.86-1.896-5.674-3.133-7.064c-1.005-1.128-3.782-1.623-5.159-1.113
				c-8.787,3.253-17.575,6.507-26.362,9.761C10.754,29.86,14.579,31.812,16.027,31.274L16.027,31.274z"/>
		</g>
	</g>
	<g>
		<path fill="#801927" d="M18.779,38.954c0.746-0.479,1.499-0.915,2.27-1.208c0.801-0.046,1.591-0.169,2.387-0.247
			c1.596-0.172,3.167-0.352,4.807-0.47c0.928-0.061,1.705,0.041,2.512,0.083l2.396,0.185l1.194,0.101l0.598,0.05
			c0.1,0.009,0.201-0.011,0.3,0.008c0.099,0.021,0.194,0.071,0.292,0.109c0.773,0.321,1.546,0.65,2.312,1.056
			c-0.824,0.26-1.643,0.45-2.457,0.633c-0.103,0.021-0.205,0.056-0.306,0.06c-0.101,0.001-0.196-0.035-0.297-0.044l-0.595-0.053
			l-1.19-0.1l-2.376-0.184c-0.785-0.044-1.602-0.135-2.269-0.081c-1.544,0.109-3.145,0.292-4.722,0.462
			c-0.789,0.098-1.585,0.153-2.37,0.291C20.449,39.494,19.617,39.243,18.779,38.954z"/>
	</g>
</g>
<g>
	<path d="M48.523,1.891c0.528-0.096,1.296-0.168,2.003-0.168c1.115,0,1.848,0.216,2.339,0.66c0.396,0.36,0.636,0.912,0.636,1.547
		c0,1.055-0.672,1.763-1.511,2.051v0.036c0.611,0.216,0.983,0.792,1.175,1.631c0.264,1.127,0.456,1.907,0.624,2.219H52.71
		c-0.133-0.24-0.312-0.923-0.528-1.931C51.942,6.82,51.498,6.4,50.551,6.365h-0.983v3.502h-1.044V1.891z M49.567,5.573h1.067
		c1.115,0,1.823-0.612,1.823-1.535c0-1.043-0.756-1.5-1.859-1.5c-0.504,0-0.852,0.036-1.031,0.084V5.573z"/>
</g>
</svg>
