<?xml version="1.0" encoding="utf-8"?>
<!-- Generator: Adobe Illustrator 15.0.0, SVG Export Plug-In . SVG Version: 6.00 Build 0)  -->
<!DOCTYPE svg PUBLIC "-//W3C//DTD SVG 1.1//EN" "http://www.w3.org/Graphics/SVG/1.1/DTD/svg11.dtd">
<svg version="1.1" id="Pinzu" xmlns="http://www.w3.org/2000/svg" xmlns:xlink="http://www.w3.org/1999/xlink" x="0px" y="0px"
	 width="54.225px" height="74.066px" viewBox="0 0 54.225 74.066" enable-background="new 0 0 54.225 74.066" xml:space="preserve">
<g id="_x35_pin">
	
		<rect x="0.183" y="0.183" fill="#F6F5F1" stroke="#010202" stroke-width="0.3649" stroke-miterlimit="10" width="53.857" height="73.7"/>
	<g id="Point">
		<g>
			<path fill="#801927" d="M27.117,27.242c-5.407,0-9.791,4.384-9.791,9.791s4.384,9.791,9.791,9.791s9.79-4.384,9.79-9.791
				S32.524,27.242,27.117,27.242z M27.117,44.393c-4.065,0-7.36-3.295-7.36-7.36c0-4.064,3.295-7.36,7.36-7.36
				c4.064,0,7.36,3.296,7.36,7.36C34.477,41.098,31.182,44.393,27.117,44.393z"/>
			<path fill="#801927" d="M33.363,35.003c-1.121-3.449-4.826-5.337-8.275-4.217c-3.449,1.121-5.339,4.826-4.217,8.276
				c1.12,3.45,4.825,5.338,8.275,4.217S34.484,38.454,33.363,35.003z M27.117,31.582c0.709,0,1.386,0.135,2.007,0.381l-0.73,1.847
				c-0.396-0.156-0.825-0.242-1.275-0.242s-0.881,0.086-1.275,0.242l-0.729-1.847C25.732,31.717,26.408,31.582,27.117,31.582z
				 M21.933,35.349c0.219-0.675,0.557-1.276,0.981-1.791l1.53,1.266c-0.271,0.327-0.485,0.71-0.625,1.139
				c-0.139,0.429-0.19,0.864-0.164,1.288l-1.98,0.125C21.633,36.708,21.714,36.022,21.933,35.349z M25.76,42.314
				c-0.646-0.166-1.272-0.455-1.847-0.871c-0.574-0.417-1.042-0.924-1.398-1.488l1.676-1.063c0.228,0.357,0.524,0.681,0.891,0.945
				c0.363,0.266,0.764,0.448,1.173,0.555L25.76,42.314z M27.117,39.223c-1.209,0-2.188-0.98-2.188-2.189s0.979-2.188,2.188-2.188
				s2.189,0.979,2.189,2.188S28.326,39.223,27.117,39.223z M30.321,41.443c-0.573,0.417-1.2,0.706-1.849,0.872l-0.493-1.923
				c0.411-0.105,0.81-0.289,1.175-0.555c0.364-0.265,0.662-0.587,0.89-0.944l1.677,1.063C31.361,40.52,30.894,41.027,30.321,41.443z
				 M32.559,37.375l-1.981-0.125c0.026-0.424-0.023-0.858-0.163-1.289c-0.14-0.428-0.354-0.811-0.625-1.138l1.53-1.266
				c0.426,0.515,0.763,1.115,0.98,1.79C32.521,36.022,32.602,36.708,32.559,37.375z"/>
		</g>
		<circle fill="#FFFFFF" cx="27.117" cy="37.033" r="0.851"/>
	</g>
	<g id="Point_1_">
		<g>
			<path fill="#1F223A" d="M13.989,45.171c-5.407,0-9.79,4.384-9.79,9.791c0,5.408,4.383,9.791,9.79,9.791s9.791-4.384,9.791-9.791
				C23.78,49.555,19.396,45.171,13.989,45.171z M13.989,62.322c-4.064,0-7.36-3.295-7.36-7.36c0-4.064,3.296-7.359,7.36-7.359
				c4.065,0,7.36,3.295,7.36,7.359C21.349,59.027,18.055,62.322,13.989,62.322z"/>
			<path fill="#1F223A" d="M20.235,52.932c-1.12-3.45-4.826-5.337-8.275-4.218c-3.45,1.122-5.338,4.826-4.217,8.276
				c1.12,3.45,4.825,5.338,8.276,4.217C19.469,60.087,21.356,56.382,20.235,52.932z M13.989,49.511c0.709,0,1.386,0.135,2.007,0.381
				l-0.729,1.846c-0.396-0.156-0.825-0.242-1.276-0.242c-0.45,0-0.88,0.086-1.275,0.242l-0.729-1.846
				C12.604,49.646,13.281,49.511,13.989,49.511z M8.805,53.277c0.22-0.674,0.557-1.276,0.982-1.791l1.529,1.265
				c-0.271,0.327-0.485,0.71-0.625,1.14c-0.139,0.428-0.19,0.863-0.163,1.288l-1.981,0.124C8.506,54.636,8.586,53.951,8.805,53.277z
				 M12.632,60.243c-0.646-0.166-1.272-0.455-1.847-0.871c-0.573-0.417-1.042-0.924-1.398-1.487l1.676-1.064
				c0.228,0.359,0.524,0.681,0.891,0.946c0.364,0.265,0.763,0.447,1.174,0.554L12.632,60.243z M13.989,57.151
				c-1.209,0-2.189-0.98-2.189-2.189s0.98-2.188,2.189-2.188s2.189,0.979,2.189,2.188S15.198,57.151,13.989,57.151z M17.193,59.372
				c-0.573,0.417-1.2,0.705-1.848,0.871l-0.494-1.923c0.412-0.105,0.811-0.289,1.176-0.554c0.363-0.266,0.661-0.587,0.889-0.945
				l1.676,1.064C18.234,58.449,17.767,58.956,17.193,59.372z M19.432,55.304l-1.982-0.125c0.027-0.425-0.023-0.859-0.163-1.289
				c-0.14-0.429-0.354-0.812-0.624-1.139l1.529-1.265c0.426,0.514,0.764,1.116,0.981,1.79
				C19.393,53.952,19.474,54.637,19.432,55.304z"/>
		</g>
		<circle fill="#FFFFFF" cx="13.989" cy="54.962" r="0.851"/>
	</g>
	<g id="Point_2_">
		<g>
			<path fill="#1F233B" d="M40.184,45.171c-5.406,0-9.79,4.384-9.79,9.791c0,5.408,4.384,9.791,9.79,9.791s9.791-4.384,9.791-9.791
				C49.975,49.555,45.591,45.171,40.184,45.171z M40.184,62.322c-4.064,0-7.359-3.295-7.359-7.36c0-4.064,3.295-7.359,7.359-7.359
				s7.359,3.295,7.359,7.359C47.544,59.027,44.249,62.322,40.184,62.322z"/>
			<path fill="#1F233B" d="M46.431,52.932c-1.121-3.45-4.827-5.337-8.276-4.218c-3.45,1.122-5.338,4.826-4.217,8.276
				s4.826,5.338,8.275,4.217S47.551,56.382,46.431,52.932z M40.184,49.511c0.709,0,1.386,0.135,2.007,0.381l-0.73,1.846
				c-0.395-0.156-0.824-0.242-1.275-0.242c-0.45,0-0.88,0.086-1.275,0.242l-0.729-1.846C38.799,49.646,39.476,49.511,40.184,49.511z
				 M35,53.277c0.22-0.674,0.557-1.276,0.982-1.791l1.53,1.265c-0.271,0.327-0.486,0.71-0.625,1.14
				c-0.141,0.428-0.19,0.863-0.164,1.288l-1.981,0.124C34.7,54.636,34.781,53.951,35,53.277z M38.826,60.243
				c-0.646-0.166-1.272-0.455-1.846-0.871c-0.574-0.417-1.042-0.924-1.4-1.487l1.677-1.064c0.229,0.359,0.524,0.681,0.891,0.946
				c0.364,0.265,0.763,0.447,1.174,0.554L38.826,60.243z M40.184,57.151c-1.209,0-2.188-0.98-2.188-2.189s0.979-2.188,2.188-2.188
				s2.188,0.979,2.188,2.188S41.393,57.151,40.184,57.151z M43.388,59.372c-0.573,0.417-1.2,0.705-1.849,0.871l-0.493-1.923
				c0.411-0.105,0.811-0.289,1.176-0.554c0.363-0.266,0.66-0.587,0.89-0.945l1.676,1.064C44.429,58.449,43.961,58.956,43.388,59.372
				z M45.626,55.304l-1.98-0.125c0.025-0.425-0.024-0.859-0.164-1.289c-0.14-0.429-0.354-0.812-0.624-1.139l1.529-1.265
				c0.426,0.514,0.764,1.116,0.981,1.79C45.588,53.952,45.668,54.637,45.626,55.304z"/>
		</g>
		<circle fill="#FFFFFF" cx="40.184" cy="54.962" r="0.851"/>
	</g>
	<g id="Point_3_">
		<g>
			<path fill="#1F223A" d="M40.184,9.146c-5.406,0-9.79,4.384-9.79,9.791s4.384,9.791,9.79,9.791s9.791-4.383,9.791-9.791
				S45.591,9.146,40.184,9.146z M40.184,26.297c-4.064,0-7.359-3.295-7.359-7.359c0-4.065,3.295-7.36,7.359-7.36
				s7.359,3.295,7.359,7.36C47.544,23.002,44.249,26.297,40.184,26.297z"/>
			<path fill="#1F223A" d="M46.431,16.908c-1.121-3.45-4.827-5.337-8.276-4.217c-3.45,1.121-5.338,4.826-4.217,8.275
				c1.121,3.45,4.826,5.339,8.275,4.218C45.663,24.062,47.551,20.358,46.431,16.908z M40.184,13.486
				c0.709,0,1.386,0.135,2.007,0.381l-0.73,1.846c-0.395-0.155-0.824-0.241-1.275-0.241c-0.45,0-0.88,0.086-1.275,0.241
				l-0.729-1.846C38.799,13.621,39.476,13.486,40.184,13.486z M35,17.253c0.22-0.674,0.557-1.275,0.982-1.791l1.53,1.267
				c-0.271,0.327-0.486,0.71-0.625,1.139c-0.141,0.428-0.19,0.864-0.164,1.288l-1.981,0.125C34.7,18.612,34.781,17.927,35,17.253z
				 M38.826,24.219c-0.646-0.166-1.272-0.455-1.846-0.871c-0.574-0.417-1.042-0.925-1.4-1.488l1.677-1.064
				c0.229,0.358,0.524,0.682,0.891,0.946c0.364,0.265,0.763,0.449,1.174,0.554L38.826,24.219z M40.184,21.126
				c-1.209,0-2.188-0.979-2.188-2.188s0.979-2.189,2.188-2.189s2.188,0.98,2.188,2.189S41.393,21.126,40.184,21.126z M43.388,23.347
				c-0.573,0.417-1.2,0.706-1.849,0.872l-0.493-1.924c0.411-0.104,0.811-0.289,1.176-0.554c0.363-0.264,0.66-0.587,0.89-0.945
				l1.676,1.064C44.429,22.424,43.961,22.931,43.388,23.347z M45.626,19.279l-1.98-0.125c0.025-0.424-0.024-0.86-0.164-1.289
				c-0.14-0.428-0.354-0.811-0.624-1.138l1.529-1.266c0.426,0.516,0.764,1.116,0.981,1.79
				C45.588,17.927,45.668,18.612,45.626,19.279z"/>
		</g>
		<circle fill="#FFFFFF" cx="40.184" cy="18.937" r="0.851"/>
	</g>
	<g id="Point_4_">
		<g>
			<path fill="#1F223A" d="M13.989,9.146c-5.407,0-9.79,4.384-9.79,9.791s4.383,9.791,9.79,9.791s9.791-4.383,9.791-9.791
				S19.396,9.146,13.989,9.146z M13.989,26.297c-4.064,0-7.36-3.295-7.36-7.359c0-4.065,3.296-7.36,7.36-7.36
				c4.065,0,7.36,3.295,7.36,7.36C21.349,23.002,18.055,26.297,13.989,26.297z"/>
			<path fill="#1F223A" d="M20.235,16.908c-1.12-3.45-4.826-5.337-8.275-4.217c-3.45,1.121-5.338,4.826-4.217,8.275
				c1.12,3.45,4.825,5.339,8.276,4.218C19.469,24.062,21.356,20.358,20.235,16.908z M13.989,13.486c0.709,0,1.386,0.135,2.007,0.381
				l-0.729,1.846c-0.396-0.155-0.825-0.241-1.276-0.241c-0.45,0-0.88,0.086-1.275,0.241l-0.729-1.846
				C12.604,13.621,13.281,13.486,13.989,13.486z M8.805,17.253c0.22-0.674,0.557-1.275,0.982-1.791l1.529,1.267
				c-0.271,0.327-0.485,0.71-0.625,1.139c-0.139,0.428-0.19,0.864-0.163,1.288L8.548,19.28C8.506,18.612,8.586,17.927,8.805,17.253z
				 M12.632,24.219c-0.646-0.166-1.272-0.455-1.847-0.871c-0.573-0.417-1.042-0.925-1.398-1.488l1.676-1.064
				c0.228,0.358,0.524,0.682,0.891,0.946c0.364,0.265,0.763,0.449,1.174,0.554L12.632,24.219z M13.989,21.126
				c-1.209,0-2.189-0.979-2.189-2.188s0.98-2.189,2.189-2.189s2.189,0.98,2.189,2.189C16.179,20.146,15.198,21.126,13.989,21.126z
				 M17.193,23.347c-0.573,0.417-1.2,0.706-1.848,0.872l-0.494-1.924c0.412-0.104,0.811-0.289,1.176-0.554
				c0.363-0.264,0.661-0.587,0.889-0.945l1.676,1.064C18.234,22.424,17.767,22.931,17.193,23.347z M19.432,19.279l-1.982-0.125
				c0.027-0.424-0.023-0.86-0.163-1.289c-0.14-0.428-0.354-0.811-0.624-1.138l1.529-1.266c0.426,0.516,0.764,1.116,0.981,1.79
				C19.392,17.927,19.474,18.612,19.432,19.279z"/>
		</g>
		<circle fill="#FFFFFF" cx="13.989" cy="18.937" r="0.851"/>
	</g>
</g>
<g>
	<path d="M52.472,3.292h-2.975l-0.3,2.003c0.18-0.024,0.348-0.036,0.636-0.036c0.611,0,1.199,0.12,1.679,0.42
		c0.612,0.336,1.115,1.02,1.115,1.991c0,1.523-1.211,2.663-2.902,2.663c-0.852,0-1.559-0.24-1.942-0.479l0.264-0.804
		c0.324,0.192,0.96,0.432,1.679,0.432c0.983,0,1.848-0.647,1.835-1.691c0-1.007-0.684-1.715-2.23-1.715
		c-0.456,0-0.804,0.036-1.091,0.072l0.503-3.742h3.73V3.292z"/>
</g>
</svg>
