<?xml version="1.0" encoding="utf-8"?>
<!-- Generator: Adobe Illustrator 15.0.0, SVG Export Plug-In . SVG Version: 6.00 Build 0)  -->
<!DOCTYPE svg PUBLIC "-//W3C//DTD SVG 1.1//EN" "http://www.w3.org/Graphics/SVG/1.1/DTD/svg11.dtd">
<svg version="1.1" id="Pinzu" xmlns="http://www.w3.org/2000/svg" xmlns:xlink="http://www.w3.org/1999/xlink" x="0px" y="0px"
	 width="54.225px" height="74.066px" viewBox="0 0 54.225 74.066" enable-background="new 0 0 54.225 74.066" xml:space="preserve">
<g id="_x36_pin_1_">
	
		<rect x="0.183" y="0.183" fill="#F6F5F1" stroke="#010202" stroke-width="0.3649" stroke-miterlimit="10" width="53.857" height="73.699"/>
	<g id="Point_25_">
		<g>
			<path fill="#801927" d="M35.243,32.226c-4.491,0-8.133,3.641-8.133,8.131c0,4.491,3.642,8.132,8.133,8.132
				c4.49,0,8.132-3.641,8.132-8.132S39.734,32.226,35.243,32.226z M35.243,46.469c-3.376,0-6.113-2.736-6.113-6.112
				s2.737-6.113,6.113-6.113s6.112,2.737,6.112,6.113S38.619,46.469,35.243,46.469z"/>
			<path fill="#801927" d="M40.431,38.671c-0.932-2.863-4.009-4.433-6.873-3.502c-2.865,0.933-4.435,4.009-3.503,6.874
				c0.932,2.866,4.009,4.436,6.874,3.502C39.794,44.613,41.362,41.537,40.431,38.671z M35.243,35.83
				c0.589,0,1.149,0.112,1.667,0.316l-0.606,1.534c-0.328-0.132-0.687-0.202-1.061-0.202s-0.73,0.069-1.06,0.201l-0.606-1.533
				C34.093,35.942,34.655,35.83,35.243,35.83z M30.938,38.958c0.183-0.56,0.462-1.06,0.814-1.485l1.271,1.051
				c-0.226,0.271-0.402,0.59-0.521,0.945c-0.114,0.355-0.157,0.719-0.136,1.069l-1.646,0.104
				C30.688,40.087,30.756,39.518,30.938,38.958z M34.116,44.743c-0.538-0.138-1.059-0.377-1.534-0.723
				c-0.477-0.348-0.865-0.769-1.162-1.236l1.393-0.884c0.188,0.298,0.438,0.564,0.738,0.786c0.304,0.22,0.635,0.373,0.977,0.46
				L34.116,44.743z M35.243,42.175c-1.005,0-1.818-0.812-1.818-1.816s0.813-1.818,1.818-1.818c1.004,0,1.817,0.814,1.817,1.818
				C37.062,41.361,36.247,42.175,35.243,42.175z M37.904,44.02c-0.478,0.347-0.996,0.586-1.533,0.724l-0.41-1.597
				c0.342-0.088,0.673-0.24,0.977-0.46c0.302-0.222,0.55-0.487,0.737-0.785l1.394,0.884C38.769,43.253,38.38,43.674,37.904,44.02z
				 M39.763,40.641l-1.646-0.104c0.021-0.352-0.021-0.714-0.137-1.07c-0.115-0.354-0.294-0.673-0.52-0.943l1.271-1.051
				c0.354,0.427,0.635,0.927,0.814,1.484C39.731,39.518,39.798,40.087,39.763,40.641z"/>
		</g>
		<circle fill="#FFFFFF" cx="35.243" cy="40.357" r="0.707"/>
	</g>
	<g id="Point_24_">
		<g>
			<path fill="#801927" d="M35.243,48.489c-4.491,0-8.133,3.641-8.133,8.132s3.642,8.132,8.133,8.132
				c4.49,0,8.132-3.641,8.132-8.132S39.734,48.489,35.243,48.489z M35.243,62.734c-3.376,0-6.113-2.737-6.113-6.113
				s2.737-6.113,6.113-6.113s6.112,2.737,6.112,6.113S38.619,62.734,35.243,62.734z"/>
			<path fill="#801927" d="M40.431,54.935c-0.932-2.865-4.009-4.435-6.873-3.502c-2.865,0.932-4.435,4.008-3.503,6.874
				c0.932,2.863,4.009,4.433,6.874,3.502C39.794,60.878,41.362,57.802,40.431,54.935z M35.243,52.094
				c0.589,0,1.149,0.111,1.667,0.315l-0.606,1.534c-0.328-0.13-0.687-0.201-1.061-0.201s-0.73,0.071-1.06,0.201l-0.606-1.534
				C34.093,52.206,34.655,52.094,35.243,52.094z M30.938,55.222c0.183-0.562,0.462-1.062,0.814-1.487l1.271,1.051
				c-0.226,0.272-0.402,0.59-0.521,0.946c-0.114,0.354-0.157,0.718-0.136,1.069l-1.646,0.104
				C30.688,56.351,30.756,55.781,30.938,55.222z M34.116,61.007c-0.538-0.138-1.059-0.377-1.534-0.723
				c-0.477-0.346-0.865-0.767-1.162-1.236l1.393-0.884c0.188,0.298,0.438,0.566,0.738,0.786c0.304,0.22,0.635,0.372,0.977,0.46
				L34.116,61.007z M35.243,58.439c-1.005,0-1.818-0.814-1.818-1.818s0.813-1.817,1.818-1.817c1.004,0,1.817,0.813,1.817,1.817
				C37.062,57.625,36.247,58.439,35.243,58.439z M37.904,60.283c-0.478,0.347-0.996,0.586-1.533,0.724l-0.41-1.597
				c0.342-0.088,0.673-0.24,0.977-0.46c0.302-0.22,0.55-0.488,0.737-0.785l1.394,0.884C38.769,59.517,38.38,59.938,37.904,60.283z
				 M39.763,56.905l-1.646-0.104c0.021-0.353-0.021-0.715-0.137-1.069c-0.115-0.355-0.294-0.673-0.52-0.945l1.271-1.051
				c0.354,0.427,0.635,0.927,0.814,1.486C39.731,55.782,39.798,56.351,39.763,56.905z"/>
		</g>
		<circle fill="#FFFFFF" cx="35.243" cy="56.621" r="0.707"/>
	</g>
	<g id="Point_23_">
		<g>
			<path fill="#801927" d="M18.979,32.226c-4.491,0-8.132,3.641-8.132,8.131c0,4.491,3.641,8.132,8.132,8.132
				s8.132-3.641,8.132-8.132S23.471,32.226,18.979,32.226z M18.979,46.469c-3.376,0-6.112-2.736-6.112-6.112
				s2.736-6.113,6.112-6.113s6.112,2.737,6.112,6.113C25.093,43.733,22.355,46.469,18.979,46.469z"/>
			<path fill="#801927" d="M24.168,38.671c-0.933-2.863-4.009-4.433-6.874-3.502c-2.864,0.933-4.435,4.009-3.502,6.874
				c0.932,2.866,4.008,4.436,6.873,3.502C23.53,44.613,25.099,41.537,24.168,38.671z M18.979,35.83c0.589,0,1.15,0.112,1.667,0.316
				l-0.606,1.534c-0.327-0.132-0.686-0.202-1.061-0.202c-0.374,0-0.73,0.069-1.06,0.201l-0.606-1.533
				C17.829,35.942,18.392,35.83,18.979,35.83z M14.674,38.958c0.183-0.56,0.463-1.06,0.814-1.485l1.271,1.051
				c-0.225,0.271-0.402,0.59-0.52,0.945c-0.115,0.355-0.158,0.719-0.137,1.069L14.46,40.64
				C14.425,40.087,14.492,39.518,14.674,38.958z M17.853,44.743c-0.538-0.138-1.059-0.377-1.534-0.723
				c-0.477-0.348-0.864-0.769-1.161-1.236l1.392-0.884c0.188,0.298,0.438,0.564,0.739,0.786c0.303,0.22,0.634,0.373,0.977,0.46
				L17.853,44.743z M18.979,42.175c-1.004,0-1.817-0.812-1.817-1.816s0.813-1.818,1.817-1.818s1.817,0.814,1.817,1.818
				C20.798,41.361,19.983,42.175,18.979,42.175z M21.641,44.02c-0.477,0.347-0.997,0.586-1.534,0.724l-0.41-1.597
				c0.343-0.088,0.674-0.24,0.977-0.46c0.304-0.222,0.551-0.487,0.738-0.785l1.394,0.884C22.505,43.253,22.116,43.674,21.641,44.02z
				 M23.499,40.641l-1.646-0.104c0.021-0.352-0.021-0.714-0.137-1.07c-0.114-0.354-0.294-0.673-0.52-0.943l1.271-1.051
				c0.354,0.427,0.634,0.927,0.814,1.484C23.468,39.518,23.535,40.087,23.499,40.641z"/>
		</g>
		<circle fill="#FFFFFF" cx="18.979" cy="40.357" r="0.707"/>
	</g>
	<g id="Point_22_">
		<g>
			<path fill="#801927" d="M18.979,48.489c-4.491,0-8.132,3.641-8.132,8.132s3.641,8.132,8.132,8.132s8.132-3.641,8.132-8.132
				S23.471,48.489,18.979,48.489z M18.979,62.734c-3.376,0-6.112-2.737-6.112-6.113s2.736-6.113,6.112-6.113
				s6.112,2.737,6.112,6.113C25.093,59.997,22.355,62.734,18.979,62.734z"/>
			<path fill="#801927" d="M24.168,54.935c-0.933-2.865-4.009-4.435-6.874-3.502c-2.864,0.932-4.435,4.008-3.502,6.874
				c0.932,2.863,4.008,4.433,6.873,3.502C23.53,60.878,25.099,57.802,24.168,54.935z M18.979,52.094c0.589,0,1.15,0.111,1.667,0.315
				l-0.606,1.534c-0.327-0.13-0.686-0.201-1.061-0.201c-0.374,0-0.73,0.071-1.06,0.201l-0.606-1.534
				C17.829,52.206,18.392,52.094,18.979,52.094z M14.674,55.222c0.183-0.562,0.463-1.062,0.814-1.487l1.271,1.051
				c-0.225,0.272-0.402,0.59-0.52,0.946c-0.115,0.354-0.158,0.718-0.137,1.069l-1.646,0.104
				C14.425,56.351,14.492,55.781,14.674,55.222z M17.853,61.007c-0.538-0.138-1.059-0.377-1.534-0.723
				c-0.477-0.346-0.864-0.767-1.161-1.236l1.392-0.884c0.188,0.298,0.438,0.566,0.739,0.786c0.303,0.22,0.634,0.372,0.977,0.46
				L17.853,61.007z M18.979,58.439c-1.004,0-1.817-0.814-1.817-1.818s0.813-1.817,1.817-1.817s1.817,0.813,1.817,1.817
				C20.798,57.625,19.983,58.439,18.979,58.439z M21.641,60.283c-0.477,0.347-0.997,0.586-1.534,0.724l-0.41-1.597
				c0.343-0.088,0.674-0.24,0.977-0.46c0.304-0.22,0.551-0.488,0.738-0.785l1.394,0.884C22.505,59.517,22.116,59.938,21.641,60.283z
				 M23.499,56.905l-1.646-0.104c0.021-0.353-0.021-0.715-0.137-1.069c-0.114-0.355-0.294-0.673-0.52-0.945l1.271-1.051
				c0.354,0.427,0.634,0.927,0.814,1.486C23.468,55.782,23.535,56.351,23.499,56.905z"/>
		</g>
		<circle fill="#FFFFFF" cx="18.979" cy="56.621" r="0.707"/>
	</g>
	<g id="Point_21_">
		<g>
			<path fill="#1F233B" d="M35.243,9.146c-4.491,0-8.133,3.641-8.133,8.132s3.642,8.132,8.133,8.132c4.49,0,8.132-3.641,8.132-8.132
				S39.734,9.146,35.243,9.146z M35.243,23.392c-3.376,0-6.113-2.737-6.113-6.113s2.737-6.113,6.113-6.113s6.112,2.737,6.112,6.113
				S38.619,23.392,35.243,23.392z"/>
			<path fill="#1F233B" d="M40.431,15.594c-0.932-2.864-4.009-4.434-6.873-3.503c-2.865,0.933-4.435,4.01-3.503,6.874
				c0.932,2.866,4.009,4.436,6.874,3.502C39.794,21.535,41.362,18.458,40.431,15.594z M35.243,12.751
				c0.589,0,1.149,0.112,1.667,0.316L36.303,14.6c-0.328-0.131-0.687-0.201-1.061-0.201s-0.73,0.07-1.06,0.201l-0.606-1.533
				C34.093,12.863,34.655,12.751,35.243,12.751z M30.938,15.879c0.183-0.56,0.462-1.06,0.814-1.485l1.271,1.051
				c-0.226,0.271-0.402,0.59-0.521,0.946c-0.114,0.354-0.157,0.718-0.136,1.068l-1.646,0.104
				C30.688,17.008,30.756,16.438,30.938,15.879z M34.116,21.665c-0.538-0.138-1.059-0.377-1.534-0.723
				c-0.477-0.346-0.865-0.77-1.162-1.236l1.393-0.883c0.188,0.297,0.438,0.566,0.738,0.786c0.303,0.22,0.635,0.372,0.977,0.46
				L34.116,21.665z M35.243,19.097c-1.005,0-1.818-0.814-1.818-1.818s0.813-1.818,1.818-1.818c1.004,0,1.817,0.814,1.817,1.818
				S36.247,19.097,35.243,19.097z M37.904,20.941c-0.478,0.347-0.996,0.586-1.533,0.724l-0.41-1.597
				c0.342-0.088,0.673-0.24,0.977-0.46c0.302-0.22,0.55-0.488,0.737-0.785l1.394,0.884C38.769,20.174,38.38,20.594,37.904,20.941z
				 M39.763,17.562l-1.646-0.104c0.021-0.352-0.021-0.714-0.137-1.068c-0.115-0.355-0.294-0.675-0.52-0.945l1.271-1.051
				c0.354,0.427,0.635,0.927,0.814,1.484C39.731,16.439,39.798,17.009,39.763,17.562z"/>
		</g>
		<circle fill="#FFFFFF" cx="35.243" cy="17.278" r="0.707"/>
	</g>
	<g id="Point_20_">
		<g>
			<path fill="#1F233B" d="M18.979,9.146c-4.491,0-8.132,3.641-8.132,8.132s3.641,8.132,8.132,8.132s8.132-3.641,8.132-8.132
				S23.471,9.146,18.979,9.146z M18.979,23.392c-3.376,0-6.112-2.737-6.112-6.113s2.736-6.113,6.112-6.113s6.112,2.737,6.112,6.113
				C25.093,20.655,22.355,23.392,18.979,23.392z"/>
			<path fill="#1F233B" d="M24.168,15.594c-0.933-2.864-4.009-4.434-6.874-3.503c-2.864,0.933-4.435,4.01-3.502,6.874
				c0.932,2.866,4.008,4.436,6.873,3.502C23.53,21.535,25.099,18.458,24.168,15.594z M18.979,12.751c0.589,0,1.15,0.112,1.667,0.316
				L20.039,14.6c-0.327-0.131-0.686-0.201-1.061-0.201c-0.374,0-0.73,0.07-1.06,0.201l-0.606-1.533
				C17.829,12.863,18.392,12.751,18.979,12.751z M14.674,15.879c0.183-0.56,0.463-1.06,0.814-1.485l1.271,1.051
				c-0.225,0.271-0.402,0.59-0.52,0.946c-0.115,0.354-0.158,0.718-0.137,1.068l-1.646,0.104
				C14.425,17.008,14.492,16.438,14.674,15.879z M17.853,21.665c-0.538-0.138-1.059-0.377-1.534-0.723
				c-0.478-0.346-0.864-0.77-1.161-1.236l1.392-0.883c0.188,0.297,0.438,0.566,0.739,0.786c0.301,0.22,0.634,0.372,0.977,0.46
				L17.853,21.665z M18.979,19.097c-1.004,0-1.817-0.814-1.817-1.818s0.813-1.818,1.817-1.818s1.817,0.814,1.817,1.818
				S19.983,19.097,18.979,19.097z M21.641,20.941c-0.477,0.347-0.997,0.586-1.534,0.724l-0.41-1.597
				c0.343-0.088,0.674-0.24,0.977-0.46c0.304-0.22,0.551-0.488,0.738-0.785l1.394,0.884C22.505,20.174,22.116,20.594,21.641,20.941z
				 M23.499,17.562l-1.646-0.104c0.021-0.352-0.021-0.714-0.137-1.068c-0.114-0.355-0.294-0.675-0.52-0.945l1.271-1.051
				c0.354,0.427,0.634,0.927,0.814,1.484C23.468,16.439,23.535,17.009,23.499,17.562z"/>
		</g>
		<circle fill="#FFFFFF" cx="18.979" cy="17.278" r="0.707"/>
	</g>
</g>
<g>
	<path d="M51.936,2.481c-0.216-0.012-0.492,0.012-0.792,0.06c-1.667,0.264-2.53,1.463-2.71,2.758h0.023
		c0.372-0.503,1.032-0.911,1.896-0.911c1.379,0,2.351,1.007,2.351,2.519c0,1.439-0.972,2.758-2.603,2.758
		c-1.655,0-2.746-1.295-2.746-3.322c0-1.535,0.539-2.746,1.318-3.514c0.648-0.636,1.512-1.032,2.495-1.151
		c0.312-0.048,0.575-0.06,0.768-0.06V2.481z M51.636,6.979c0-1.115-0.636-1.787-1.607-1.787c-0.636,0-1.235,0.384-1.522,0.959
		c-0.061,0.12-0.108,0.264-0.108,0.456c0.012,1.283,0.611,2.243,1.728,2.243C51.025,8.85,51.636,8.094,51.636,6.979z"/>
</g>
</svg>
