<?xml version="1.0" encoding="utf-8"?>
<!-- Generator: Adobe Illustrator 15.0.0, SVG Export Plug-In . SVG Version: 6.00 Build 0)  -->
<!DOCTYPE svg PUBLIC "-//W3C//DTD SVG 1.1//EN" "http://www.w3.org/Graphics/SVG/1.1/DTD/svg11.dtd">
<svg version="1.1" id="Pinzu" xmlns="http://www.w3.org/2000/svg" xmlns:xlink="http://www.w3.org/1999/xlink" x="0px" y="0px"
	 width="54.225px" height="74.066px" viewBox="0 0 54.225 74.066" enable-background="new 0 0 54.225 74.066" xml:space="preserve">
<g id="_x37_pin">
	
		<rect x="0.183" y="0.183" fill="#F6F5F1" stroke="#010202" stroke-width="0.3649" stroke-miterlimit="10" width="53.857" height="73.7"/>
	<g id="Point_35_">
		<g>
			<path fill="#801927" d="M35.243,32.226c-4.491,0-8.132,3.641-8.132,8.131c0,4.491,3.641,8.132,8.132,8.132
				s8.132-3.641,8.132-8.132S39.734,32.226,35.243,32.226z M35.243,46.47c-3.376,0-6.113-2.737-6.113-6.113s2.737-6.113,6.113-6.113
				s6.113,2.737,6.113,6.113S38.619,46.47,35.243,46.47z"/>
			<path fill="#801927" d="M40.431,38.671c-0.932-2.864-4.009-4.433-6.873-3.502c-2.865,0.932-4.435,4.009-3.503,6.874
				c0.932,2.866,4.009,4.435,6.874,3.502C39.794,44.613,41.362,41.537,40.431,38.671z M35.243,35.83c0.589,0,1.15,0.112,1.667,0.316
				l-0.606,1.534c-0.328-0.131-0.687-0.202-1.061-0.202s-0.73,0.07-1.06,0.201l-0.606-1.533
				C34.093,35.942,34.654,35.83,35.243,35.83z M30.938,38.958c0.182-0.56,0.462-1.06,0.814-1.486l1.271,1.051
				c-0.227,0.271-0.403,0.59-0.521,0.946c-0.114,0.355-0.157,0.718-0.136,1.069l-1.646,0.104
				C30.688,40.087,30.756,39.518,30.938,38.958z M34.115,44.743c-0.537-0.138-1.058-0.377-1.533-0.723
				c-0.477-0.347-0.865-0.768-1.162-1.236l1.393-0.884c0.188,0.298,0.437,0.565,0.738,0.786c0.304,0.22,0.635,0.373,0.976,0.46
				L34.115,44.743z M35.243,42.175c-1.004,0-1.818-0.813-1.818-1.817s0.814-1.818,1.818-1.818s1.818,0.814,1.818,1.818
				C37.062,41.361,36.247,42.175,35.243,42.175z M37.904,44.02c-0.478,0.347-0.997,0.586-1.534,0.724l-0.41-1.597
				c0.341-0.088,0.673-0.24,0.977-0.46c0.302-0.221,0.55-0.487,0.737-0.785l1.394,0.884C38.769,43.253,38.38,43.674,37.904,44.02z
				 M39.763,40.641l-1.646-0.104c0.021-0.352-0.02-0.714-0.136-1.07c-0.116-0.354-0.294-0.673-0.52-0.944l1.271-1.051
				c0.354,0.427,0.634,0.927,0.814,1.485C39.731,39.518,39.798,40.087,39.763,40.641z"/>
		</g>
		<circle fill="#FFFFFF" cx="35.243" cy="40.357" r="0.707"/>
	</g>
	<g id="Point_34_">
		<g>
			<path fill="#801927" d="M35.243,48.489c-4.491,0-8.132,3.641-8.132,8.132s3.641,8.132,8.132,8.132s8.132-3.641,8.132-8.132
				S39.734,48.489,35.243,48.489z M35.243,62.734c-3.376,0-6.113-2.737-6.113-6.113s2.737-6.113,6.113-6.113
				s6.113,2.737,6.113,6.113S38.619,62.734,35.243,62.734z"/>
			<path fill="#801927" d="M40.431,54.935c-0.932-2.865-4.009-4.434-6.873-3.502c-2.865,0.932-4.435,4.008-3.503,6.874
				c0.932,2.864,4.009,4.433,6.874,3.502C39.794,60.878,41.362,57.802,40.431,54.935z M35.243,52.094
				c0.589,0,1.15,0.111,1.667,0.315l-0.606,1.534c-0.328-0.13-0.687-0.201-1.061-0.201s-0.73,0.071-1.06,0.201l-0.606-1.534
				C34.093,52.206,34.654,52.094,35.243,52.094z M30.938,55.222c0.182-0.561,0.462-1.061,0.814-1.487l1.271,1.051
				c-0.227,0.272-0.403,0.59-0.521,0.946c-0.114,0.355-0.157,0.718-0.136,1.07l-1.646,0.103
				C30.688,56.351,30.756,55.781,30.938,55.222z M34.115,61.007c-0.537-0.138-1.058-0.377-1.533-0.723
				c-0.477-0.346-0.865-0.767-1.162-1.236l1.393-0.884c0.188,0.298,0.437,0.566,0.738,0.786c0.304,0.22,0.635,0.372,0.976,0.46
				L34.115,61.007z M35.243,58.439c-1.004,0-1.818-0.814-1.818-1.818s0.814-1.817,1.818-1.817s1.818,0.813,1.818,1.817
				C37.062,57.625,36.247,58.439,35.243,58.439z M37.904,60.283c-0.478,0.347-0.997,0.586-1.534,0.724l-0.41-1.597
				c0.341-0.088,0.673-0.24,0.977-0.46c0.302-0.22,0.55-0.488,0.737-0.785l1.394,0.884C38.769,59.517,38.38,59.938,37.904,60.283z
				 M39.763,56.905l-1.646-0.104c0.021-0.353-0.02-0.715-0.136-1.07s-0.294-0.673-0.52-0.945l1.271-1.051
				c0.354,0.427,0.634,0.927,0.814,1.486C39.731,55.782,39.798,56.351,39.763,56.905z"/>
		</g>
		<circle fill="#FFFFFF" cx="35.243" cy="56.621" r="0.707"/>
	</g>
	<g id="Point_33_">
		<g>
			<path fill="#801927" d="M18.979,32.226c-4.491,0-8.132,3.641-8.132,8.131c0,4.491,3.641,8.132,8.132,8.132
				s8.132-3.641,8.132-8.132S23.471,32.226,18.979,32.226z M18.979,46.47c-3.376,0-6.113-2.737-6.113-6.113s2.737-6.113,6.113-6.113
				s6.112,2.737,6.112,6.113C25.093,43.733,22.355,46.47,18.979,46.47z"/>
			<path fill="#801927" d="M24.168,38.671c-0.932-2.864-4.009-4.433-6.874-3.502c-2.864,0.932-4.434,4.009-3.503,6.874
				c0.933,2.866,4.009,4.435,6.874,3.502C23.53,44.613,25.099,41.537,24.168,38.671z M18.979,35.83c0.589,0,1.15,0.112,1.667,0.316
				l-0.607,1.534c-0.328-0.131-0.686-0.202-1.06-0.202s-0.731,0.07-1.061,0.201l-0.605-1.533
				C17.829,35.942,18.391,35.83,18.979,35.83z M14.674,38.958c0.183-0.56,0.463-1.06,0.815-1.486l1.271,1.051
				c-0.225,0.271-0.402,0.59-0.52,0.946c-0.115,0.355-0.158,0.718-0.136,1.069L14.46,40.64
				C14.425,40.087,14.492,39.518,14.674,38.958z M17.852,44.743c-0.537-0.138-1.058-0.377-1.533-0.723
				c-0.477-0.347-0.865-0.768-1.162-1.236l1.392-0.884c0.189,0.298,0.438,0.565,0.739,0.786c0.303,0.22,0.634,0.373,0.976,0.46
				L17.852,44.743z M18.979,42.175c-1.004,0-1.818-0.813-1.818-1.817s0.814-1.818,1.818-1.818s1.817,0.814,1.817,1.818
				C20.798,41.361,19.983,42.175,18.979,42.175z M21.641,44.02c-0.478,0.347-0.997,0.586-1.534,0.724l-0.41-1.597
				c0.342-0.088,0.673-0.24,0.976-0.46c0.304-0.221,0.551-0.487,0.738-0.785l1.394,0.884C22.505,43.253,22.116,43.674,21.641,44.02z
				 M23.499,40.641l-1.646-0.104c0.021-0.352-0.021-0.714-0.137-1.07c-0.115-0.354-0.294-0.673-0.519-0.944l1.271-1.051
				c0.354,0.427,0.634,0.927,0.814,1.485C23.468,39.518,23.535,40.087,23.499,40.641z"/>
		</g>
		<circle fill="#FFFFFF" cx="18.979" cy="40.357" r="0.707"/>
	</g>
	<g id="Point_32_">
		<g>
			<path fill="#801927" d="M18.979,48.489c-4.491,0-8.132,3.641-8.132,8.132s3.641,8.132,8.132,8.132s8.132-3.641,8.132-8.132
				S23.471,48.489,18.979,48.489z M18.979,62.734c-3.376,0-6.113-2.737-6.113-6.113s2.737-6.113,6.113-6.113
				s6.112,2.737,6.112,6.113C25.093,59.997,22.355,62.734,18.979,62.734z"/>
			<path fill="#801927" d="M24.168,54.935c-0.932-2.865-4.009-4.434-6.874-3.502c-2.864,0.932-4.434,4.008-3.503,6.874
				c0.933,2.864,4.009,4.433,6.874,3.502C23.53,60.878,25.099,57.802,24.168,54.935z M18.979,52.094c0.589,0,1.15,0.111,1.667,0.315
				l-0.607,1.534c-0.328-0.13-0.686-0.201-1.06-0.201s-0.731,0.071-1.061,0.201l-0.605-1.534
				C17.829,52.206,18.391,52.094,18.979,52.094z M14.674,55.222c0.183-0.561,0.463-1.061,0.815-1.487l1.271,1.051
				c-0.225,0.272-0.402,0.59-0.52,0.946c-0.115,0.355-0.158,0.718-0.136,1.07l-1.646,0.103
				C14.425,56.351,14.492,55.781,14.674,55.222z M17.852,61.007c-0.537-0.138-1.058-0.377-1.533-0.723
				c-0.477-0.346-0.865-0.767-1.162-1.236l1.392-0.884c0.189,0.298,0.438,0.566,0.739,0.786c0.303,0.22,0.634,0.372,0.976,0.46
				L17.852,61.007z M18.979,58.439c-1.004,0-1.818-0.814-1.818-1.818s0.814-1.817,1.818-1.817s1.817,0.813,1.817,1.817
				C20.798,57.625,19.983,58.439,18.979,58.439z M21.641,60.283c-0.478,0.347-0.997,0.586-1.534,0.724l-0.41-1.597
				c0.342-0.088,0.673-0.24,0.976-0.46c0.304-0.22,0.551-0.488,0.738-0.785l1.394,0.884C22.505,59.517,22.116,59.938,21.641,60.283z
				 M23.499,56.905l-1.646-0.104c0.021-0.353-0.021-0.715-0.137-1.07c-0.115-0.355-0.294-0.673-0.519-0.945l1.271-1.051
				c0.354,0.427,0.634,0.927,0.814,1.486C23.468,55.782,23.535,56.351,23.499,56.905z"/>
		</g>
		<circle fill="#FFFFFF" cx="18.979" cy="56.621" r="0.707"/>
	</g>
	<g id="Point_26_">
		<g>
			<path fill="#1F233B" d="M30.486,11.362c-4.087-1.864-8.909-0.062-10.773,4.023c-1.862,4.087-0.062,8.909,4.023,10.772
				c4.087,1.864,8.91,0.062,10.772-4.024C36.374,18.049,34.571,13.226,30.486,11.362z M24.574,24.322
				c-3.071-1.401-4.426-5.026-3.024-8.099c1.4-3.071,5.026-4.427,8.1-3.024c3.071,1.401,4.426,5.026,3.023,8.098
				C31.271,24.369,27.646,25.723,24.574,24.322z"/>
			<path fill="#1F233B" d="M32.531,19.38c0.342-2.992-1.808-5.696-4.8-6.039c-2.994-0.342-5.698,1.808-6.04,4.801
				c-0.342,2.994,1.807,5.696,4.801,6.039C29.485,24.522,32.189,22.374,32.531,19.38z M28.99,14.641
				c0.536,0.245,1.001,0.58,1.386,0.979l-1.188,1.144c-0.244-0.254-0.54-0.468-0.88-0.623c-0.342-0.155-0.695-0.239-1.049-0.258
				l0.084-1.646C27.897,14.266,28.455,14.397,28.99,14.641z M23.774,15.701c0.396-0.434,0.859-0.772,1.358-1.015l0.722,1.482
				c-0.317,0.154-0.612,0.369-0.865,0.646c-0.252,0.275-0.441,0.587-0.567,0.917l-1.54-0.589
				C23.08,16.625,23.377,16.134,23.774,15.701z M24.266,22.283c-0.433-0.349-0.807-0.782-1.096-1.294
				c-0.29-0.512-0.47-1.057-0.545-1.607l1.632-0.227c0.05,0.35,0.163,0.696,0.349,1.022c0.184,0.325,0.422,0.602,0.694,0.822
				L24.266,22.283z M26.356,20.415c-0.914-0.417-1.316-1.495-0.899-2.409s1.495-1.315,2.409-0.898
				c0.913,0.417,1.316,1.495,0.899,2.409S27.271,20.832,26.356,20.415z M28.013,23.197c-0.577,0.118-1.15,0.119-1.697,0.022
				l0.29-1.624c0.348,0.062,0.712,0.061,1.079-0.015c0.365-0.074,0.702-0.216,0.998-0.408l0.898,1.383
				C29.117,22.858,28.589,23.081,28.013,23.197z M31.105,20.895l-1.454-0.777c0.166-0.311,0.278-0.658,0.32-1.03
				s0.012-0.734-0.079-1.074l1.592-0.43c0.145,0.536,0.19,1.106,0.125,1.691C31.543,19.859,31.367,20.405,31.105,20.895z"/>
		</g>
		<circle fill="#FFFFFF" cx="27.111" cy="18.761" r="0.707"/>
	</g>
	<g id="Point_28_">
		<g>
			<path fill="#1F233B" d="M45.283,18.111c-4.087-1.864-8.909-0.062-10.773,4.024c-1.863,4.086-0.062,8.908,4.023,10.772
				s8.91,0.062,10.773-4.024C51.171,24.798,49.369,19.975,45.283,18.111z M39.371,31.071c-3.071-1.401-4.426-5.027-3.024-8.099
				c1.4-3.072,5.026-4.427,8.1-3.025c3.071,1.401,4.426,5.027,3.024,8.099C46.068,31.118,42.443,32.473,39.371,31.071z"/>
			<path fill="#1F233B" d="M47.328,26.129c0.342-2.992-1.809-5.695-4.801-6.039c-2.993-0.342-5.697,1.808-6.039,4.801
				s1.807,5.696,4.801,6.039C44.282,31.271,46.986,29.123,47.328,26.129z M43.787,21.39c0.535,0.245,1.001,0.58,1.385,0.979
				l-1.188,1.144c-0.244-0.255-0.54-0.468-0.881-0.623c-0.341-0.156-0.694-0.239-1.047-0.258l0.084-1.646
				C42.693,21.015,43.251,21.146,43.787,21.39z M38.57,22.45c0.397-0.434,0.861-0.772,1.36-1.015l0.721,1.483
				c-0.318,0.154-0.612,0.369-0.865,0.646c-0.253,0.275-0.44,0.587-0.566,0.917l-1.54-0.589
				C37.877,23.374,38.174,22.883,38.57,22.45z M39.062,29.032c-0.433-0.349-0.807-0.782-1.097-1.294
				c-0.29-0.513-0.469-1.057-0.545-1.606l1.635-0.227c0.048,0.349,0.161,0.696,0.347,1.022c0.184,0.325,0.422,0.601,0.696,0.822
				L39.062,29.032z M41.153,27.164c-0.913-0.417-1.316-1.495-0.899-2.409s1.495-1.315,2.408-0.898
				c0.914,0.417,1.317,1.495,0.9,2.409C43.146,27.178,42.066,27.581,41.153,27.164z M42.81,29.946
				c-0.578,0.118-1.15,0.119-1.697,0.022l0.29-1.624c0.348,0.062,0.712,0.061,1.079-0.015c0.366-0.074,0.702-0.215,0.997-0.408
				l0.899,1.383C43.914,29.608,43.386,29.829,42.81,29.946z M45.902,27.644l-1.454-0.777c0.166-0.311,0.278-0.658,0.32-1.03
				s0.012-0.734-0.079-1.074l1.591-0.43c0.146,0.535,0.192,1.106,0.126,1.691S46.165,27.155,45.902,27.644z"/>
		</g>
		<circle fill="#FFFFFF" cx="41.908" cy="25.51" r="0.707"/>
	</g>
	<g id="Point_27_">
		<g>
			<path fill="#1F233B" d="M15.688,4.613C11.603,2.749,6.779,4.552,4.916,8.637c-1.864,4.086-0.062,8.908,4.023,10.772
				s8.909,0.062,10.772-4.023C21.576,11.3,19.774,6.477,15.688,4.613z M9.777,17.573c-3.072-1.401-4.426-5.027-3.025-8.099
				c1.401-3.072,5.027-4.427,8.101-3.024c3.07,1.4,4.426,5.026,3.023,8.098C16.474,17.62,12.85,18.974,9.777,17.573z"/>
			<path fill="#1F233B" d="M17.734,12.63c0.342-2.992-1.809-5.695-4.801-6.039c-2.994-0.342-5.697,1.808-6.039,4.801
				c-0.343,2.994,1.808,5.696,4.801,6.039S17.392,15.624,17.734,12.63z M14.193,7.892c0.535,0.244,1,0.58,1.385,0.979l-1.188,1.145
				c-0.244-0.254-0.54-0.469-0.882-0.624c-0.341-0.155-0.693-0.238-1.047-0.256l0.084-1.647C13.1,7.517,13.657,7.648,14.193,7.892z
				 M8.977,8.952c0.396-0.434,0.86-0.772,1.359-1.015l0.722,1.482c-0.318,0.154-0.612,0.369-0.865,0.646
				c-0.253,0.275-0.442,0.587-0.567,0.917l-1.54-0.589C8.282,9.875,8.58,9.385,8.977,8.952z M9.468,15.534
				c-0.431-0.349-0.806-0.783-1.095-1.295c-0.29-0.512-0.469-1.057-0.545-1.606l1.633-0.227c0.049,0.349,0.163,0.696,0.348,1.022
				c0.185,0.325,0.423,0.602,0.695,0.822L9.468,15.534z M11.56,13.666c-0.913-0.417-1.316-1.495-0.899-2.409
				c0.416-0.913,1.495-1.316,2.408-0.899c0.914,0.417,1.315,1.495,0.9,2.409C13.552,13.68,12.473,14.082,11.56,13.666z
				 M13.216,16.448c-0.576,0.117-1.149,0.119-1.696,0.021l0.29-1.624c0.347,0.062,0.711,0.061,1.079-0.014
				c0.364-0.075,0.701-0.216,0.996-0.408l0.9,1.383C14.32,16.109,13.792,16.331,13.216,16.448z M16.309,14.146l-1.454-0.777
				c0.166-0.311,0.276-0.658,0.319-1.03c0.042-0.372,0.012-0.734-0.078-1.074l1.592-0.43c0.145,0.536,0.19,1.106,0.124,1.691
				C16.746,13.11,16.57,13.656,16.309,14.146z"/>
		</g>
		<circle fill="#FFFFFF" cx="12.314" cy="12.011" r="0.707"/>
	</g>
</g>
<g>
	<path d="M53.213,2.238v0.696l-3.394,7.1h-1.092l3.382-6.896V3.113h-3.813V2.238H53.213z"/>
</g>
</svg>
