<?xml version="1.0" encoding="utf-8"?>
<!-- Generator: Adobe Illustrator 15.0.0, SVG Export Plug-In . SVG Version: 6.00 Build 0)  -->
<!DOCTYPE svg PUBLIC "-//W3C//DTD SVG 1.1//EN" "http://www.w3.org/Graphics/SVG/1.1/DTD/svg11.dtd">
<svg version="1.1" id="Pinzu" xmlns="http://www.w3.org/2000/svg" xmlns:xlink="http://www.w3.org/1999/xlink" x="0px" y="0px"
	 width="54.225px" height="74.066px" viewBox="0 0 54.225 74.066" enable-background="new 0 0 54.225 74.066" xml:space="preserve">
<g id="_x38_pin_1_">
	
		<rect x="0.183" y="0.183" fill="#F6F5F1" stroke="#010202" stroke-width="0.3649" stroke-miterlimit="10" width="53.857" height="73.7"/>
	<g id="Point_40_">
		<g>
			<path fill="#1F233B" d="M35.243,37.033c-4.491,0-8.132,3.641-8.132,8.132s3.641,8.132,8.132,8.132s8.132-3.641,8.132-8.132
				S39.734,37.033,35.243,37.033z M35.243,51.278c-3.377,0-6.113-2.737-6.113-6.113s2.736-6.112,6.113-6.112
				c3.376,0,6.112,2.736,6.112,6.112S38.619,51.278,35.243,51.278z"/>
			<path fill="#1F233B" d="M40.431,43.479c-0.932-2.865-4.01-4.434-6.873-3.502c-2.865,0.931-4.435,4.008-3.503,6.874
				c0.932,2.865,4.009,4.434,6.874,3.502C39.794,49.421,41.362,46.344,40.431,43.479z M35.243,40.637
				c0.588,0,1.15,0.111,1.667,0.315l-0.606,1.533c-0.328-0.13-0.687-0.201-1.061-0.201s-0.73,0.071-1.06,0.201l-0.606-1.533
				C34.093,40.749,34.654,40.637,35.243,40.637z M30.938,43.766c0.182-0.561,0.462-1.061,0.814-1.487l1.271,1.051
				c-0.227,0.272-0.403,0.59-0.521,0.946c-0.114,0.355-0.157,0.718-0.136,1.07l-1.646,0.103
				C30.688,44.894,30.755,44.325,30.938,43.766z M34.115,49.552c-0.537-0.139-1.058-0.378-1.533-0.725
				c-0.477-0.346-0.865-0.767-1.162-1.236l1.393-0.883c0.188,0.297,0.437,0.565,0.738,0.786c0.304,0.22,0.635,0.372,0.976,0.46
				L34.115,49.552z M35.243,46.983c-1.004,0-1.818-0.814-1.818-1.818s0.814-1.817,1.818-1.817s1.818,0.813,1.818,1.817
				S36.247,46.983,35.243,46.983z M37.904,48.827c-0.478,0.347-0.997,0.586-1.535,0.725l-0.41-1.598
				c0.342-0.088,0.673-0.24,0.978-0.46c0.302-0.22,0.55-0.488,0.737-0.785l1.393,0.885C38.769,48.061,38.38,48.481,37.904,48.827z
				 M39.763,45.449l-1.646-0.104c0.021-0.353-0.021-0.715-0.136-1.07c-0.116-0.355-0.295-0.673-0.52-0.945l1.271-1.051
				c0.354,0.427,0.634,0.927,0.814,1.486C39.731,44.325,39.798,44.895,39.763,45.449z"/>
		</g>
		<circle fill="#FFFFFF" cx="35.243" cy="45.165" r="0.707"/>
	</g>
	<g id="Point_39_">
		<g>
			<path fill="#1F233B" d="M35.243,53.296c-4.491,0-8.132,3.642-8.132,8.133c0,4.49,3.641,8.132,8.132,8.132
				s8.132-3.642,8.132-8.132S39.734,53.296,35.243,53.296z M35.243,67.542c-3.377,0-6.113-2.736-6.113-6.112
				s2.736-6.113,6.113-6.113c3.376,0,6.112,2.737,6.112,6.113S38.619,67.542,35.243,67.542z"/>
			<path fill="#1F233B" d="M40.431,59.743c-0.932-2.865-4.01-4.433-6.873-3.502c-2.865,0.931-4.435,4.008-3.503,6.874
				s4.009,4.434,6.874,3.502C39.794,65.685,41.362,62.608,40.431,59.743z M35.243,56.901c0.588,0,1.15,0.112,1.667,0.315
				l-0.606,1.534c-0.328-0.13-0.687-0.202-1.061-0.202s-0.73,0.071-1.06,0.201l-0.606-1.533
				C34.093,57.013,34.654,56.901,35.243,56.901z M30.938,60.029c0.182-0.56,0.462-1.06,0.814-1.487l1.271,1.052
				c-0.227,0.271-0.403,0.59-0.521,0.945c-0.114,0.356-0.157,0.718-0.136,1.07l-1.646,0.103
				C30.688,61.158,30.755,60.589,30.938,60.029z M34.115,65.814c-0.537-0.138-1.058-0.377-1.533-0.724
				c-0.477-0.346-0.865-0.767-1.162-1.235l1.393-0.884c0.188,0.298,0.437,0.564,0.738,0.785c0.303,0.222,0.635,0.372,0.976,0.46
				L34.115,65.814z M35.243,63.247c-1.004,0-1.818-0.813-1.818-1.817c0-1.005,0.814-1.818,1.818-1.818s1.818,0.813,1.818,1.818
				C37.061,62.433,36.247,63.247,35.243,63.247z M37.904,65.091c-0.478,0.348-0.997,0.587-1.535,0.725l-0.41-1.597
				c0.342-0.089,0.673-0.24,0.978-0.461c0.302-0.22,0.55-0.487,0.737-0.784l1.393,0.884C38.769,64.324,38.38,64.745,37.904,65.091z
				 M39.763,61.712l-1.646-0.104c0.021-0.353-0.021-0.714-0.136-1.07c-0.116-0.354-0.295-0.673-0.52-0.944l1.271-1.052
				c0.354,0.428,0.634,0.928,0.814,1.486C39.731,60.589,39.798,61.159,39.763,61.712z"/>
		</g>
		<circle fill="#FFFFFF" cx="35.243" cy="61.428" r="0.707"/>
	</g>
	<g id="Point_38_">
		<g>
			<path fill="#1F233B" d="M18.979,37.033c-4.491,0-8.132,3.641-8.132,8.132s3.641,8.132,8.132,8.132s8.132-3.641,8.132-8.132
				S23.471,37.033,18.979,37.033z M18.979,51.278c-3.376,0-6.113-2.737-6.113-6.113s2.737-6.112,6.113-6.112
				s6.112,2.736,6.112,6.112C25.093,48.541,22.355,51.278,18.979,51.278z"/>
			<path fill="#1F233B" d="M24.167,43.479c-0.931-2.865-4.008-4.434-6.873-3.502c-2.864,0.931-4.434,4.008-3.503,6.874
				c0.933,2.865,4.009,4.434,6.874,3.502C23.53,49.421,25.099,46.344,24.167,43.479z M18.979,40.637
				c0.589,0,1.149,0.111,1.667,0.315l-0.607,1.533c-0.328-0.13-0.686-0.201-1.06-0.201s-0.731,0.071-1.061,0.201l-0.605-1.533
				C17.829,40.749,18.391,40.637,18.979,40.637z M14.674,43.766c0.183-0.561,0.463-1.061,0.815-1.487l1.271,1.051
				c-0.225,0.272-0.402,0.59-0.52,0.946c-0.115,0.355-0.158,0.718-0.136,1.07l-1.646,0.103
				C14.425,44.894,14.492,44.325,14.674,43.766z M17.852,49.552c-0.537-0.139-1.059-0.378-1.533-0.725
				c-0.478-0.346-0.865-0.767-1.162-1.236l1.392-0.883c0.189,0.297,0.438,0.565,0.739,0.786c0.303,0.22,0.634,0.372,0.976,0.46
				L17.852,49.552z M18.979,46.983c-1.004,0-1.818-0.814-1.818-1.818s0.814-1.817,1.818-1.817s1.817,0.813,1.817,1.817
				S19.983,46.983,18.979,46.983z M21.641,48.827c-0.478,0.347-0.997,0.586-1.534,0.725l-0.41-1.598
				c0.342-0.088,0.672-0.24,0.976-0.46c0.303-0.22,0.551-0.488,0.738-0.785l1.393,0.885C22.505,48.061,22.116,48.481,21.641,48.827z
				 M23.499,45.449l-1.646-0.104c0.021-0.353-0.021-0.715-0.137-1.07s-0.295-0.673-0.519-0.945l1.271-1.051
				c0.354,0.427,0.634,0.927,0.814,1.486C23.468,44.325,23.534,44.895,23.499,45.449z"/>
		</g>
		<circle fill="#FFFFFF" cx="18.979" cy="45.165" r="0.707"/>
	</g>
	<g id="Point_37_">
		<g>
			<path fill="#1F233B" d="M18.979,53.296c-4.491,0-8.132,3.642-8.132,8.133c0,4.49,3.641,8.132,8.132,8.132
				s8.132-3.642,8.132-8.132S23.471,53.296,18.979,53.296z M18.979,67.542c-3.376,0-6.113-2.736-6.113-6.112
				s2.737-6.113,6.113-6.113s6.112,2.737,6.112,6.113C25.093,64.805,22.355,67.542,18.979,67.542z"/>
			<path fill="#1F233B" d="M24.167,59.743c-0.931-2.865-4.008-4.433-6.873-3.502c-2.864,0.931-4.434,4.008-3.503,6.874
				c0.933,2.866,4.009,4.434,6.874,3.502S25.099,62.608,24.167,59.743z M18.979,56.901c0.589,0,1.149,0.112,1.667,0.315
				l-0.607,1.534c-0.328-0.13-0.686-0.202-1.06-0.202s-0.731,0.071-1.061,0.201l-0.605-1.533
				C17.829,57.013,18.391,56.901,18.979,56.901z M14.674,60.029c0.183-0.56,0.463-1.06,0.815-1.487l1.271,1.052
				c-0.225,0.271-0.402,0.59-0.52,0.945c-0.115,0.356-0.158,0.718-0.136,1.07l-1.646,0.103
				C14.425,61.158,14.492,60.589,14.674,60.029z M17.852,65.814c-0.537-0.138-1.059-0.377-1.533-0.724
				c-0.478-0.346-0.865-0.767-1.162-1.235l1.392-0.884c0.189,0.298,0.438,0.564,0.739,0.785c0.302,0.222,0.634,0.372,0.976,0.46
				L17.852,65.814z M18.979,63.247c-1.004,0-1.818-0.813-1.818-1.817c0-1.005,0.814-1.818,1.818-1.818s1.817,0.813,1.817,1.818
				C20.797,62.433,19.983,63.247,18.979,63.247z M21.641,65.091c-0.478,0.348-0.997,0.587-1.534,0.725l-0.41-1.597
				c0.342-0.089,0.672-0.24,0.976-0.461c0.303-0.22,0.551-0.487,0.738-0.784l1.393,0.884C22.505,64.324,22.116,64.745,21.641,65.091
				z M23.499,61.712l-1.646-0.104c0.021-0.353-0.021-0.714-0.137-1.07c-0.115-0.354-0.295-0.673-0.519-0.944l1.271-1.052
				c0.354,0.428,0.634,0.928,0.814,1.486C23.468,60.589,23.534,61.159,23.499,61.712z"/>
		</g>
		<circle fill="#FFFFFF" cx="18.979" cy="61.428" r="0.707"/>
	</g>
	<g id="Point_36_">
		<g>
			<path fill="#1F233B" d="M35.243,4.505c-4.491,0-8.132,3.642-8.132,8.133c0,4.49,3.641,8.132,8.132,8.132s8.132-3.642,8.132-8.132
				C43.375,8.146,39.734,4.505,35.243,4.505z M35.243,18.75c-3.377,0-6.113-2.735-6.113-6.112s2.736-6.113,6.113-6.113
				c3.376,0,6.112,2.736,6.112,6.113S38.619,18.75,35.243,18.75z"/>
			<path fill="#1F233B" d="M40.431,10.951c-0.932-2.865-4.01-4.433-6.873-3.502c-2.865,0.931-4.435,4.008-3.503,6.874
				s4.009,4.433,6.874,3.502C39.794,16.894,41.362,13.817,40.431,10.951z M35.243,8.109c0.588,0,1.15,0.112,1.667,0.317
				l-0.606,1.532c-0.328-0.13-0.687-0.201-1.061-0.201s-0.73,0.071-1.06,0.201l-0.606-1.532C34.093,8.222,34.654,8.109,35.243,8.109
				z M30.938,11.238c0.182-0.56,0.462-1.061,0.814-1.487l1.271,1.052c-0.227,0.271-0.403,0.59-0.521,0.945
				c-0.114,0.355-0.157,0.717-0.136,1.069l-1.646,0.104C30.688,12.367,30.755,11.797,30.938,11.238z M34.115,17.023
				c-0.537-0.138-1.058-0.377-1.533-0.724c-0.477-0.346-0.865-0.767-1.162-1.235l1.393-0.884c0.188,0.298,0.437,0.565,0.738,0.785
				c0.304,0.221,0.635,0.372,0.976,0.461L34.115,17.023z M35.243,14.456c-1.004,0-1.818-0.813-1.818-1.817
				c0-1.005,0.814-1.818,1.818-1.818s1.818,0.813,1.818,1.818C37.061,13.642,36.247,14.456,35.243,14.456z M37.904,16.3
				c-0.478,0.348-0.997,0.587-1.535,0.725l-0.41-1.597c0.342-0.088,0.673-0.24,0.978-0.461c0.302-0.22,0.55-0.487,0.737-0.784
				l1.393,0.884C38.769,15.533,38.38,15.954,37.904,16.3z M39.763,12.921l-1.646-0.104c0.021-0.353-0.021-0.714-0.136-1.07
				c-0.116-0.355-0.295-0.674-0.52-0.944l1.271-1.052c0.354,0.428,0.634,0.928,0.814,1.487
				C39.731,11.798,39.798,12.367,39.763,12.921z"/>
		</g>
		<circle fill="#FFFFFF" cx="35.243" cy="12.637" r="0.707"/>
	</g>
	<g id="Point_31_">
		<g>
			<path fill="#1F233B" d="M35.243,20.769c-4.491,0-8.132,3.641-8.132,8.132s3.641,8.132,8.132,8.132s8.132-3.641,8.132-8.132
				S39.734,20.769,35.243,20.769z M35.243,35.014c-3.377,0-6.113-2.736-6.113-6.113c0-3.376,2.736-6.113,6.113-6.113
				c3.376,0,6.112,2.737,6.112,6.113S38.619,35.014,35.243,35.014z"/>
			<path fill="#1F233B" d="M40.431,27.215c-0.932-2.864-4.01-4.433-6.873-3.502c-2.865,0.932-4.435,4.009-3.503,6.874
				c0.932,2.866,4.009,4.434,6.874,3.502C39.794,33.158,41.362,30.081,40.431,27.215z M35.243,24.373
				c0.588,0,1.15,0.112,1.667,0.317l-0.606,1.533c-0.328-0.13-0.687-0.201-1.061-0.201s-0.73,0.071-1.06,0.201l-0.606-1.533
				C34.093,24.485,34.654,24.373,35.243,24.373z M30.938,27.502c0.182-0.56,0.462-1.06,0.814-1.486l1.271,1.051
				c-0.227,0.271-0.403,0.59-0.521,0.946c-0.114,0.354-0.157,0.717-0.136,1.069l-1.646,0.104
				C30.688,28.63,30.755,28.061,30.938,27.502z M34.115,33.287c-0.537-0.138-1.058-0.377-1.533-0.723
				c-0.477-0.346-0.865-0.768-1.162-1.236l1.393-0.883c0.188,0.297,0.437,0.565,0.738,0.786c0.304,0.22,0.635,0.372,0.976,0.46
				L34.115,33.287z M35.243,30.719c-1.004,0-1.818-0.814-1.818-1.818s0.814-1.818,1.818-1.818s1.818,0.814,1.818,1.818
				S36.247,30.719,35.243,30.719z M37.904,32.563c-0.478,0.347-0.997,0.586-1.535,0.724l-0.41-1.597
				c0.342-0.087,0.673-0.24,0.978-0.46c0.302-0.22,0.55-0.488,0.737-0.785l1.393,0.884C38.769,31.797,38.38,32.219,37.904,32.563z
				 M39.763,29.185l-1.646-0.104c0.021-0.352-0.021-0.714-0.136-1.069c-0.116-0.356-0.295-0.674-0.52-0.945l1.271-1.051
				c0.354,0.427,0.634,0.927,0.814,1.485C39.731,28.062,39.798,28.631,39.763,29.185z"/>
		</g>
		<circle fill="#FFFFFF" cx="35.243" cy="28.901" r="0.707"/>
	</g>
	<g id="Point_30_">
		<g>
			<path fill="#1F233B" d="M18.979,4.505c-4.491,0-8.132,3.642-8.132,8.133c0,4.49,3.641,8.132,8.132,8.132s8.132-3.642,8.132-8.132
				C27.111,8.146,23.471,4.505,18.979,4.505z M18.979,18.75c-3.376,0-6.113-2.735-6.113-6.112s2.737-6.113,6.113-6.113
				s6.112,2.736,6.112,6.113S22.355,18.75,18.979,18.75z"/>
			<path fill="#1F233B" d="M24.167,10.951c-0.931-2.865-4.008-4.433-6.873-3.502c-2.864,0.931-4.434,4.008-3.503,6.874
				c0.933,2.866,4.009,4.433,6.874,3.502S25.099,13.817,24.167,10.951z M18.979,8.109c0.589,0,1.149,0.112,1.667,0.317l-0.607,1.532
				c-0.328-0.13-0.686-0.201-1.06-0.201s-0.731,0.071-1.061,0.201l-0.605-1.532C17.829,8.222,18.391,8.109,18.979,8.109z
				 M14.674,11.238c0.183-0.56,0.463-1.061,0.815-1.487l1.271,1.052c-0.225,0.271-0.402,0.59-0.52,0.945
				c-0.115,0.355-0.158,0.717-0.136,1.069L14.46,12.92C14.425,12.367,14.492,11.797,14.674,11.238z M17.852,17.023
				c-0.537-0.138-1.059-0.377-1.533-0.724c-0.478-0.346-0.865-0.767-1.162-1.235l1.392-0.884c0.189,0.298,0.438,0.565,0.739,0.785
				c0.303,0.221,0.634,0.372,0.976,0.461L17.852,17.023z M18.979,14.456c-1.004,0-1.818-0.813-1.818-1.817
				c0-1.005,0.814-1.818,1.818-1.818s1.817,0.813,1.817,1.818C20.797,13.642,19.983,14.456,18.979,14.456z M21.641,16.3
				c-0.478,0.348-0.997,0.587-1.534,0.725l-0.41-1.597c0.342-0.088,0.672-0.24,0.976-0.461c0.303-0.22,0.551-0.487,0.738-0.784
				l1.393,0.884C22.505,15.533,22.116,15.954,21.641,16.3z M23.499,12.921l-1.646-0.104c0.021-0.353-0.021-0.714-0.137-1.07
				c-0.115-0.355-0.295-0.674-0.519-0.944l1.271-1.052c0.354,0.428,0.634,0.928,0.814,1.487
				C23.468,11.798,23.534,12.367,23.499,12.921z"/>
		</g>
		<circle fill="#FFFFFF" cx="18.979" cy="12.637" r="0.707"/>
	</g>
	<g id="Point_29_">
		<g>
			<path fill="#1F233B" d="M18.979,20.769c-4.491,0-8.132,3.641-8.132,8.132s3.641,8.132,8.132,8.132s8.132-3.641,8.132-8.132
				S23.471,20.769,18.979,20.769z M18.979,35.014c-3.376,0-6.113-2.736-6.113-6.113c0-3.376,2.737-6.113,6.113-6.113
				s6.112,2.737,6.112,6.113C25.093,32.277,22.355,35.014,18.979,35.014z"/>
			<path fill="#1F233B" d="M24.167,27.215c-0.931-2.864-4.008-4.433-6.873-3.502c-2.864,0.932-4.434,4.009-3.503,6.874
				c0.933,2.866,4.009,4.434,6.874,3.502C23.53,33.158,25.099,30.081,24.167,27.215z M18.979,24.373
				c0.589,0,1.149,0.112,1.667,0.317l-0.607,1.533c-0.328-0.13-0.686-0.201-1.06-0.201s-0.731,0.071-1.061,0.201l-0.605-1.533
				C17.829,24.485,18.391,24.373,18.979,24.373z M14.674,27.502c0.183-0.56,0.463-1.06,0.815-1.486l1.271,1.051
				c-0.225,0.271-0.402,0.59-0.52,0.946c-0.115,0.354-0.158,0.717-0.136,1.069l-1.646,0.104
				C14.425,28.63,14.492,28.061,14.674,27.502z M17.852,33.287c-0.537-0.138-1.059-0.377-1.533-0.723
				c-0.478-0.346-0.865-0.768-1.162-1.236l1.392-0.883c0.189,0.297,0.438,0.565,0.739,0.786c0.303,0.22,0.634,0.372,0.976,0.46
				L17.852,33.287z M18.979,30.719c-1.004,0-1.818-0.814-1.818-1.818s0.814-1.818,1.818-1.818s1.817,0.814,1.817,1.818
				S19.983,30.719,18.979,30.719z M21.641,32.563c-0.478,0.347-0.997,0.586-1.534,0.724l-0.41-1.597
				c0.342-0.087,0.672-0.24,0.976-0.46c0.303-0.22,0.551-0.488,0.738-0.785l1.393,0.884C22.505,31.797,22.116,32.219,21.641,32.563z
				 M23.499,29.185l-1.646-0.104c0.021-0.352-0.021-0.714-0.137-1.069c-0.115-0.356-0.295-0.674-0.519-0.945l1.271-1.051
				c0.354,0.427,0.634,0.927,0.814,1.485C23.468,28.062,23.534,28.631,23.499,29.185z"/>
		</g>
		<circle fill="#FFFFFF" cx="18.979" cy="28.901" r="0.707"/>
	</g>
</g>
<g>
	<path d="M49.258,5.765c-0.875-0.408-1.247-1.08-1.247-1.751c0-1.235,1.044-2.075,2.423-2.075c1.511,0,2.278,0.936,2.278,1.919
		c0,0.66-0.335,1.379-1.295,1.823v0.036c0.972,0.384,1.571,1.08,1.571,2.015c0,1.367-1.163,2.267-2.65,2.267
		c-1.632,0-2.615-0.959-2.615-2.099c0-0.983,0.588-1.691,1.548-2.099L49.258,5.765z M51.921,7.84c0-0.936-0.66-1.403-1.715-1.703
		c-0.912,0.264-1.403,0.875-1.403,1.619c-0.036,0.78,0.563,1.475,1.559,1.475C51.309,9.231,51.921,8.643,51.921,7.84z M49.018,3.942
		c-0.012,0.78,0.588,1.199,1.487,1.439c0.671-0.228,1.187-0.708,1.187-1.416c0-0.624-0.371-1.271-1.318-1.271
		C49.498,2.695,49.018,3.27,49.018,3.942z"/>
</g>
</svg>
