<?xml version="1.0" encoding="utf-8"?>
<!-- Generator: Adobe Illustrator 15.0.0, SVG Export Plug-In . SVG Version: 6.00 Build 0)  -->
<!DOCTYPE svg PUBLIC "-//W3C//DTD SVG 1.1//EN" "http://www.w3.org/Graphics/SVG/1.1/DTD/svg11.dtd">
<svg version="1.1" id="Souzu" xmlns="http://www.w3.org/2000/svg" xmlns:xlink="http://www.w3.org/1999/xlink" x="0px" y="0px"
	 width="54.225px" height="74.066px" viewBox="0 0 54.225 74.066" enable-background="new 0 0 54.225 74.066" xml:space="preserve">
<g id="_x31_sou">
	
		<rect x="0.183" y="0.183" fill="#F6F5F1" stroke="#010202" stroke-width="0.3649" stroke-miterlimit="10" width="53.857" height="73.7"/>
	<g id="Oiseau">
		<g id="Vert">
			<path fill="#003C14" d="M27.686,29.114c-1.028,0.502-0.758,1.906,0.31,1.675C28.96,30.58,28.864,29.062,27.686,29.114z"/>
			<path fill="#003C14" d="M33.827,20.058c0.975-0.228,0.863-1.763-0.341-1.706c-0.208,0.111-0.431,0.184-0.558,0.372
				C32.531,19.312,33.061,20.236,33.827,20.058z"/>
			<path fill="#003C14" d="M24.088,24.648c-1.081,0.508-0.794,1.969,0.312,1.737C25.403,26.173,25.31,24.595,24.088,24.648z"/>
			<path fill="#003C14" d="M21.328,20.43c0.977-0.228,0.864-1.762-0.341-1.706c-0.208,0.111-0.431,0.184-0.558,0.372
				C20.032,19.684,20.562,20.608,21.328,20.43z"/>
			<path fill="#003C14" d="M21.018,29.269c-0.208,0.112-0.432,0.185-0.559,0.373c-0.396,0.587,0.133,1.512,0.899,1.334
				C22.334,30.748,22.222,29.213,21.018,29.269z"/>
			<path fill="#003C14" d="M24.15,15.654c1.095-0.229,0.99-1.948-0.341-1.892c-0.198,0.094-0.432,0.147-0.559,0.31
				C22.765,14.687,23.187,15.856,24.15,15.654z"/>
			<path fill="#003C14" d="M29.98,15.499c1.054-0.228,0.945-1.885-0.341-1.83c-0.22,0.108-0.458,0.183-0.59,0.372
				C28.62,14.663,29.128,15.683,29.98,15.499z"/>
			<path fill="#003C14" d="M27.345,20.368c1.053-0.228,0.944-1.885-0.342-1.83c-0.219,0.108-0.458,0.183-0.589,0.372
				C25.984,19.532,26.493,20.552,27.345,20.368z"/>
			<path fill="#003C14" d="M18.133,24.741c-1.081,0.509-0.794,1.969,0.311,1.737C19.448,26.266,19.356,24.688,18.133,24.741z"/>
			<path fill="#003C14" d="M35.874,23.997c-0.233,0.116-0.479,0.199-0.621,0.403c-0.455,0.659,0.108,1.712,0.993,1.52
				C37.353,25.679,37.228,23.937,35.874,23.997z"/>
			<path fill="#003C14" d="M33.547,28.928c-1.027,0.501-0.758,1.905,0.311,1.675C34.822,30.394,34.726,28.875,33.547,28.928z"/>
			<path fill="#003C14" d="M30.167,24.276c-1.081,0.508-0.794,1.969,0.311,1.737C31.482,25.802,31.389,24.224,30.167,24.276z"/>
			<path fill="#003C14" d="M40.495,22.818c-0.002-0.707,0.566-0.672,0.992-0.931c-0.01-0.053-0.021-0.104-0.031-0.155
				c-0.144-0.237-0.868-0.267-1.146-0.341c-0.122-0.169-0.249-0.383-0.155-0.683c0.129-0.312,0.464-0.372,0.713-0.559
				c-0.137-0.545-1.256-0.194-1.675-0.465c-0.505-0.327,0.078-0.848-0.031-1.21c-0.221-0.352-0.957-0.084-1.209-0.589
				c-0.314-0.629,0.467-0.896,0.341-1.364c-0.154-0.146-0.31-0.29-0.465-0.435c-0.021-0.196-0.041-0.393-0.062-0.59
				c-0.116-0.221-0.677-0.306-0.899-0.526c-0.125-0.583,0.241-0.682,0.372-1.117c0.021-0.081,0.015-0.08-0.031-0.155
				c-0.146-0.202-0.518-0.176-0.682-0.373c-0.043-0.278,0.056-0.471,0.062-0.806c-0.512-0.28-0.61,0.419-1.21,0.278
				c-0.558-0.131-0.318-0.608-0.589-1.022c-0.238-0.135-0.476-0.27-0.713-0.403c-0.479-0.599,0.256-1.129,0.279-1.736
				c-0.042-0.053-0.083-0.104-0.125-0.155c-1.391-0.328-1.174,0.118-2.017,0.559c-0.125-0.021-0.248-0.042-0.372-0.062
				c-0.541-0.251-0.21-0.871-0.278-1.396c-0.274-0.123-0.479,0.048-0.837,0.062c-0.257-0.271-0.28-0.566-0.837-0.56
				c-0.323,0.188-0.817-0.027-1.179,0.124c-0.328,0.139-0.423,0.575-0.774,0.713c-0.317,0.125-0.599-0.077-0.932-0.03
				c-0.362,0.051-0.552,0.341-1.022,0.278c-0.021,0-0.042,0-0.062,0c-0.314-0.078-0.418-0.394-0.683-0.526
				c-0.051-0.011-0.104-0.021-0.155-0.031c-0.206,0.214-0.415,0.636-0.837,0.527c-0.272-0.119-0.288-0.395-0.527-0.527
				c-0.062-0.01-0.123-0.021-0.186-0.031c-0.236,0.412-0.247,0.648-0.651,0.899c-0.516-0.051-0.509-0.425-0.991-0.465
				c-0.166,0.195-0.331,0.393-0.497,0.589c-0.442,0.072-0.55-0.214-0.931-0.279c-0.01,0-0.021,0-0.03,0
				c-0.113,0.18-0.148,0.588-0.218,0.807c-0.247,0.168-0.66,0.172-1.022,0.249c-0.021,0.041-0.042,0.083-0.062,0.124
				c-0.096,0.278,0.079,0.519,0.124,0.745c0.231,1.162-0.867,0.833-1.488,0.961c-0.118,0.222,0.013,0.54-0.124,0.808
				c-0.177,0.134-0.353,0.269-0.527,0.402c-0.049,0.45,0.717,1.351,0,1.706c-0.289,0.011-0.579,0.021-0.868,0.031
				c-0.225,0.476,0.562,0.781,0.311,1.612c-0.316,0.185-0.63,0.013-0.992,0.062c-0.031,0.041-0.062,0.083-0.093,0.124
				c0.059,0.391,0.759,0.907,0.31,1.365c-0.073,0.125-0.163,0.139-0.31,0.186c-0.331-0.116-0.58-0.276-0.992-0.278
				c-0.021,0.01-0.042,0.021-0.062,0.031c-0.065,0.105-0.093,0.145-0.093,0.341c0.453,0.489,1.317,0.915,0.961,1.83
				c-0.378,0.252-0.716,0.052-1.209,0.03c-0.042,0.053-0.083,0.104-0.124,0.155c0.08,0.505,0.492,0.503,0.651,0.869
				c0.084,0.194,0,0.424-0.062,0.558c-0.416,0.908-1.692,0.365-2.698,0.589c-0.061,0.099-0.083,0.106-0.093,0.279
				c0.355,0.239,1.369,0.475,1.055,1.148c-0.25,0.509-1.584,0.203-2.047,0.65c0.076,0.632,1.04,0.271,1.364,0.651
				c0.028,0.136,0.033,0.234-0.031,0.341c-0.194,0.396-0.823,0.259-1.022,0.62c0,0.052,0,0.104,0,0.155
				c0.582,0.324,2.961-0.305,2.419,1.022c-0.146,0.166-0.29,0.331-0.434,0.497c0,0.041,0,0.083,0,0.124
				c0.245,0.375,0.928-0.051,1.24,0.527c-0.006,0.359-0.11,0.496-0.217,0.744c0.029,0.425,0.298,0.395,0.465,0.65
				c0.052,0.197,0.104,0.394,0.155,0.589c0.064,0.173,0.882,1.344,1.055,1.396c0,0.01,0,0.021,0,0.031
				c0.901,0.229,1.548-0.393,2.389-0.218c0.566,0.119,0.996,0.466,1.488,0.652c0.461,0.174,1.067,0.216,1.489,0.341
				c0.583,0.173,1.745-0.002,2.047,0.465c0.354,0.546,0.248,3.982,0.248,5.087c0,0.618-0.071,1.704,0.341,1.923
				c0.053,0,0.104,0,0.155,0c0.289-0.189,0.159-1.615,0.155-2.078c-0.052-1.645-0.104-3.288-0.155-4.932
				c-0.066-0.422-0.164-1.265,0.062-1.52c0.465-0.784,1.364,0.271,1.458,0.745c-0.011,0.517-0.021,1.034-0.031,1.551
				c0.051,1.438,0.104,2.874,0.155,4.312c0.088,0.57-0.122,1.482,0.247,1.768c0.042,0.01,0.083,0.021,0.124,0.031
				c0.011,0,0.021,0,0.031,0c0.164-0.305,0.232-1.093,0.155-1.582c-0.194-1.216-0.015-2.827-0.217-4.125
				c-0.114-0.732,0.05-1.737,0.931-1.521c1.129,0.28,0.107,2.822,0.869,3.318c0.03-0.01,0.062-0.021,0.093-0.031
				c0.42-0.824-0.338-2.562,0.559-3.04c1.309-0.002,0.794,2.243,1.023,3.318c0.051,0.031,0.104,0.062,0.155,0.093
				c0.052-0.052,0.103-0.104,0.155-0.155c0.374-1.021-0.444-3.759,0.619-4.001c1.188-0.27,0.822,3.482,1.056,4.404
				c0.071,0.031,0.145,0.062,0.217,0.093c0.052-0.052,0.103-0.104,0.155-0.154c0.173-0.849-0.399-4.194,0.992-3.66
				c0.711,0.272,0.526,2.276,0.527,3.256c0,0.277-0.06,1.22,0.279,1.117c0.171-0.053,0.163-0.739,0.124-0.993
				c-0.138-0.899-0.01-2.321,0.373-2.854c0.419-0.107,0.784-0.027,0.961,0.279c0.2,0.346,0.092,3.583,0.124,4.28
				c0.062,0.021,0.124,0.042,0.186,0.062c0.476-0.932-0.208-2.785,0.311-3.69c0.33-0.577,1.203-0.207,1.83-0.496
				c0.408-0.188,0.139-0.76,0.373-1.116c0.211-0.323,0.783-0.287,1.022-0.589c0.058-0.318,0.287-1.213,0.249-1.396
				c-0.076-0.362-0.677-0.55-0.434-1.023c0.161-0.322,0.598-0.284,0.774-0.559c0.021-0.207,0.042-0.414,0.062-0.621
				c0.134-0.217,0.269-0.434,0.402-0.65c0.064-0.318-0.18-0.562-0.186-0.961c0.524-0.577,0.908-0.288,1.426-0.651
				c0.224-0.157,0.185-0.55,0.341-0.774c0.207-0.135,0.414-0.27,0.62-0.403c0.031-0.3,0.062-0.6,0.094-0.899
				c0.142-0.26,0.446-0.259,0.526-0.621C42.317,23.223,40.919,23.637,40.495,22.818z M33.919,21.578
				c-1.669,0.298-3.062-1.494-2.573-3.102c0.32-1.056,1.031-1.26,2.016-1.675C36.708,16.74,36.852,21.053,33.919,21.578z
				 M27.375,13.855c0.341-1.125,1.077-1.337,2.141-1.769c3.473-0.06,3.619,4.465,0.526,4.993
				C28.329,17.374,26.869,15.524,27.375,13.855z M27.469,21.919c-1.638,0.29-3.108-1.452-2.668-3.07
				c0.317-1.165,1.049-1.385,2.109-1.83C30.339,16.957,30.485,21.384,27.469,21.919z M21.669,13.979
				c0.329-1.059,1.04-1.269,2.047-1.674c3.356-0.062,3.498,4.298,0.527,4.807C22.574,17.397,21.164,15.604,21.669,13.979z
				 M18.754,18.848c0.335-1.104,1.066-1.314,2.109-1.736c3.435-0.06,3.579,4.408,0.527,4.931
				C19.688,22.334,18.251,20.504,18.754,18.848z M15.931,24.989c0.311-1.138,1.041-1.363,2.077-1.799
				c3.389-0.062,3.533,4.311,0.56,4.838C16.946,28.316,15.495,26.591,15.931,24.989z M21.452,32.556
				c-1.669,0.285-3.079-1.508-2.574-3.133c0.329-1.058,1.04-1.268,2.047-1.675C24.281,27.689,24.422,32.047,21.452,32.556z
				 M24.522,27.935c-1.681,0.288-3.114-1.525-2.605-3.163c0.334-1.079,1.053-1.291,2.078-1.706
				C27.39,23.006,27.532,27.42,24.522,27.935z M28.12,32.432c-1.649,0.292-3.142-1.47-2.698-3.103
				c0.323-1.188,1.06-1.406,2.141-1.859C31.03,27.409,31.178,31.89,28.12,32.432z M30.601,27.563
				c-1.702,0.292-3.14-1.539-2.637-3.194c0.335-1.103,1.066-1.313,2.109-1.737C33.508,22.572,33.653,27.041,30.601,27.563z
				 M33.981,32.277c-1.701,0.291-3.14-1.539-2.636-3.195c0.335-1.103,1.065-1.312,2.108-1.735
				C36.889,27.286,37.033,31.755,33.981,32.277z M36.338,27.315c-1.567,0.27-3.027-1.413-2.573-2.978
				c0.325-1.122,1.001-1.344,2.047-1.768C39.125,22.509,39.266,26.812,36.338,27.315z"/>
		</g>
		<g id="Noir">
			<path d="M19.302,43.68c-0.237,0.089-0.476,0.104-0.619,0.278c-0.415,0.503-0.109,1.577,0.683,1.457
				C20.471,45.251,20.398,43.839,19.302,43.68z"/>
			<path d="M46.191,51.185c-0.633-1.241-1.121-2.851-1.923-3.938c-0.688-0.933-1.479-1.866-2.202-2.792
				c-0.246-0.314-0.675-0.609-0.775-1.054c-0.138-0.618,0.518-1.069,0.744-1.396c0.82-1.178,1.631-2.33,2.512-3.442
				c0.234-0.296,1.148-0.841,0.992-1.333c-0.051-0.052-0.103-0.104-0.155-0.155c-0.49,0.061-0.706,0.388-1.022,0.621
				c-1.157,0.848-1.962,1.811-2.791,2.978c-0.347,0.487-0.601,1.11-1.086,1.457c-0.568,0.108-2.336-1.263-1.893-1.892
				c0.425-0.445,0.849-0.889,1.271-1.333c0.931-1.159,1.979-2.449,3.194-3.318c0.468-0.335,1.906-1.104,1.799-1.799
				c-0.042-0.021-0.083-0.042-0.124-0.062c-0.093-0.012-0.187-0.021-0.279-0.031c-1.036,0.638-2.159,1.098-3.102,1.83
				c-0.63,0.713-1.262,1.427-1.893,2.14c-0.39,0.485-1.608,2.156-2.232,2.233c-0.972-0.413-1.559-1.358-2.45-1.893
				c-0.982-0.588-2.903-0.917-4.156-1.179c-0.735-0.153-2.725-0.286-3.101,0.217c-0.207,0.884,0.791,2.312,0.154,2.792
				c-0.46,0.348-1.2,0.347-1.736,0.62c-0.321,0.165-0.522,0.511-0.932,0.589c-0.688,0.132-1.389-0.399-1.55,0.466
				c-0.116,0.621,0.615,1.18,0.868,1.52c0.688,0.923,1.827,2.411,2.264,3.474c-0.039,0.687-0.652,0.14-0.807-0.062
				c-0.75-0.979-1.524-1.915-2.264-2.884c-0.259-0.372-0.518-0.744-0.775-1.116c-0.567-0.707-1.458-1.234-2.171-1.799
				c-0.692-0.775-1.385-1.552-2.078-2.326c-0.733-0.911-1.926-1.577-2.884-2.264c-0.661-0.475-1.965-1.83-2.822-1.924
				c-0.811,0.411,1.035,1.486,1.147,2.017c0.188,0.888-0.2,2.293-0.342,2.945c-0.153,0.716-0.216,3.964,0,4.621
				c0.2,0.065,0.691,0.181,0.963,0.062c0.021,0,0.041,0,0.062,0c-0.204-1.568-0.3-4.002,0-5.646
				c0.078-0.427,0.021-1.468,0.651-1.303c1.284,0.337,1.142,1.817,0.93,3.227c-0.125,0.835,0.19,1.604-0.062,2.264
				c-0.237,0.622-0.728,0.973-0.931,1.613c-0.257,0.806,0.083,1.562-0.062,2.388c-0.851,0.421-1.261,1.095-1.954,1.644
				c-1.323,1.048-2.426,2.307-3.475,3.629c-0.687,0.866-1.48,1.602-2.077,2.574c-0.308,0.5-1.69,3.101-0.931,3.722
				c0.561,0.458,1.564,0.286,2.481,0.403c2.566,0.326,4.767-0.615,6.761-1.396c0.583-0.229,1.245-0.576,1.923-0.683
				c0.56-0.088,1.869,1.115,2.76,1.271c0.734,0.011,1.469,0.021,2.202,0.031c0.402,0.072,0.894,0.298,1.427,0.154
				c0.454-0.196,0.909-0.393,1.364-0.589c0.579-0.011,1.158-0.021,1.737-0.031c0.912-0.143,1.652,0.188,2.264,0.372
				c0.786,0.238,2.011,0.312,2.916,0.124c0.641-0.132,2.729-0.943,3.071-1.362c0.411-0.508,1.094-2.008,1.643-2.234
				c0.487-0.202,1.711-0.117,2.265-0.031c0.993,0,1.984,0,2.978,0c0.683,0.104,1.365,0.207,2.047,0.312
				c0.612,0.097,2.553,0.153,2.729-0.188C47.566,53.652,46.398,51.592,46.191,51.185z M42.997,47.433
				c-0.021,0.104-0.042,0.207-0.062,0.31c-0.301,0.19-1.859,0.741-2.326,0.651c-0.229-0.043-0.345-0.191-0.496-0.311
				c-0.037-0.133-0.069-0.23-0.031-0.372c0.253-0.606,1.333-0.732,1.923-1.023C42.567,46.687,42.84,47.034,42.997,47.433z
				 M41.478,45.355c0,0.072,0,0.145,0,0.218c-0.123,0.266-1.656,1.038-2.017,1.116c-0.548,0.119-0.988-0.461-0.806-0.868
				c0.243-0.512,1.207-0.501,1.768-0.714C40.91,45.091,41.275,45.088,41.478,45.355z M38.314,42.781
				c0.062-0.072,0.124-0.144,0.186-0.217c0.687,0,1.396,0.667,1.582,1.178c-0.042,0.073-0.083,0.146-0.124,0.217
				C39.042,44.199,37.972,43.904,38.314,42.781z M37.88,47.588c-0.785,0.59-1.571,1.179-2.356,1.769
				c-0.356,0.089-0.528-0.126-0.684-0.249c-0.196-0.797,1.776-2.233,2.389-2.574c0.083,0.021,0.166,0.041,0.248,0.062
				C37.734,46.708,38.126,47.196,37.88,47.588z M31.211,47.247c0.221-0.583,2.809-1.014,3.536-1.302
				c0.402-0.016,0.745,0.041,0.869,0.31c0.159,0.435-0.425,0.804-0.621,1.023c-0.708,0.799-1.002,0.976-2.295,0.775
				c-0.521-0.081-0.942-0.062-1.333-0.188C31.265,47.729,31.093,47.506,31.211,47.247z M31.088,45.728
				c-0.416-0.167-0.904-1.388-0.402-1.769c0.599-0.454,1.524-0.36,2.295-0.65c0.741-0.031,1.737,0.688,1.458,1.364
				C34.296,45.056,31.688,45.903,31.088,45.728z M36.608,44.456c-0.799,0.224-1.728-0.987-1.302-1.458
				c0.185-0.324,0.759-0.311,1.116-0.465c0.146,0.021,0.289,0.042,0.435,0.062C37.582,42.915,37.208,44.289,36.608,44.456z
				 M33.972,40.021c0.083-0.052,0.165-0.104,0.248-0.155c1.288-0.013,1.925,0.449,2.419,1.209c-0.031,0.083-0.062,0.166-0.094,0.249
				c-0.131,0.233-0.425,0.229-0.713,0.311c-1.133,0.316-1.297,0.179-1.675-0.744c-0.088-0.216-0.226-0.386-0.249-0.684
				C33.931,40.145,33.952,40.083,33.972,40.021z M32.235,40.269c0.512,0.207,1.079,1.146,0.869,1.859
				c-0.326,0.23-2.503,0.83-3.008,0.496c-0.24-0.158-0.293-0.545-0.403-0.837c-0.084-0.221-0.278-0.577-0.155-0.898
				c0.208-0.546,1.054-0.472,1.613-0.684C31.504,40.196,31.973,40.163,32.235,40.269z M29.258,47.433c0.135,0,0.27,0,0.403,0
				c0.062,0.071,0.124,0.145,0.187,0.217c0,0.104,0,0.207,0,0.311c-0.085,0.214-0.218,0.289-0.435,0.372
				c-0.314,0.006-0.497-0.096-0.589-0.31C28.682,47.679,29.059,47.545,29.258,47.433z M27.366,45.542
				c0.226-0.543,0.792-0.612,1.302-0.869c0.771-0.024,1.023,0.58,0.993,1.333C29.051,46.717,27.397,46.892,27.366,45.542z
				 M28.855,38.16c0.165-0.083,0.331-0.165,0.496-0.248c0.893-0.02,2.183-0.009,2.171,0.932
				C30.941,39.518,28.295,39.929,28.855,38.16z M26.529,43.99c-0.2-0.273-0.259-0.531-0.217-0.992c0.12-1.337,0.52-1.315,1.52-1.736
				c0.447,0.088,1.13,1.304,0.899,1.86C28.549,43.562,27.113,44.18,26.529,43.99z M23.551,45.696
				c0.072-0.041,0.146-0.083,0.218-0.124c0.487,0.177,2.832,2.806,2.853,3.38c-0.062,0.051-0.124,0.104-0.186,0.155
				c-0.423,0.158-0.707-0.358-0.899-0.559c-0.492-0.511-2-1.976-2.016-2.792C23.531,45.738,23.541,45.717,23.551,45.696z
				 M22.931,47.03c0.527,0.032,2.411,2.401,2.14,2.977C24.187,50.234,22.25,47.688,22.931,47.03z M23.521,50.658
				c-0.072,0.062-0.146,0.125-0.217,0.188c-0.681,0.298-1.771-1.259-1.428-1.893c0.053-0.062,0.104-0.125,0.155-0.187
				c0.083,0,0.166,0,0.248,0C22.597,49.047,23.517,50.146,23.521,50.658z M17.318,38.656c0.707,0.007,1.479,1.027,1.675,1.582
				c-0.01,0.052-0.021,0.104-0.031,0.155c-0.317,0.229-1.14,0.464-1.612,0.465C17,40.501,17.038,39.062,17.318,38.656z
				 M15.612,47.34c0.288,0.002,0.395,0.062,0.589,0.124c0.808,1.123-1.322,2.535-2.078,1.521
				C14.02,48.319,15.137,47.596,15.612,47.34z M16.945,53.325c-0.017,0.238-0.099,0.426-0.248,0.528
				c-0.312,0.213-2.269,0.441-2.76,0.434c-0.528-0.493,0.126-1.143,0.559-1.364C15.407,52.907,16.574,52.778,16.945,53.325z
				 M8.913,57.079c-0.436-0.064-0.817,0.082-1.085-0.155C7.134,56.532,8.212,55.7,8.51,55.559c0.931-0.007,2.146-0.11,2.698,0.278
				C11.535,57.167,10.167,57.265,8.913,57.079z M12.231,53.759c-0.13,0.259-0.224,0.543-0.465,0.684
				c-0.479,0.278-2.127,0.217-2.637,0.062c-0.03-0.052-0.062-0.104-0.093-0.154c-0.236-0.603,0.688-1.277,1.085-1.458
				c0.619-0.015,2.051-0.136,2.265,0.278C12.48,53.415,12.312,53.6,12.231,53.759z M11.394,51.775
				c-0.053-0.072-0.104-0.146-0.155-0.218c0.042-0.758,0.911-1.286,1.458-1.581c0.658-0.014,1.328,0.093,1.551,0.526
				C14.15,51.883,12.788,52.036,11.394,51.775z M14.123,56.427c-0.303,0.126-0.684,0.433-1.116,0.311
				c-0.062-0.062-0.124-0.125-0.186-0.186c-0.662-1.41,2.992-1.279,3.813-1.646c0.155,0.011,0.311,0.021,0.466,0.032
				c0.063,0.102,0.089,0.124,0.093,0.309C16.543,55.923,15.043,56.048,14.123,56.427z M15.395,51.589
				c-0.268-0.604,0.446-0.822,0.806-0.962c0.434-0.019,0.825-0.003,0.961,0.28C17.843,51.71,15.703,52.355,15.395,51.589z
				 M17.131,49.635c-0.071-0.062-0.145-0.124-0.217-0.187c-0.089-0.499,0.277-0.724,0.62-0.899c0.249,0.017,0.348,0.084,0.496,0.187
				c0.021,0.093,0.042,0.186,0.062,0.279C17.919,49.355,17.704,49.806,17.131,49.635z M35.646,54.38
				c-0.365,0.514-2.125,0.808-2.854,1.023c-0.701,0.209-1.405,0.456-2.202,0.589c-1.674-0.01-3.35-0.021-5.023-0.031
				c-0.854,0.142-1.634,0.51-2.729,0.343c-0.672,0-1.344,0-2.016,0c-0.819-0.141-1.632-0.533-2.047-1.087
				c-0.84-1.119-0.793-3.344-0.341-4.839c0.163-0.537,0.815-1.462,0.526-2.139c-0.224-0.523-1.989-1.261-2.512-1.954
				c-0.185-0.246-0.425-0.564-0.496-0.898c-0.26-1.224,1.077-3.304,1.706-3.66c0.6-0.136,1.199-0.27,1.799-0.403
				c1.696-0.015,2.575,1.488,3.009,2.791c0.106,0.321,0.299,0.78,0.187,1.209c-0.3,1.146-1.213,1.979-1.55,3.194
				c-0.206,0.742-0.493,2.623,0.03,3.102c0.926,0.845,2.265,0.37,3.288-0.031c0.816-0.32,1.634-0.642,2.45-0.962
				c0.435-0.31,0.868-0.62,1.302-0.93c0.552-0.325,1.573-0.532,2.233-0.652c2.604-0.471,4.191,1.133,5.118,2.513
				C35.891,52.107,36.131,53.701,35.646,54.38z M36.484,50.783c-0.157-0.075-0.188-0.175-0.279-0.31
				c0.019-0.856,1.562-1.73,2.171-2.109c0.604-0.024,0.86,0.334,0.837,0.837C38.928,49.508,36.91,51.016,36.484,50.783z
				 M37.725,51.868c-0.021,0-0.042,0-0.062,0c-0.063-0.102-0.089-0.124-0.093-0.311c0.604-0.638,1.346-1.033,2.109-1.52
				c0.527-0.017,0.822,0.279,0.806,0.807C40.236,51.111,38.13,51.959,37.725,51.868z M41.292,52.55
				c-0.209,0.413-1.789,0.386-2.327,0.342c-0.041-0.062-0.083-0.124-0.124-0.187c0.298-0.504,1.051-0.369,1.645-0.589
				c0.391-0.016,0.644,0.009,0.807,0.217C41.292,52.406,41.292,52.478,41.292,52.55z M41.384,49.604
				c0.527-0.556,1.184-0.347,2.017-0.651c0.733,0.018,1.262,0.616,1.054,1.271C43.638,50.759,41.394,50.967,41.384,49.604z
				 M45.695,52.83c-0.214,0.196-2.428,0.052-2.698-0.124c-0.165-0.107-0.265-0.33-0.341-0.526c0.003-0.207,0.033-0.277,0.093-0.403
				c0.522-0.189,1.202-0.158,1.769-0.372c0.846-0.031,1.351,0.465,1.334,1.271C45.798,52.726,45.747,52.778,45.695,52.83z"/>
		</g>
		<g id="Rouge">
			<path fill="#801927" d="M10.26,42.827c0.648-0.008,0.985,0.19,1.396,0.341c0.651,0.146,1.303,0.29,1.954,0.435
				c0.646,0.146,1.2,0.075,1.675,0.372c0.065,0.212,0.141,0.812-0.093,0.899c-0.444-0.125-0.889-0.249-1.333-0.373
				c-0.149-0.044-0.801-0.299-0.961-0.402c-0.062-0.083-0.124-0.166-0.187-0.249c-0.414-0.189-1.207-0.333-1.675-0.527
				c-0.282-0.117-0.701-0.079-0.868-0.31C10.198,42.951,10.229,42.889,10.26,42.827z"/>
			<path fill="#801927" d="M11.904,45.897c1.144-0.015,2.377-0.017,3.318,0.279c0.01,0.021,0.021,0.042,0.03,0.062
				c-0.01,0.062-0.021,0.124-0.03,0.186c-0.328,0.687-2.893,0.005-3.442-0.31c0-0.042,0-0.083,0-0.124
				C11.821,45.959,11.863,45.928,11.904,45.897z"/>
			<path fill="#801927" d="M24.341,57.402c0.042,0.021,0.083,0.042,0.124,0.062c-0.025,1.187-0.291,1.599,0.651,2.109
				c-0.021,0.093-0.041,0.187-0.062,0.279c-1.201,0.475-0.113,2.57-0.838,2.977c-0.216,0.188-0.823,0.259-1.179,0.188
				c0-0.062,0-0.123,0-0.188c0.255-0.317,0.771-0.53,0.899-0.96c0.151-0.508,0.014-0.902-0.062-1.241
				c0.031-0.29,0.062-0.579,0.093-0.868c0.011-0.733,0.021-1.469,0.031-2.202C24.113,57.506,24.227,57.455,24.341,57.402z"/>
			<path fill="#801927" d="M31.753,57.496c0.113,0.01,0.229,0.021,0.342,0.031c0,0.02,0,0.041,0,0.062
				c0.052,0.455,0.104,0.91,0.155,1.364c0.217,0.197,0.435,0.394,0.651,0.589c-0.021,0.094-0.042,0.187-0.062,0.279
				c-1.04,0.463-0.109,1.998-0.744,2.915c-0.424,0.014-0.855,0.239-1.24,0.062c0.01-0.07,0.021-0.145,0.03-0.217
				c0.151-0.297,0.605-0.435,0.868-0.62c-0.004-0.625-0.097-1.288-0.154-1.769c0.042-0.196,0.083-0.394,0.124-0.589
				c-0.042-0.229-0.083-0.455-0.124-0.684c-0.064-0.344-0.086-1.292,0-1.364C31.649,57.537,31.701,57.517,31.753,57.496z"/>
			<path fill="#801927" d="M32.466,64.041c0.177,0.021,0.353,0.041,0.527,0.062c0.011,0.071,0.021,0.145,0.031,0.217
				c-0.241,0.475-1.29,1.367-1.737,1.675c-0.438-0.08-0.248-0.556-0.31-0.961c-0.331-0.155-0.662-0.311-0.993-0.466
				c-0.01-0.031-0.021-0.062-0.031-0.093c0.031-0.072,0.062-0.146,0.093-0.218C30.885,64.128,31.78,64.362,32.466,64.041z"/>
			<path fill="#801927" d="M23.658,64.753c0.114,0,0.229,0,0.341,0c0.041,0.053,0.083,0.104,0.124,0.154
				c-0.017,0.409-1.194,1.435-1.706,1.304c-0.258-0.154-0.517-0.311-0.774-0.466c-0.205-0.12-0.868-0.226-0.837-0.465
				C21.144,64.694,23.055,65.063,23.658,64.753z"/>
		</g>
	</g>
</g>
<g>
	<path d="M50.109,3.72h-0.023L48.73,4.452l-0.204-0.804l1.703-0.912h0.899v7.796h-1.02V3.72z"/>
</g>
</svg>
